<svg width="97" height="52" viewBox="0 0 97 52" fill="none" xmlns="http://www.w3.org/2000/svg">
<path d="M41.7817 39.1819C41.7817 39.1819 73.8914 26.4986 66.8544 3.57798C62.7099 -8.32315 105.242 10.9737 41.7817 39.1819Z" fill="white"/>
<path d="M0.584839 51.6036C0.584839 51.6036 32.0651 29.7359 40.317 9.80971C48.5179 -9.98925 75.8098 12.3968 46.3474 30.9994C34.8767 39.4503 28.5709 38.3835 28.5709 38.3835C28.5709 38.3835 61.5877 38.7537 20.5666 47.6744C15.235 48.8337 8.6516 50.1365 0.584839 51.6036Z" fill="white"/>
<path d="M8.02441 40.8225C8.02441 40.8225 29.1493 20.7204 23.5285 17.5131C17.9077 14.3036 8.02441 40.8225 8.02441 40.8225Z" fill="white"/>
<path d="M53.4446 41.8268C53.4446 41.8268 98.897 43.3472 96.3192 33.5865C93.7413 23.8259 53.4446 41.8268 53.4446 41.8268Z" fill="white"/>
</svg>
