<svg width="28" height="27" viewBox="0 0 28 27" fill="none" xmlns="http://www.w3.org/2000/svg">
<g clip-path="url(#clip0_128_66)">
<path d="M8.68 17.24C7.97 16.77 7.29 16.28 6.58 15.86C6.18 15.63 6 15.36 6.07 14.9C6.1 14.7 6.08 14.49 6.08 14.25C4.05 14.25 2.04 14.25 0 14.25C0 10.96 0 7.69 0 4.4C2.02 4.4 4.03 4.4 6.07 4.4C6.07 2.92 6.07 1.47 6.07 0C9.92 0 13.75 0 17.6 0C17.6 0.31 17.6 0.61 17.6 0.95C14.49 0.95 11.37 0.95 8.25 0.95C8.25 0.97 8.24 0.99 8.24 1.01C8.3 1.04 8.36 1.08 8.43 1.11C9.07 1.36 9.7 1.62 10.35 1.86C10.51 1.92 10.69 1.94 10.87 1.94C13.8 1.94 16.73 1.94 19.65 1.95C19.95 1.95 20.26 2.08 20.55 2.18C20.62 2.2 20.67 2.36 20.67 2.46C20.68 3.09 20.68 3.72 20.68 4.38C22.89 4.38 25.09 4.38 27.3 4.38C27.3 7.67 27.3 10.93 27.3 14.21C25.1 14.21 22.92 14.21 20.68 14.21C20.68 15.35 20.68 16.46 20.68 17.61C19.79 17.61 18.96 17.61 18.04 17.61C19.08 19.1 20.08 20.53 21.1 21.98C20.64 22.31 20.19 22.62 19.68 22.98C20.47 23.12 21.18 23.25 21.9 23.38C21.9 23.4 21.91 23.42 21.91 23.44C21.08 23.83 20.25 24.21 19.4 24.61C19.49 24.74 19.56 24.85 19.65 24.99C19.06 25.4 18.48 25.81 17.87 26.24C16.33 24.04 14.79 21.84 13.22 19.6C12.2 21.38 11.2 23.13 10.19 24.89C9.7 24.61 9.22 24.35 8.68 24.04C8.89 24.81 9.07 25.51 9.26 26.2C9.25 26.21 9.23 26.23 9.22 26.24C8.52 25.66 7.82 25.07 7.1 24.47C7 24.59 6.93 24.7 6.83 24.84C6.21 24.48 5.58 24.13 4.95 23.76C6.2 21.58 7.44 19.42 8.68 17.24ZM3.19 7.11C3.19 8.71 3.19 10.24 3.19 11.77C3.81 11.77 4.41 11.81 5 11.76C6.15 11.66 6.96 10.79 7.04 9.61C7.12 8.5 6.46 7.5 5.36 7.27C4.66 7.12 3.93 7.15 3.19 7.11ZM21.57 10.62C21.6 9.93 21.44 9.38 20.86 9.02C20.33 8.69 19.54 8.74 19.02 9.11C18.22 9.69 18.2 10.91 18.99 11.5C19.56 11.93 20.57 11.96 21.17 11.57C21.24 11.52 21.3 11.46 21.38 11.4C21.19 11.2 21.03 11.02 20.87 10.85C20.06 11.18 19.57 11.1 19.45 10.62C19.8 10.62 20.14 10.62 20.48 10.62C20.83 10.62 21.18 10.62 21.57 10.62ZM9.13 11.84C10.06 11.85 10.74 11.21 10.74 10.34C10.74 9.46 10.07 8.81 9.15 8.81C8.23 8.81 7.54 9.45 7.53 10.32C7.52 11.19 8.2 11.84 9.13 11.84ZM11.34 8.88C11.34 9.86 11.34 10.81 11.34 11.76C11.66 11.76 11.95 11.76 12.27 11.76C12.27 11.59 12.27 11.44 12.27 11.3C12.27 10.93 12.26 10.55 12.28 10.18C12.3 9.85 12.51 9.67 12.85 9.67C13.16 9.67 13.31 9.83 13.32 10.18C13.32 10.29 13.32 10.4 13.32 10.5C13.32 10.92 13.32 11.34 13.32 11.77C13.61 11.77 13.85 11.78 14.1 11.76C14.16 11.76 14.26 11.67 14.26 11.62C14.26 10.97 14.29 10.32 14.21 9.68C14.1 8.96 13.35 8.6 12.7 8.9C12.55 8.97 12.41 9.09 12.27 9.19C12.26 9.09 12.25 8.98 12.24 8.87C11.94 8.88 11.66 8.88 11.34 8.88ZM17.8 11.77C17.8 11.05 17.85 10.34 17.78 9.65C17.72 9.08 17.2 8.74 16.64 8.83C16.37 8.87 16.11 9.04 15.86 9.15C15.86 9.11 15.85 9 15.84 8.9C15.53 8.9 15.25 8.9 14.94 8.9C14.94 9.87 14.94 10.81 14.94 11.77C15.25 11.77 15.55 11.77 15.86 11.77C15.86 11.26 15.86 10.77 15.86 10.28C15.86 10.04 15.93 9.83 16.17 9.73C16.59 9.56 16.89 9.77 16.9 10.23C16.9 10.75 16.9 11.26 16.9 11.78C17.24 11.77 17.53 11.77 17.8 11.77ZM23.05 11.78C23.08 11.75 23.1 11.73 23.1 11.72C23.11 11.31 23.11 10.9 23.11 10.48C23.12 9.8 23.38 9.6 24.04 9.75C24.06 9.75 24.08 9.74 24.12 9.73C24.21 9.48 24.3 9.21 24.4 8.92C23.88 8.69 23.47 8.81 23.13 9.24C23.11 9.1 23.1 9 23.09 8.88C22.79 8.88 22.5 8.88 22.21 8.88C22.19 8.92 22.17 8.95 22.17 8.97C22.17 9.84 22.16 10.72 22.17 11.59C22.17 11.65 22.29 11.76 22.36 11.77C22.59 11.8 22.83 11.78 23.05 11.78Z" fill="white"/>
<path d="M4.16992 10.91C4.16992 9.94 4.16992 8.98 4.16992 8.01C4.79992 7.99 5.39992 8 5.79992 8.57C6.12992 9.04 6.12992 9.88 5.79992 10.36C5.39992 10.93 4.80992 10.94 4.16992 10.91Z" fill="white"/>
<path d="M20.5999 10.04C20.1899 10.04 19.7999 10.04 19.4099 10.04C19.4799 9.71999 19.6499 9.58999 19.9899 9.57999C20.3399 9.56999 20.4899 9.68999 20.5999 10.04Z" fill="white"/>
<path d="M9.76999 10.35C9.76999 10.78 9.49999 11.06 9.10999 11.05C8.73999 11.04 8.48999 10.75 8.48999 10.34C8.48999 9.91 8.73999 9.63 9.13999 9.63C9.52999 9.63 9.77999 9.91001 9.76999 10.35Z" fill="white"/>
</g>
<defs>
<clipPath id="clip0_128_66">
<rect width="27.29" height="26.24" fill="white"/>
</clipPath>
</defs>
</svg>
