<svg width="11" height="10" viewBox="0 0 11 10" fill="none" xmlns="http://www.w3.org/2000/svg">
<g clip-path="url(#clip0_134_9)">
<path d="M11.0001 4.78045C11.0001 4.91995 11.0001 5.05946 11.0001 5.19897C10.9977 5.22687 10.9928 5.25245 10.9903 5.28035C10.983 5.38265 10.9781 5.48496 10.9659 5.58727C10.8901 6.18947 10.7066 6.75913 10.4107 7.29623C9.95331 8.12398 9.30516 8.77967 8.46624 9.26562C7.90125 9.59346 7.28979 9.80737 6.63675 9.91433C6.61718 9.91665 6.59762 9.91665 6.57316 9.91665C6.57316 9.8841 6.57071 9.85852 6.57071 9.83295C6.57071 8.72851 6.57071 7.6264 6.57071 6.52197C6.57071 6.50569 6.57071 6.48942 6.57071 6.47314C6.57071 6.46151 6.5756 6.45221 6.58049 6.43361C6.6074 6.43361 6.63186 6.43361 6.65632 6.43361C7.01585 6.43361 7.37539 6.43361 7.73249 6.43361C7.79119 6.43361 7.79119 6.43361 7.80097 6.37781C7.82298 6.24993 7.84255 6.12205 7.86456 5.99184C7.91592 5.67562 7.96729 5.3594 8.0162 5.04319C8.01865 5.02691 8.0162 5.01296 8.0162 4.99203C7.98685 4.98971 7.96239 4.98971 7.93794 4.98971C7.51481 4.98971 7.09412 4.98971 6.67099 4.98971C6.65142 4.98971 6.6343 4.98971 6.61474 4.98971C6.5756 4.98738 6.57071 4.98273 6.56826 4.94553C6.56826 4.93856 6.56826 4.92926 6.56826 4.92228C6.56826 4.63396 6.56826 4.34797 6.56826 4.05966C6.56826 3.99223 6.57316 3.92713 6.58783 3.86202C6.64409 3.56673 6.82508 3.3784 7.13325 3.30632C7.2262 3.28307 7.32158 3.27609 7.41697 3.27609C7.61019 3.27609 7.80342 3.27609 7.99664 3.27609C8.01376 3.27609 8.03088 3.27609 8.048 3.27609C8.07246 3.27609 8.08713 3.26446 8.08713 3.24121C8.08713 3.22726 8.08713 3.21099 8.08713 3.19704C8.08713 3.02498 8.08713 2.85292 8.08713 2.68086C8.08713 2.49485 8.08713 2.30651 8.08713 2.1205C8.08713 2.03447 8.08224 2.0461 8.00887 2.0368C7.87924 2.0182 7.74716 2.00425 7.61753 1.99029C7.3436 1.96239 7.06966 1.94612 6.79328 1.95309C6.6074 1.95774 6.42151 1.98332 6.24297 2.03215C5.88343 2.12748 5.58014 2.30419 5.34534 2.58553C5.17903 2.78316 5.07386 3.0087 5.00782 3.25284C4.94912 3.47373 4.92711 3.69694 4.92711 3.9248C4.92711 4.25497 4.92711 4.58514 4.92711 4.9153C4.92711 4.99668 4.92711 4.99668 4.84395 4.99668C4.45506 4.99668 4.06861 4.99668 3.67973 4.99668C3.65527 4.99668 3.62836 4.99901 3.59901 5.00133C3.59657 5.02924 3.59412 5.05249 3.59412 5.07574C3.59412 5.50589 3.59412 5.93371 3.59412 6.36386C3.59412 6.44291 3.59412 6.44291 3.67728 6.44291C4.06128 6.44291 4.44527 6.44291 4.83172 6.44291C4.93689 6.44291 4.92955 6.43361 4.92955 6.53359C4.92955 7.63338 4.92955 8.73316 4.92955 9.83295C4.92955 9.84922 4.92955 9.8655 4.92955 9.88178C4.92955 9.8934 4.92466 9.90735 4.92221 9.92363C4.90265 9.9213 4.88553 9.92363 4.8684 9.91898C4.76813 9.90038 4.6654 9.8841 4.56757 9.86085C3.09272 9.53533 1.84045 8.62621 1.12382 7.35436C0.673786 6.55452 0.468335 5.69887 0.505022 4.79207C0.514806 4.54561 0.544156 4.29915 0.593073 4.05733C0.881682 2.60645 1.8429 1.34158 3.19789 0.62777C4.00502 0.202272 4.8733 -0.00698973 5.79782 -1.43463e-05C6.17448 0.00231078 6.5487 0.0418379 6.91557 0.120892C8.86736 0.54174 10.4009 1.98797 10.8632 3.83877C10.9341 4.12709 10.983 4.41773 10.9928 4.71534C10.9903 4.7386 10.9977 4.75952 11.0001 4.78045Z" fill="white"/>
</g>
<defs>
<clipPath id="clip0_134_9">
<rect width="10.5" height="9.91667" fill="white" transform="translate(0.5)"/>
</clipPath>
</defs>
</svg>
