<svg width="11" height="10" viewBox="0 0 11 10" fill="none" xmlns="http://www.w3.org/2000/svg">
<g clip-path="url(#clip0_19_113)">
<path d="M11.0001 4.78042C11.0001 4.91992 11.0001 5.05943 11.0001 5.19894C10.9977 5.22684 10.9928 5.25242 10.9903 5.28032C10.983 5.38262 10.9781 5.48493 10.9659 5.58724C10.8901 6.18944 10.7066 6.7591 10.4107 7.2962C9.95331 8.12395 9.30516 8.77963 8.46624 9.26559C7.90125 9.59343 7.28979 9.80734 6.63675 9.9143C6.61718 9.91662 6.59762 9.91662 6.57316 9.91662C6.57316 9.88407 6.57071 9.85849 6.57071 9.83292C6.57071 8.72848 6.57071 7.62637 6.57071 6.52194C6.57071 6.50566 6.57071 6.48939 6.57071 6.47311C6.57071 6.46148 6.5756 6.45218 6.58049 6.43358C6.6074 6.43358 6.63186 6.43358 6.65632 6.43358C7.01585 6.43358 7.37539 6.43358 7.73249 6.43358C7.79119 6.43358 7.79119 6.43358 7.80097 6.37778C7.82298 6.2499 7.84255 6.12201 7.86456 5.99181C7.91592 5.67559 7.96729 5.35937 8.0162 5.04316C8.01865 5.02688 8.0162 5.01293 8.0162 4.992C7.98685 4.98968 7.96239 4.98968 7.93794 4.98968C7.51481 4.98968 7.09412 4.98968 6.67099 4.98968C6.65142 4.98968 6.6343 4.98968 6.61474 4.98968C6.5756 4.98735 6.57071 4.9827 6.56826 4.9455C6.56826 4.93853 6.56826 4.92922 6.56826 4.92225C6.56826 4.63393 6.56826 4.34794 6.56826 4.05963C6.56826 3.9922 6.57316 3.9271 6.58783 3.86199C6.64409 3.5667 6.82508 3.37836 7.13325 3.30629C7.2262 3.28303 7.32158 3.27606 7.41697 3.27606C7.61019 3.27606 7.80342 3.27606 7.99664 3.27606C8.01376 3.27606 8.03088 3.27606 8.048 3.27606C8.07246 3.27606 8.08713 3.26443 8.08713 3.24118C8.08713 3.22723 8.08713 3.21096 8.08713 3.19701C8.08713 3.02495 8.08713 2.85289 8.08713 2.68083C8.08713 2.49482 8.08713 2.30648 8.08713 2.12047C8.08713 2.03444 8.08224 2.04607 8.00887 2.03677C7.87924 2.01817 7.74716 2.00421 7.61753 1.99026C7.3436 1.96236 7.06966 1.94609 6.79328 1.95306C6.6074 1.95771 6.42151 1.98329 6.24297 2.03212C5.88343 2.12745 5.58014 2.30416 5.34534 2.5855C5.17903 2.78313 5.07386 3.00867 5.00782 3.25281C4.94912 3.4737 4.9271 3.69691 4.9271 3.92477C4.9271 4.25494 4.9271 4.58511 4.9271 4.91527C4.9271 4.99665 4.9271 4.99665 4.84395 4.99665C4.45506 4.99665 4.06861 4.99665 3.67973 4.99665C3.65527 4.99665 3.62836 4.99898 3.59901 5.0013C3.59657 5.02921 3.59412 5.05246 3.59412 5.07571C3.59412 5.50586 3.59412 5.93368 3.59412 6.36383C3.59412 6.44288 3.59412 6.44288 3.67728 6.44288C4.06128 6.44288 4.44527 6.44288 4.83172 6.44288C4.93689 6.44288 4.92955 6.43358 4.92955 6.53356C4.92955 7.63335 4.92955 8.73313 4.92955 9.83292C4.92955 9.84919 4.92955 9.86547 4.92955 9.88175C4.92955 9.89337 4.92466 9.90732 4.92221 9.9236C4.90265 9.92127 4.88553 9.9236 4.8684 9.91895C4.76813 9.90035 4.6654 9.88407 4.56757 9.86082C3.09272 9.5353 1.84045 8.62618 1.12382 7.35433C0.673786 6.55449 0.468335 5.69884 0.505022 4.79204C0.514806 4.54558 0.544156 4.29912 0.593073 4.0573C0.881682 2.60642 1.8429 1.34155 3.19789 0.627739C4.00502 0.202241 4.8733 -0.00702024 5.79782 -4.48638e-05C6.17448 0.00228026 6.5487 0.0418074 6.91557 0.120862C8.86736 0.54171 10.4009 1.98794 10.8632 3.83874C10.9341 4.12706 10.983 4.4177 10.9928 4.71531C10.9903 4.73856 10.9977 4.75949 11.0001 4.78042Z" fill="#FFA7F2"/>
</g>
<defs>
<clipPath id="clip0_19_113">
<rect width="10.5" height="9.91667" fill="white" transform="translate(0.5)"/>
</clipPath>
</defs>
</svg>
