<svg width="228" height="227" viewBox="0 0 228 227" fill="none" xmlns="http://www.w3.org/2000/svg">
<path d="M112.89 2.40997L129.24 61.13L174.15 19.93L156.16 78.16L216.22 67.78L169.6 107.04L225.74 130.78L165.3 138.61L199.69 188.92L144.61 162.83L146.33 223.75L114.11 172.03L82.62 224.21L83.47 163.27L28.77 190.15L62.44 139.34L1.89001 132.38L57.68 107.84L10.51 69.25L70.71 78.77L51.89 20.8L97.38 61.35L112.89 2.40997Z" fill="white" stroke="black" stroke-miterlimit="10"/>
<path d="M72.86 96.28L88.47 90.61L89.87 94.47L78.81 98.49L80.74 103.8L90.64 100.21L92.04 104.07L82.14 107.67L85.23 116.18L80.67 117.83L72.86 96.28Z" fill="#1D1D1B"/>
<path d="M92.72 94.75L96.39 93.41L97.71 95.95L97.93 95.87C97.94 94.8 98.14 93.89 98.5 93.14C98.87 92.39 99.51 91.85 100.43 91.51C100.83 91.37 101.19 91.28 101.52 91.24C101.85 91.2 102.06 91.19 102.16 91.2L103.62 95.22L102.43 95.65C101.03 96.16 100.15 96.91 99.8 97.9C99.45 98.89 99.55 100.16 100.12 101.71L103.02 109.69L98.72 111.25L92.72 94.75Z" fill="#1D1D1B"/>
<path d="M111.13 104.82C109.31 103.89 107.87 101.95 106.79 99C105.71 96.05 105.58 93.63 106.38 91.75C107.18 89.87 108.91 88.45 111.57 87.48C114.02 86.59 116.11 86.63 117.84 87.6C119.57 88.57 120.96 90.52 122.03 93.46L122.4 94.47L111.53 98.42C112.1 99.87 112.79 100.85 113.59 101.35C114.39 101.86 115.43 101.88 116.7 101.41C117.6 101.08 118.24 100.57 118.61 99.86C118.98 99.15 119 98.34 118.67 97.42L122.91 95.88C123.66 97.95 123.56 99.75 122.6 101.27C121.64 102.79 120.06 103.96 117.85 104.75C115.19 105.73 112.95 105.75 111.13 104.82ZM116.89 93.23C116.06 90.95 114.69 90.15 112.79 90.84C111.7 91.24 110.98 91.82 110.63 92.58C110.28 93.35 110.25 94.33 110.54 95.53L116.89 93.23Z" fill="#1D1D1B"/>
<path d="M128.54 98.5C126.72 97.57 125.28 95.63 124.2 92.68C123.12 89.73 122.99 87.31 123.79 85.43C124.59 83.55 126.32 82.13 128.98 81.16C131.43 80.27 133.52 80.31 135.25 81.28C136.98 82.25 138.37 84.21 139.44 87.14L139.81 88.15L128.94 92.1C129.51 93.55 130.2 94.53 131 95.03C131.8 95.53 132.84 95.56 134.11 95.09C135.01 94.76 135.65 94.25 136.02 93.54C136.39 92.83 136.41 92.02 136.08 91.1L140.32 89.56C141.07 91.63 140.97 93.43 140 94.95C139.03 96.47 137.46 97.64 135.26 98.43C132.6 99.4 130.36 99.42 128.54 98.5ZM134.31 86.91C133.48 84.63 132.11 83.83 130.21 84.52C129.12 84.92 128.4 85.5 128.05 86.26C127.7 87.03 127.67 88.01 127.97 89.21L134.31 86.91Z" fill="#1D1D1B"/>
<path d="M80.79 148.47C78.97 147.54 77.53 145.6 76.45 142.65C75.38 139.7 75.24 137.28 76.04 135.4C76.84 133.52 78.57 132.1 81.23 131.13C83.68 130.24 85.77 130.28 87.5 131.25C89.23 132.22 90.62 134.17 91.69 137.11L92.06 138.11L81.19 142.06C81.77 143.51 82.45 144.49 83.25 144.99C84.05 145.49 85.09 145.51 86.36 145.05C87.26 144.72 87.9 144.21 88.27 143.5C88.64 142.8 88.66 141.98 88.33 141.06L92.57 139.52C93.32 141.59 93.22 143.39 92.26 144.92C91.3 146.44 89.71 147.6 87.51 148.4C84.84 149.38 82.6 149.4 80.79 148.47ZM86.55 136.88C85.72 134.6 84.35 133.8 82.45 134.49C81.36 134.89 80.64 135.47 80.29 136.24C79.94 137.01 79.91 137.99 80.2 139.19L86.55 136.88Z" fill="#1D1D1B"/>
<path d="M91.74 127.74L95.42 126.41L96.52 128.46L96.74 128.38C97.46 126.19 98.87 124.72 100.97 123.96C102.67 123.34 104.17 123.32 105.48 123.89C106.79 124.46 107.81 125.76 108.55 127.79L112.58 138.88L108.28 140.44L104.58 130.26C104.21 129.23 103.7 128.58 103.05 128.29C102.4 128 101.61 128.03 100.66 128.37C99.7 128.72 99.02 129.35 98.63 130.26C98.24 131.17 98.22 132.13 98.59 133.14L102.06 142.69L97.76 144.25L91.74 127.74Z" fill="#1D1D1B"/>
<path d="M117.42 136.12C116.44 135.52 115.73 134.59 115.26 133.31L112.01 124.35L110.03 125.07L108.75 121.55L110.82 120.8L109.86 115.89L113.35 114.62L115.04 119.27L117.9 118.23L119.18 121.75L116.32 122.79L119.41 131.3C119.74 132.2 120.35 132.49 121.25 132.16L122.76 131.61L123.86 134.63C123.55 134.88 123.15 135.16 122.65 135.46C122.15 135.76 121.67 135.99 121.21 136.16C119.66 136.73 118.4 136.72 117.42 136.12Z" fill="#1D1D1B"/>
<path d="M120.87 117.16L124.54 115.83L125.86 118.37L126.08 118.29C126.09 117.22 126.29 116.31 126.65 115.56C127.02 114.81 127.66 114.27 128.58 113.94C128.98 113.79 129.34 113.7 129.67 113.67C130 113.63 130.21 113.62 130.31 113.63L131.77 117.65L130.58 118.08C129.18 118.59 128.3 119.34 127.95 120.33C127.6 121.32 127.7 122.59 128.27 124.14L131.17 132.12L126.87 133.68L120.87 117.16Z" fill="#1D1D1B"/>
<path d="M142.82 134.26C142.36 134.36 141.99 134.42 141.73 134.44C141.47 134.46 141.3 134.48 141.23 134.48L140.13 131.46L142.17 130.72C142.9 130.45 143.43 130.06 143.77 129.54C144.1 129.01 144.27 128.29 144.26 127.37L131.79 113.2L136.28 111.57L142.21 118.2C142.62 118.67 143.13 119.36 143.74 120.26C144.35 121.16 144.75 121.77 144.93 122.08L145.09 122.02C145.06 121.68 145 121.04 144.92 120.13C144.84 119.22 144.76 118.28 144.7 117.33L144.32 108.65L148.69 107.06L148.82 124.76C148.82 126.32 148.72 127.67 148.51 128.8C148.3 129.93 147.87 130.94 147.21 131.82C146.55 132.7 145.59 133.37 144.33 133.83C143.78 134.01 143.28 134.16 142.82 134.26Z" fill="#1D1D1B"/>
<path d="M149.28 101.15L154.09 99.4L158.54 115.17L155.96 116.11L149.28 101.15ZM155.79 118.31L160.12 116.74L161.68 121.04L157.35 122.61L155.79 118.31Z" fill="#1D1D1B"/>
</svg>
