<svg width="10" height="10" viewBox="0 0 10 10" fill="none" xmlns="http://www.w3.org/2000/svg">
<g clip-path="url(#clip0_134_16)">
<path d="M6.94791 9.91694C5.4302 9.91694 3.91009 9.91694 2.39238 9.91694C2.3637 9.91215 2.33263 9.90498 2.30395 9.9002C2.04821 9.87151 1.79964 9.81653 1.5678 9.70655C0.566347 9.23319 0.0261852 8.43948 0.00945453 7.33019C-0.00966626 5.94596 0.00467433 4.55935 0.00467433 3.17513C0.00467433 2.72568 0.102668 2.29774 0.332118 1.91284C0.848379 1.04023 1.61799 0.593164 2.629 0.588383C3.98897 0.581211 5.34893 0.585992 6.71129 0.588383C6.88577 0.588383 7.06502 0.597946 7.23711 0.636197C8.29353 0.870487 8.96993 1.5112 9.25913 2.55594C9.29738 2.69221 9.31172 2.83565 9.33562 2.97431C9.33562 4.49241 9.33562 6.0129 9.33562 7.53101C9.32128 7.62663 9.30933 7.72226 9.2902 7.81789C9.05359 8.87458 8.41304 9.55355 7.36857 9.84282C7.22994 9.87868 7.08654 9.89303 6.94791 9.91694ZM4.67732 1.41318C4.00092 1.41318 3.32213 1.41318 2.64573 1.41318C2.43301 1.41318 2.22269 1.43469 2.01953 1.50881C1.28099 1.77418 0.834038 2.4101 0.834038 3.21099C0.831648 4.57131 0.829258 5.93162 0.836428 7.29193C0.838819 7.49514 0.8675 7.70792 0.932032 7.89918C1.18299 8.64269 1.82593 9.08736 2.62661 9.08975C3.98658 9.09214 5.34654 9.09453 6.70651 9.08736C6.90967 9.08736 7.12239 9.05867 7.31359 8.99412C8.05452 8.74549 8.50147 8.10478 8.50386 7.30867C8.50864 5.93879 8.50625 4.56892 8.50386 3.19904C8.50147 2.58702 8.25529 2.09453 7.75815 1.73353C7.44266 1.50402 7.08415 1.41318 6.69695 1.41318C6.02533 1.41318 5.35132 1.41318 4.67732 1.41318Z" fill="white"/>
<path d="M7.07466 5.25242C7.07466 6.57448 5.98478 7.65986 4.66783 7.65747C3.34372 7.65269 2.25861 6.56253 2.26578 5.24524C2.27295 3.92318 3.3485 2.84736 4.66783 2.84497C5.98717 2.84497 7.07466 3.93274 7.07466 5.25242ZM4.66544 3.67694C3.79306 3.68411 3.08798 4.39176 3.09515 5.2572C3.10232 6.12981 3.80979 6.83507 4.675 6.82789C5.54739 6.82311 6.25247 6.11307 6.2453 5.24763C6.23813 4.37503 5.53066 3.66977 4.66544 3.67694Z" fill="white"/>
<path d="M7.17986 3.35657C6.84524 3.35896 6.56799 3.08402 6.56799 2.75172C6.56799 2.4218 6.83807 2.15165 7.1703 2.14687C7.50491 2.14448 7.78216 2.41702 7.78216 2.75172C7.78216 3.08163 7.50969 3.35417 7.17986 3.35657Z" fill="white"/>
</g>
<defs>
<clipPath id="clip0_134_16">
<rect width="9.33333" height="9.33333" fill="white" transform="translate(0 0.583313)"/>
</clipPath>
</defs>
</svg>
