<svg width="10" height="10" viewBox="0 0 10 10" fill="none" xmlns="http://www.w3.org/2000/svg">
<g clip-path="url(#clip0_19_120)">
<path d="M6.94791 9.91692C5.4302 9.91692 3.91009 9.91692 2.39238 9.91692C2.3637 9.91214 2.33263 9.90497 2.30395 9.90018C2.04821 9.8715 1.79964 9.81651 1.5678 9.70654C0.566347 9.23318 0.0261852 8.43946 0.00945453 7.33017C-0.00966626 5.94595 0.00467433 4.55934 0.00467433 3.17512C0.00467433 2.72566 0.102668 2.29773 0.332118 1.91282C0.848379 1.04021 1.61799 0.593149 2.629 0.588367C3.98897 0.581195 5.34893 0.585977 6.71129 0.588367C6.88577 0.588367 7.06502 0.59793 7.23711 0.636182C8.29354 0.870471 8.96993 1.51118 9.25913 2.55592C9.29738 2.69219 9.31172 2.83564 9.33562 2.9743C9.33562 4.4924 9.33562 6.01289 9.33562 7.53099C9.32128 7.62662 9.30933 7.72225 9.29021 7.81788C9.05359 8.87457 8.41304 9.55353 7.36857 9.84281C7.22994 9.87867 7.08653 9.89301 6.94791 9.91692ZM4.67732 1.41316C4.00092 1.41316 3.32213 1.41316 2.64573 1.41316C2.43301 1.41316 2.22269 1.43468 2.01953 1.50879C1.28099 1.77416 0.834038 2.41009 0.834038 3.21098C0.831648 4.57129 0.829258 5.9316 0.836428 7.29192C0.838819 7.49513 0.8675 7.7079 0.932032 7.89916C1.18299 8.64267 1.82593 9.08734 2.62661 9.08973C3.98658 9.09212 5.34654 9.09451 6.70651 9.08734C6.90967 9.08734 7.12239 9.05865 7.31359 8.99411C8.05453 8.74547 8.50147 8.10476 8.50386 7.30865C8.50864 5.93878 8.50625 4.5689 8.50386 3.19902C8.50147 2.587 8.25529 2.09451 7.75815 1.73352C7.44266 1.50401 7.08415 1.41316 6.69695 1.41316C6.02533 1.41316 5.35132 1.41316 4.67732 1.41316Z" fill="#FFA7F2"/>
<path d="M7.07469 5.25239C7.07469 6.57445 5.98481 7.65983 4.66786 7.65744C3.34375 7.65266 2.25864 6.56249 2.26581 5.24521C2.27298 3.92315 3.34853 2.84733 4.66786 2.84494C5.9872 2.84494 7.07469 3.93271 7.07469 5.25239ZM4.66547 3.67691C3.79309 3.68408 3.08801 4.39173 3.09518 5.25717C3.10235 6.12978 3.80982 6.83504 4.67503 6.82786C5.54742 6.82308 6.2525 6.11304 6.24533 5.2476C6.23816 4.37499 5.53069 3.66974 4.66547 3.67691Z" fill="#FFA7F2"/>
<path d="M7.17986 3.35655C6.84524 3.35894 6.56799 3.08401 6.56799 2.7517C6.56799 2.42178 6.83807 2.15163 7.1703 2.14685C7.50491 2.14446 7.78216 2.417 7.78216 2.7517C7.78216 3.08162 7.50969 3.35416 7.17986 3.35655Z" fill="#FFA7F2"/>
</g>
<defs>
<clipPath id="clip0_19_120">
<rect width="9.33333" height="9.33333" fill="white" transform="translate(0 0.583328)"/>
</clipPath>
</defs>
</svg>
