<svg width="71" height="172" viewBox="0 0 71 172" fill="none" xmlns="http://www.w3.org/2000/svg">
<path d="M69.0816 160.436C69.0816 160.436 35.2804 136.292 15.7707 147.327C-3.73905 158.363 -8.53606 110.578 22.5693 129.579C35.8126 136.417 43.7104 140.32 43.7104 140.32C43.7104 140.32 28.7478 109.187 56.1345 143.518C59.6935 147.984 63.9676 153.552 69.0816 160.436Z" fill="white"/>
<path d="M59.4875 162.294C59.4875 162.294 60.6306 174.221 54.4614 171.141C48.2921 168.061 49.75 161.082 49.75 161.082C49.75 161.082 43.8353 176.584 37.4161 160.196C37.0112 160.196 30.3629 172.289 24.8393 159.39C24.2724 159.309 19.0843 170.914 13.9679 159.64C8.84927 148.364 22.8932 157.606 22.8932 157.606C22.8932 157.606 25.0777 146.328 31.4112 155.979C31.5732 155.655 37.0042 145.997 41.8799 158.164C41.7989 157.516 49.5834 148.424 53.4039 160.672C53.7255 160.837 57.8607 155.399 59.4875 162.294Z" fill="white"/>
<path d="M61.5841 137.671C61.5841 137.671 11.7048 58.5628 53.0036 38.986C83.9909 24.2965 69.3615 6.53851 50.8584 17.2641C61.0495 4.92794 39.3276 -13.3067 34.7689 17.2641C13.8523 -11.6985 24.9249 96.254 63.7315 144.375L61.5841 137.671Z" fill="white"/>
<path d="M51.6105 104.189C51.6105 104.189 56.8148 58.9262 46.8621 60.708C36.9071 62.4875 51.6105 104.189 51.6105 104.189Z" fill="white"/>
</svg>
