<svg width="269" height="243" viewBox="0 0 269 243" fill="none" xmlns="http://www.w3.org/2000/svg">
<path fill-rule="evenodd" clip-rule="evenodd" d="M92.0103 0C123.056 88.9468 142.704 173.575 109.233 182.455C90.5899 187.395 80.3347 167.2 70.0228 146.894C57.1485 121.542 44.186 96.0157 14.7015 119.012C-25.2035 150.137 26.1863 172.869 54.1938 182.243C37.0242 178.233 12.257 176.081 12.959 197.334C14.5505 245.141 210.368 327.461 106.294 0H92.0103Z" fill="#9145F4"/>
<path fill-rule="evenodd" clip-rule="evenodd" d="M123.315 0C167.11 120.453 158.155 174.302 153.906 199.852C150.954 217.6 150.274 221.694 171.121 224.972C229.275 230.53 173.202 91.6558 130.185 0H123.315Z" fill="#9145F4"/>
<path fill-rule="evenodd" clip-rule="evenodd" d="M155.413 0C169.529 5.39087 198.713 23.2999 209.901 80.781C225.104 158.896 286.25 42.8936 245.961 16.3654C255.688 20.0939 265.495 12.2975 268.662 0H155.413Z" fill="#9145F4"/>
</svg>
