<svg width="269" height="243" viewBox="0 0 269 243" fill="none" xmlns="http://www.w3.org/2000/svg">
<path fill-rule="evenodd" clip-rule="evenodd" d="M91.9361 0C122.982 88.9468 142.629 173.575 109.159 182.455C90.5157 187.395 80.2605 167.2 69.9486 146.894C57.0743 121.542 44.1118 96.0157 14.6273 119.012C-25.2777 150.137 26.1121 172.869 54.1196 182.243C36.95 178.233 12.1828 176.081 12.8848 197.334C14.4763 245.141 210.294 327.461 106.22 0H91.9361Z" fill="white"/>
<path fill-rule="evenodd" clip-rule="evenodd" d="M123.24 0C167.036 120.453 158.081 174.302 153.832 199.852C150.88 217.6 150.199 221.694 171.046 224.972C229.201 230.53 173.128 91.6558 130.11 0H123.24Z" fill="white"/>
<path fill-rule="evenodd" clip-rule="evenodd" d="M155.339 0C169.455 5.39087 198.639 23.2999 209.827 80.781C225.03 158.896 286.176 42.8936 245.886 16.3654C255.614 20.0939 265.421 12.2975 268.588 0H155.339Z" fill="white"/>
</svg>
