<svg width="72" height="76" viewBox="0 0 72 76" fill="none" xmlns="http://www.w3.org/2000/svg">
<path d="M0.268821 57.8405C1.63451 53.1129 6.93293 55.3575 10.4258 57.468C4.93069 53.4021 -4.75646 44.7244 6.25471 40.7279C20.9069 35.4102 12.5045 60.8974 22.5273 61.4505C32.9898 62.0244 32.7283 27.6187 30.8464 0.0164261H34.3231C40.5706 105.821 -3.04356 69.3183 0.268821 57.8405Z" fill="#FFA7F2"/>
<path d="M37.2281 2.8095C37.2281 2.8095 51.5655 83.2398 33.1102 75.2331C21.2657 69.2188 44.9107 73.2592 37.2281 2.8095Z" fill="#FFA7F2"/>
<path d="M44.17 23.5459C44.17 23.5459 54.1719 28.2366 51.9613 46.2725C49.7207 64.5513 71.4791 43.3938 64.5072 34.6743C69.0394 38.3398 78.4928 27.2137 64.8636 16.3492C51.2322 5.48226 64.3197 27.5909 54.9103 25.0524C45.5032 22.5139 44.17 23.5459 44.17 23.5459Z" fill="#FFA7F2"/>
<path d="M41.1376 5.01019C41.1376 5.01019 40.4988 28.0237 51.9983 19.0219C63.4979 10.0202 41.1376 5.01019 41.1376 5.01019Z" fill="#FFA7F2"/>
</svg>
