<svg width="97" height="52" viewBox="0 0 97 52" fill="none" xmlns="http://www.w3.org/2000/svg">
<path d="M41.9142 39.2031C41.9142 39.2031 74.0333 26.5197 66.9943 3.59875C62.8486 -8.30254 105.393 10.9945 41.9142 39.2031Z" fill="#FFA7F2"/>
<path d="M0.705078 51.625C0.705078 51.625 32.1946 29.757 40.449 9.83055C48.6524 -9.96867 75.9523 12.4176 46.4811 31.0205C35.007 39.4715 28.6994 38.4047 28.6994 38.4047C28.6994 38.4047 61.7259 38.775 20.6928 47.6957C15.3596 48.8551 8.77422 50.1579 0.705078 51.625Z" fill="#FFA7F2"/>
<path d="M8.14691 40.8438C8.14691 40.8438 29.2781 20.7414 23.6556 17.5341C18.0331 14.3245 8.14691 40.8438 8.14691 40.8438Z" fill="#FFA7F2"/>
<path d="M53.5804 41.8481C53.5804 41.8481 99.0463 43.3685 96.4677 33.6077C93.8891 23.8469 53.5804 41.8481 53.5804 41.8481Z" fill="#FFA7F2"/>
</svg>
