<svg width="72" height="172" viewBox="0 0 72 172" fill="none" xmlns="http://www.w3.org/2000/svg">
<path d="M69.4048 160.457C69.4048 160.457 35.5936 136.312 16.0781 147.347C-3.43736 158.383 -8.23579 110.598 22.8788 129.598C36.126 136.437 44.0262 140.34 44.0262 140.34C44.0262 140.34 29.0591 109.207 56.4539 143.538C60.014 148.005 64.2893 153.572 69.4048 160.457Z" fill="#FFA7F2"/>
<path d="M59.8079 162.315C59.8079 162.315 60.9514 174.242 54.7803 171.162C48.6093 168.081 50.0676 161.102 50.0676 161.102C50.0676 161.102 44.1511 176.604 37.73 160.216C37.325 160.216 30.6748 172.309 25.1495 159.411C24.5824 159.33 19.3928 170.935 14.2749 159.661C9.15473 148.384 23.2028 157.626 23.2028 157.626C23.2028 157.626 25.3879 146.348 31.7233 156C31.8854 155.676 37.318 146.017 42.1952 158.184C42.1141 157.536 49.9009 148.444 53.7225 160.693C54.0442 160.857 58.1807 155.419 59.8079 162.315Z" fill="#FFA7F2"/>
<path d="M61.9051 137.691C61.9051 137.691 12.0111 58.5818 53.3221 39.0047C84.3186 24.315 69.6849 6.55674 51.1763 17.2825C61.3704 4.94615 39.6421 -13.2888 35.082 17.2825C14.1592 -11.6805 25.2352 96.2734 64.0532 144.395L61.9051 137.691Z" fill="#FFA7F2"/>
<path d="M51.9286 104.208C51.9286 104.208 57.1345 58.9451 47.1788 60.7269C37.2209 62.5065 51.9286 104.208 51.9286 104.208Z" fill="#FFA7F2"/>
</svg>
