<svg width="228" height="227" viewBox="0 0 228 227" fill="none" xmlns="http://www.w3.org/2000/svg">
<path d="M111.86 2.40997L128.67 61L173.25 19.44L155.73 77.81L215.7 66.96L169.4 106.59L225.72 129.88L165.34 138.19L200.13 188.23L144.84 162.58L147.05 223.48L114.41 172.01L83.34 224.44L83.71 163.5L29.23 190.81L62.49 139.74L1.89001 133.26L57.48 108.28L10.01 70.06L70.28 79.1L51 21.28L96.82 61.48L111.86 2.40997Z" fill="white" stroke="black" stroke-miterlimit="10"/>
<path d="M68.28 104.1L63.41 105.91L62.34 103.04L75.4 98.1799L76.47 101.05L71.6 102.86L76.39 115.74L73.06 116.98L68.28 104.1Z" fill="#1D1D1B"/>
<path d="M76.97 96.63L80.11 95.46L81.17 98.31L78.03 99.48L76.97 96.63ZM78.66 101.15L81.8 99.98L86.29 112.05L83.15 113.22L78.66 101.15Z" fill="#1D1D1B"/>
<path d="M89.5299 109.41C88.1899 108.74 87.1199 107.33 86.3199 105.17C85.5199 103.03 85.4099 101.26 85.9799 99.8699C86.5499 98.4799 87.7999 97.4299 89.7299 96.7099C91.3399 96.1099 92.7699 96.0399 94.0299 96.5099C95.2899 96.9699 96.2099 97.9899 96.7999 99.5699L93.6299 100.75C93.3599 100.02 92.9499 99.5199 92.4199 99.2699C91.8899 99.0099 91.2799 99.0099 90.5899 99.2699C89.7299 99.5899 89.2099 100.13 89.0299 100.88C88.8499 101.64 88.9799 102.61 89.4299 103.8L89.5699 104.17C90.0099 105.36 90.5599 106.18 91.2099 106.63C91.8599 107.08 92.6499 107.13 93.5799 106.78C94.2399 106.53 94.6899 106.14 94.9299 105.59C95.1699 105.04 95.1499 104.4 94.8899 103.68L97.9199 102.55C98.5099 104.13 98.4799 105.5 97.8299 106.67C97.1899 107.84 96.0499 108.73 94.4299 109.33C92.4999 110.06 90.8699 110.08 89.5299 109.41Z" fill="#1D1D1B"/>
<path d="M95.6599 89.6699L98.8099 88.4999L102.28 97.8199L104.49 91.5399L108.12 90.1899L105.85 96.3099L112.84 102.18L109.24 103.52L104.7 99.3799L103.67 101.54L104.99 105.1L101.85 106.27L95.6599 89.6699Z" fill="#1D1D1B"/>
<path d="M114.19 100.23C112.85 99.5599 111.78 98.1499 110.98 95.9899C110.18 93.8299 110.06 92.0599 110.64 90.6799C111.21 89.2999 112.47 88.2499 114.42 87.5199C116.21 86.8499 117.74 86.8699 119.01 87.5799C120.28 88.2799 121.32 89.6999 122.11 91.8499L122.38 92.5799L114.44 95.5399C114.87 96.5999 115.38 97.3099 115.97 97.6799C116.56 98.0399 117.32 98.0499 118.25 97.7099C118.91 97.4599 119.37 97.0799 119.64 96.5599C119.91 96.0399 119.92 95.4499 119.67 94.7699L122.77 93.6199C123.33 95.1299 123.27 96.4499 122.57 97.5799C121.87 98.6999 120.72 99.5599 119.11 100.16C117.17 100.88 115.53 100.9 114.19 100.23ZM118.35 91.7099C117.73 90.0399 116.72 89.4699 115.33 89.9799C114.53 90.2799 114.01 90.7099 113.76 91.2699C113.51 91.8299 113.49 92.5499 113.72 93.4299L118.35 91.7099Z" fill="#1D1D1B"/>
<path d="M127.4 96.0199C126.68 95.5899 126.15 94.9099 125.8 93.9799L123.37 87.4399L121.92 87.9799L120.96 85.4099L122.47 84.8499L121.73 81.2599L124.28 80.3099L125.54 83.7099L127.63 82.9299L128.59 85.4999L126.5 86.2799L128.81 92.4999C129.06 93.1599 129.51 93.3599 130.16 93.1199L131.26 92.7099L132.08 94.9099C131.85 95.0999 131.56 95.2999 131.2 95.5299C130.84 95.7499 130.49 95.9299 130.15 96.0499C129.04 96.4599 128.11 96.4599 127.4 96.0199Z" fill="#1D1D1B"/>
<path d="M134.93 93.0799C133.72 92.7399 132.89 91.9899 132.46 90.8299L132.38 90.5499L135.43 89.4099L135.49 89.5699C135.7 90.0999 136.09 90.3999 136.64 90.4599C137.19 90.5199 137.81 90.4299 138.48 90.1799C139.11 89.9499 139.61 89.6599 139.99 89.3299C140.37 88.9999 140.49 88.6399 140.35 88.2599C140.19 87.8299 139.85 87.5899 139.31 87.5499C138.78 87.4999 137.99 87.5499 136.95 87.6999C135.87 87.8399 134.97 87.9099 134.26 87.9099C133.55 87.9099 132.86 87.7399 132.22 87.3999C131.57 87.0699 131.09 86.4799 130.78 85.6399C130.34 84.4599 130.5 83.3699 131.25 82.3699C132 81.3699 133.16 80.5799 134.72 79.9999C136.18 79.4599 137.48 79.3099 138.65 79.5399C139.82 79.7799 140.59 80.3999 140.96 81.4099L141.13 81.9499L138.08 83.0899L138.06 83.0499C137.88 82.6099 137.56 82.3499 137.11 82.2599C136.66 82.1799 136.12 82.2499 135.49 82.4799C134.86 82.7099 134.4 82.9799 134.09 83.2899C133.79 83.5899 133.69 83.8999 133.8 84.2099C133.94 84.5899 134.26 84.7999 134.75 84.8199C135.24 84.8499 135.98 84.7799 136.99 84.6099C138.1 84.4599 139.02 84.3799 139.75 84.3699C140.48 84.3599 141.18 84.5299 141.84 84.8699C142.5 85.2099 143.01 85.8299 143.34 86.7199C144.31 89.3199 142.95 91.3099 139.26 92.6799C137.59 93.2799 136.14 93.4199 134.93 93.0799Z" fill="#1D1D1B"/>
<path d="M73.9699 139.89C73.2499 139.46 72.7199 138.78 72.3699 137.85L69.9399 131.31L68.4899 131.85L67.5299 129.28L69.0399 128.72L68.2999 125.13L70.8499 124.18L72.1099 127.58L74.1999 126.8L75.1599 129.37L73.0699 130.15L75.3799 136.37C75.6199 137.03 76.0799 137.23 76.7299 136.99L77.8299 136.58L78.6499 138.78C78.4199 138.97 78.1299 139.17 77.7699 139.4C77.4099 139.62 77.0599 139.79 76.7199 139.92C75.6099 140.32 74.6799 140.32 73.9699 139.89Z" fill="#1D1D1B"/>
<path d="M74.76 121.43L77.9 120.26L80.11 126.18L80.27 126.12C80.77 124.66 81.74 123.66 83.18 123.13C84.42 122.67 85.52 122.64 86.48 123.05C87.44 123.46 88.2 124.4 88.75 125.89L91.77 133.99L88.63 135.16L85.86 127.72C85.58 126.97 85.2 126.49 84.73 126.29C84.25 126.08 83.67 126.11 82.98 126.37C82.28 126.63 81.78 127.1 81.5 127.77C81.22 128.44 81.21 129.14 81.49 129.88L84.09 136.86L80.95 138.03L74.76 121.43Z" fill="#1D1D1B"/>
<path d="M90.1 120.87L92.79 119.87L93.77 121.73L93.93 121.67C93.93 120.88 94.07 120.22 94.33 119.66C94.59 119.1 95.06 118.71 95.74 118.46C96.03 118.35 96.3 118.28 96.54 118.25C96.78 118.22 96.94 118.21 97.01 118.22L98.1 121.16L97.23 121.48C96.2 121.86 95.57 122.42 95.32 123.15C95.07 123.88 95.15 124.81 95.57 125.94L97.74 131.77L94.6 132.94L90.1 120.87Z" fill="#1D1D1B"/>
<path d="M103.79 128.08C102.4 127.43 101.3 126.03 100.5 123.87C99.7 121.71 99.61 119.93 100.24 118.53C100.87 117.13 102.22 116.05 104.28 115.28C106.35 114.51 108.08 114.45 109.48 115.1C110.88 115.75 111.98 117.15 112.78 119.31C113.58 121.47 113.67 123.25 113.03 124.65C112.39 126.05 111.04 127.14 108.98 127.91C106.91 128.67 105.18 128.73 103.79 128.08ZM109.92 123.62C110.16 122.86 110.06 121.88 109.61 120.69L109.47 120.32C109.03 119.13 108.46 118.32 107.79 117.9C107.11 117.48 106.26 117.46 105.24 117.84C104.22 118.22 103.59 118.79 103.35 119.55C103.12 120.31 103.22 121.28 103.67 122.47L103.81 122.84C104.25 124.03 104.81 124.84 105.48 125.26C106.15 125.68 107 125.7 108.02 125.32C109.05 124.95 109.68 124.38 109.92 123.62Z" fill="#1D1D1B"/>
<path d="M118.02 123.39C117.06 122.98 116.3 122.03 115.75 120.55L112.73 112.45L115.87 111.28L118.64 118.72C118.92 119.47 119.3 119.95 119.77 120.15C120.25 120.36 120.83 120.33 121.52 120.07C122.22 119.81 122.72 119.34 123 118.67C123.28 118 123.29 117.3 123.01 116.56L120.41 109.58L123.55 108.41L128.04 120.48L125.35 121.48L124.53 119.98L124.37 120.04C123.85 121.64 122.83 122.73 121.3 123.3C120.08 123.77 118.98 123.79 118.02 123.39Z" fill="#1D1D1B"/>
<path d="M131.91 122.92C131.13 122.62 130.6 122.06 130.29 121.25C129.89 120.18 130.21 119.13 131.23 118.1C130.3 117.99 129.69 117.53 129.39 116.72C129.2 116.22 129.24 115.7 129.5 115.18C129.76 114.66 130.17 114.2 130.74 113.82C129.29 113.54 128.3 112.67 127.76 111.22C127.29 109.95 127.38 108.77 128.03 107.7C128.68 106.62 129.87 105.76 131.58 105.12C132.51 104.77 133.37 104.59 134.14 104.56C134.49 104.1 134.69 103.63 134.75 103.14C134.81 102.66 134.78 102.27 134.67 101.98L137.75 100.84C138.06 101.68 138.09 102.44 137.83 103.12C137.57 103.8 137.06 104.39 136.3 104.88C137.33 105.32 138.06 106.1 138.48 107.23C138.95 108.5 138.88 109.67 138.26 110.74C137.64 111.81 136.49 112.65 134.83 113.27L132.99 113.95C132.71 114.05 132.52 114.2 132.4 114.38C132.28 114.56 132.27 114.76 132.35 114.97C132.42 115.15 132.55 115.29 132.73 115.36C132.92 115.44 133.12 115.44 133.35 115.35L138.84 113.31C139.73 112.98 140.58 113 141.4 113.38C142.22 113.76 142.81 114.42 143.17 115.39C143.44 116.12 143.49 116.85 143.3 117.56C143.11 118.27 142.73 118.91 142.16 119.48C141.59 120.04 140.88 120.48 140.06 120.78L134.34 122.91C133.5 123.22 132.69 123.22 131.91 122.92ZM135.33 110.06C135.58 109.57 135.59 109.02 135.36 108.39C135.13 107.76 134.75 107.35 134.24 107.15C133.73 106.95 133.11 106.98 132.37 107.26C131.63 107.54 131.15 107.91 130.9 108.4C130.65 108.88 130.65 109.44 130.88 110.07C131.11 110.7 131.48 111.11 131.98 111.32C132.48 111.52 133.1 111.49 133.84 111.22C134.58 110.92 135.08 110.54 135.33 110.06ZM139.19 118.62C139.59 118.47 139.88 118.25 140.07 117.95C140.26 117.65 140.29 117.35 140.17 117.02C140.05 116.68 139.83 116.47 139.52 116.37C139.21 116.28 138.89 116.29 138.53 116.42L134.1 118.07C133.76 118.2 133.51 118.4 133.35 118.69C133.19 118.98 133.16 119.27 133.28 119.58C133.4 119.9 133.61 120.12 133.91 120.23C134.21 120.34 134.54 120.33 134.89 120.2L139.19 118.62Z" fill="#1D1D1B"/>
<path d="M138.54 97.6899L141.68 96.5199L143.88 102.44L144.04 102.38C144.54 100.92 145.51 99.9199 146.95 99.3899C148.19 98.9299 149.29 98.8999 150.25 99.3099C151.21 99.7199 151.97 100.66 152.52 102.15L155.53 110.25L152.39 111.42L149.62 103.98C149.34 103.23 148.96 102.75 148.49 102.55C148.01 102.34 147.43 102.37 146.74 102.63C146.04 102.89 145.54 103.36 145.26 104.03C144.98 104.7 144.97 105.4 145.25 106.14L147.85 113.12L144.71 114.29L138.54 97.6899Z" fill="#1D1D1B"/>
<path d="M86.7799 141.9L94.2899 139.11C96.0499 138.46 97.5399 138.41 98.7599 138.98C99.9799 139.54 100.89 140.65 101.5 142.28C102.11 143.92 102.12 145.36 101.53 146.62C100.94 147.87 99.7299 148.84 97.8899 149.53L93.9399 151L95.9599 156.42L92.6299 157.66L86.7799 141.9ZM96.7799 146.72C97.4999 146.45 97.9699 146.04 98.1999 145.48C98.4299 144.93 98.3999 144.27 98.1199 143.52C97.8499 142.79 97.4399 142.29 96.9099 142.02C96.3799 141.76 95.7499 141.76 95.0299 142.03L91.1499 143.47L92.8899 148.15L96.7799 146.72Z" fill="#1D1D1B"/>
<path d="M108 150.49C106.61 149.84 105.51 148.44 104.71 146.28C103.91 144.12 103.82 142.34 104.45 140.94C105.08 139.54 106.43 138.46 108.49 137.69C110.56 136.92 112.29 136.86 113.69 137.51C115.09 138.16 116.19 139.56 116.99 141.72C117.79 143.88 117.88 145.66 117.24 147.06C116.6 148.46 115.25 149.55 113.19 150.32C111.12 151.08 109.39 151.14 108 150.49ZM114.13 146.03C114.37 145.27 114.27 144.29 113.82 143.1L113.68 142.73C113.24 141.54 112.68 140.73 112 140.31C111.32 139.89 110.47 139.87 109.44 140.25C108.41 140.63 107.79 141.2 107.55 141.96C107.31 142.72 107.42 143.69 107.87 144.89L108.01 145.26C108.45 146.45 109.01 147.26 109.68 147.68C110.35 148.1 111.2 148.12 112.22 147.74C113.26 147.36 113.89 146.79 114.13 146.03Z" fill="#1D1D1B"/>
<path d="M115.35 130.3L118.49 129.13L119.55 131.98L116.41 133.15L115.35 130.3ZM117.03 134.82L120.17 133.65L124.66 145.72L121.52 146.89L117.03 134.82Z" fill="#1D1D1B"/>
<path d="M123.02 132.59L125.71 131.59L126.53 133.09L126.69 133.03C127.21 131.43 128.23 130.34 129.76 129.77C131 129.31 132.1 129.28 133.06 129.69C134.02 130.1 134.78 131.04 135.33 132.53L138.35 140.63L135.21 141.8L132.44 134.36C132.16 133.61 131.78 133.13 131.31 132.93C130.83 132.73 130.25 132.75 129.56 133.01C128.85 133.27 128.36 133.74 128.08 134.41C127.8 135.08 127.79 135.78 128.07 136.52L130.67 143.5L127.53 144.67L123.02 132.59Z" fill="#1D1D1B"/>
<path d="M142.13 143.09C141.35 142.79 140.82 142.23 140.51 141.42C140.11 140.35 140.43 139.3 141.45 138.27C140.52 138.16 139.91 137.7 139.61 136.89C139.42 136.39 139.46 135.87 139.72 135.35C139.98 134.83 140.39 134.37 140.96 133.99C139.51 133.71 138.52 132.84 137.98 131.39C137.51 130.12 137.6 128.95 138.25 127.87C138.9 126.79 140.08 125.93 141.8 125.29C142.73 124.94 143.59 124.76 144.36 124.73C144.71 124.27 144.91 123.8 144.97 123.31C145.03 122.83 145 122.44 144.89 122.15L147.97 121C148.28 121.84 148.31 122.6 148.05 123.28C147.79 123.96 147.28 124.55 146.52 125.04C147.55 125.47 148.28 126.26 148.7 127.39C149.17 128.66 149.1 129.83 148.48 130.9C147.86 131.97 146.71 132.81 145.04 133.43L143.2 134.11C142.92 134.21 142.73 134.36 142.61 134.54C142.49 134.72 142.48 134.92 142.56 135.13C142.63 135.31 142.76 135.45 142.94 135.52C143.13 135.6 143.33 135.6 143.56 135.51L149.05 133.47C149.94 133.14 150.79 133.16 151.61 133.54C152.43 133.92 153.02 134.58 153.38 135.55C153.65 136.28 153.7 137.01 153.51 137.72C153.32 138.43 152.94 139.07 152.37 139.64C151.79 140.2 151.09 140.64 150.27 140.94L144.56 143.07C143.71 143.39 142.9 143.4 142.13 143.09ZM145.54 130.23C145.79 129.74 145.81 129.19 145.57 128.56C145.34 127.93 144.96 127.52 144.45 127.32C143.94 127.12 143.32 127.15 142.58 127.43C141.84 127.7 141.35 128.08 141.11 128.57C140.86 129.05 140.86 129.61 141.09 130.24C141.32 130.87 141.69 131.28 142.2 131.49C142.7 131.69 143.32 131.66 144.06 131.39C144.8 131.1 145.29 130.72 145.54 130.23ZM149.41 138.79C149.81 138.64 150.1 138.42 150.29 138.12C150.48 137.82 150.51 137.52 150.39 137.19C150.27 136.85 150.05 136.64 149.74 136.54C149.43 136.45 149.11 136.46 148.75 136.59L144.32 138.24C143.98 138.36 143.73 138.57 143.57 138.86C143.41 139.15 143.38 139.44 143.5 139.75C143.62 140.07 143.83 140.29 144.13 140.4C144.43 140.51 144.76 140.51 145.11 140.37L149.41 138.79Z" fill="#1D1D1B"/>
<path d="M91.95 160.51L91.52 159.36L139.86 141.37L140.29 142.52L91.95 160.51Z" fill="#1D1D1B"/>
</svg>
