<svg width="48" height="9" viewBox="0 0 48 9" fill="none" xmlns="http://www.w3.org/2000/svg">
<path d="M47.2001 1.67726C46.8001 1.95726 46.4201 2.23726 46.0201 2.51726C45.9101 2.40726 45.8201 2.29726 45.7101 2.20726C45.2301 1.76726 44.6601 1.49726 44.0301 1.37726C43.0201 1.18726 42.0301 1.21726 41.0501 1.54726C40.3601 1.78726 39.8001 2.20726 39.4401 2.85726C39.2601 3.18726 39.1601 3.53726 39.1101 3.90726C39.0501 4.45726 39.0801 5.00726 39.2501 5.53726C39.4901 6.31726 40.0101 6.85726 40.7401 7.19726C41.1901 7.40726 41.6601 7.51726 42.1501 7.57726C42.6301 7.63726 43.1201 7.64726 43.6001 7.59726C44.2501 7.53726 44.8901 7.39726 45.4601 7.05726C45.7501 6.87726 46.0001 6.65726 46.2001 6.37726C46.2301 6.32726 46.2601 6.28726 46.2601 6.21726C46.2601 5.94726 46.2601 5.67726 46.2601 5.40726C46.2601 5.38726 46.2501 5.36726 46.2501 5.32726C45.0901 5.32726 43.9301 5.32726 42.7701 5.32726C42.7701 4.91726 42.7701 4.51726 42.7701 4.11726C42.8701 4.08726 47.3601 4.07726 47.6401 4.10726C47.6401 4.14726 47.6501 4.17726 47.6501 4.21726C47.6501 5.03726 47.6501 5.85726 47.6501 6.68726C47.6501 6.75726 47.6301 6.80726 47.5901 6.85726C47.2401 7.37726 46.7801 7.76726 46.2501 8.07726C45.6001 8.45726 44.9001 8.67726 44.1601 8.78726C43.4501 8.89726 42.7401 8.90726 42.0201 8.83726C41.3101 8.76726 40.6201 8.60726 39.9801 8.29726C38.7101 7.68726 37.9501 6.68726 37.7201 5.29726C37.5801 4.44726 37.6201 3.60726 37.9201 2.78726C38.2901 1.78726 38.9801 1.07726 39.9301 0.60726C40.5001 0.32726 41.1101 0.16726 41.7401 0.0772596C42.3501 -0.00274037 42.9601 -0.0227404 43.5701 0.0272596C44.6801 0.12726 45.7201 0.44726 46.6101 1.13726C46.7601 1.24726 46.8901 1.37726 47.0301 1.49726C47.0901 1.55726 47.1401 1.60726 47.2001 1.67726Z" fill="white"/>
<path d="M15.3701 8.90727C14.6501 8.88727 13.9401 8.80727 13.2601 8.60727C12.6901 8.43727 12.1601 8.18727 11.7001 7.81727C10.9801 7.24727 10.5201 6.51727 10.3101 5.63727C10.1001 4.71727 10.1101 3.79727 10.4201 2.88727C10.7501 1.91727 11.3801 1.20727 12.2701 0.717266C12.8901 0.377266 13.5601 0.187266 14.2601 0.0872661C14.6801 0.0272661 15.1001 -0.0027339 15.5301 0.0072661C16.3501 0.0272661 17.1501 0.137266 17.9101 0.447266C18.7501 0.777266 19.4401 1.28727 19.9301 2.05727C20.2401 2.53727 20.4201 3.06727 20.5101 3.62727C20.6101 4.25727 20.6101 4.88727 20.4701 5.51727C20.1901 6.78727 19.4601 7.70727 18.3001 8.28727C17.7201 8.57727 17.0901 8.74727 16.4501 8.82727C16.0901 8.85727 15.7301 8.87727 15.3701 8.90727ZM15.3001 1.27727C15.2001 1.28727 15.0301 1.28727 14.8601 1.30727C14.3501 1.34727 13.8501 1.44727 13.3801 1.65727C12.5301 2.03727 11.9601 2.66727 11.7301 3.57727C11.5801 4.17727 11.5901 4.78727 11.7501 5.38727C11.9201 6.03727 12.2801 6.55727 12.8301 6.94727C13.3201 7.28727 13.8601 7.46727 14.4401 7.55727C14.9101 7.63727 15.3901 7.63727 15.8601 7.60727C16.4301 7.56727 16.9801 7.44727 17.4901 7.18727C18.2501 6.80727 18.7501 6.22727 18.9801 5.40727C19.1101 4.95727 19.1301 4.49727 19.0801 4.03727C19.0301 3.53727 18.8801 3.07727 18.5901 2.65727C18.2001 2.08727 17.6501 1.73727 17.0101 1.52727C16.4801 1.34727 15.9301 1.28727 15.3001 1.27727Z" fill="white"/>
<path d="M35.69 8.64726C35.64 8.64726 35.6 8.64726 35.56 8.64726C35.23 8.64726 34.9 8.64726 34.56 8.64726C34.47 8.64726 34.4 8.61726 34.34 8.55726C32.92 7.11726 31.49 5.67726 30.07 4.23726C29.39 3.54726 28.71 2.85726 28.02 2.16726C27.99 2.13726 27.95 2.09726 27.92 2.06726C27.91 2.07726 27.9 2.07726 27.9 2.07726L27.89 2.08726V2.09726C27.89 2.10726 27.89 2.12726 27.89 2.13726C27.89 4.28726 27.89 6.42726 27.89 8.57726C27.89 8.58726 27.89 8.59726 27.89 8.60726V8.61726C27.8 8.64726 26.66 8.65726 26.52 8.62726C26.52 5.84726 26.52 3.06726 26.52 0.277258C26.57 0.277258 26.61 0.267258 26.66 0.267258C27.08 0.267258 27.5 0.267258 27.91 0.267258C28.01 0.267258 28.08 0.297258 28.14 0.367258C30.15 2.40726 32.16 4.43726 34.17 6.47726C34.21 6.51726 34.24 6.55726 34.28 6.59726C34.29 6.59726 34.3 6.58726 34.31 6.58726C34.31 6.53726 34.32 6.49726 34.32 6.44726C34.32 5.40726 34.32 4.36726 34.32 3.32726C34.32 2.36726 34.32 1.40726 34.32 0.447258C34.32 0.397258 34.32 0.337258 34.32 0.287258C34.79 0.287258 35.25 0.287258 35.71 0.287258C35.69 3.06726 35.69 5.84726 35.69 8.64726Z" fill="white"/>
<path d="M1.43 5.74726C1.43 6.71726 1.43 7.67726 1.43 8.63726C0.95 8.63726 0.48 8.63726 0 8.63726C0 5.84726 0 3.06726 0 0.277258C0.05 0.277258 0.09 0.267258 0.14 0.267258C1.97 0.267258 3.8 0.267258 5.64 0.267258C6.15 0.267258 6.64 0.317258 7.13 0.467258C7.66 0.637258 8.13 0.897258 8.49 1.32726C8.79 1.68726 8.97 2.11726 9.03 2.58726C9.08 2.98726 9.07 3.39726 8.96 3.78726C8.76 4.46726 8.34 4.95726 7.73 5.28726C7.26 5.54726 6.74 5.67726 6.2 5.71726C5.95 5.73726 5.69 5.74726 5.44 5.74726C4.16 5.74726 2.89 5.74726 1.61 5.74726C1.56 5.74726 1.5 5.74726 1.43 5.74726ZM1.45 1.51726C1.42 1.66726 1.42 4.39726 1.45 4.50726C1.5 4.50726 1.55 4.50726 1.61 4.50726C2.77 4.50726 3.94 4.50726 5.1 4.50726C5.33 4.50726 5.56 4.50726 5.79 4.50726C6.1 4.49726 6.4 4.44726 6.69 4.33726C7.1 4.17726 7.41 3.89726 7.52 3.44726C7.57 3.25726 7.58 3.06726 7.56 2.87726C7.52 2.28726 7.23 1.90726 6.69 1.69726C6.34 1.56726 5.97 1.52726 5.61 1.52726C4.27 1.52726 2.93 1.52726 1.58 1.52726C1.54 1.51726 1.49 1.51726 1.45 1.51726Z" fill="white"/>
<path d="M23.9601 8.63726C23.4801 8.63726 23.0201 8.63726 22.5501 8.63726C22.5201 8.52726 22.5201 0.417258 22.5501 0.267258C23.0201 0.267258 23.4901 0.267258 23.9601 0.267258C23.9601 3.06726 23.9601 5.84726 23.9601 8.63726Z" fill="white"/>
</svg>
