<?xml version="1.0" encoding="utf-8"?>
<!-- Generator: Adobe Illustrator 27.8.1, SVG Export Plug-In . SVG Version: 6.00 Build 0)  -->
<svg version="1.1" id="Layer_1" xmlns="http://www.w3.org/2000/svg" xmlns:xlink="http://www.w3.org/1999/xlink" x="0px" y="0px"
	 viewBox="0 0 1001.85 313.48" style="enable-background:new 0 0 1001.85 313.48;" xml:space="preserve">
<style type="text/css">
	.st0{fill:#9045F3;}
</style>
<g>
	<path class="st0" d="M992.64,35.03c-8.33,5.94-16.45,11.74-24.73,17.66c-2.26-2.28-4.28-4.53-6.5-6.55
		c-10.11-9.18-22-14.89-35.36-17.4c-21.14-3.97-42.12-3.34-62.6,3.67c-14.61,5-26.34,13.79-33.82,27.64
		c-3.72,6.89-5.91,14.3-6.87,22.04c-1.44,11.56-0.85,23.03,2.65,34.19c5.14,16.35,15.9,27.79,31.3,35.01
		c9.41,4.41,19.38,6.78,29.65,7.99c10.16,1.2,20.35,1.38,30.53,0.48c13.75-1.22,27.04-4.12,39.03-11.41
		c6.13-3.73,11.3-8.49,15.47-14.34c0.71-1,1.32-1.97,1.3-3.33c-0.08-5.67-0.03-11.33-0.04-17c0-0.45-0.11-0.9-0.21-1.68
		c-24.4,0-48.72,0-73.19,0c0-8.71,0-17.07,0-25.43c2.02-0.62,96.51-0.88,102.34-0.27c0.07,0.75,0.21,1.56,0.21,2.36
		c0.01,17.28,0,34.56,0.04,51.85c0,1.42-0.47,2.53-1.24,3.65c-7.35,10.84-16.98,19.21-28.24,25.72
		c-13.64,7.89-28.41,12.54-43.95,14.93c-14.93,2.3-29.92,2.47-44.91,0.99c-14.93-1.47-29.41-4.86-42.99-11.44
		c-26.62-12.89-42.71-33.81-47.55-63.09c-2.96-17.91-2.05-35.59,4.3-52.74c7.8-21.08,22.38-35.99,42.37-45.81
		c12.05-5.92,24.87-9.28,38.14-11.09c12.78-1.74,25.6-2.15,38.43-0.99c23.37,2.12,45.11,8.89,64.02,23.29
		c3.07,2.34,5.93,4.97,8.84,7.53C990.26,32.52,991.32,33.71,992.64,35.03z"/>
	<path class="st0" d="M323.17,187.15c-15.11-0.4-29.98-2.02-44.47-6.39c-11.93-3.6-23.07-8.86-32.91-16.6
		c-15.1-11.88-24.85-27.25-29.13-45.94c-4.45-19.43-4.24-38.77,2.28-57.78c6.97-20.31,20.24-35.33,38.94-45.64
		c13.05-7.2,27.14-11.18,41.86-13.17c8.91-1.21,17.85-1.77,26.83-1.57c17.2,0.37,34.04,2.81,50.12,9.17
		c17.56,6.95,32.16,17.7,42.45,33.83c6.45,10.1,10.37,21.16,12.19,32.94c2.04,13.25,2.08,26.51-0.79,39.69
		c-5.83,26.76-21.22,46.04-45.59,58.27c-12.27,6.16-25.36,9.69-38.93,11.31C338.42,186.17,330.78,186.54,323.17,187.15z
		 M321.74,26.69c-2.12,0.12-5.7,0.27-9.28,0.53c-10.81,0.79-21.29,3.04-31.22,7.46c-17.91,7.96-29.88,21.15-34.71,40.33
		c-3.2,12.69-2.95,25.47,0.35,38.11c3.57,13.67,11.18,24.63,22.82,32.74c10.21,7.12,21.69,10.85,33.84,12.82
		c9.93,1.62,19.93,1.76,29.94,1.05c11.95-0.85,23.52-3.39,34.33-8.77c15.89-7.91,26.58-20.2,31.42-37.39
		c2.68-9.49,3.13-19.17,2.09-28.92c-1.11-10.48-4.25-20.29-10.29-29.04c-8.23-11.92-19.74-19.27-33.24-23.79
		C346.58,28.07,334.97,26.85,321.74,26.69z"/>
	<path class="st0" d="M750.5,181.69c-0.99,0-1.91,0-2.82,0c-6.99,0-13.98-0.06-20.96,0.04c-1.96,0.03-3.33-0.61-4.69-1.99
		c-29.93-30.29-59.91-60.54-89.87-90.8c-14.35-14.49-28.71-28.98-43.06-43.47c-0.72-0.73-1.45-1.44-2.13-2.11
		c-0.28,0.15-0.37,0.19-0.44,0.25c-0.06,0.06-0.11,0.14-0.14,0.22c-0.03,0.09-0.05,0.18-0.05,0.28c-0.01,0.28-0.02,0.57-0.02,0.85
		c-0.01,45.14-0.01,90.27-0.02,135.41c0,0.19-0.04,0.37-0.07,0.56c-0.02,0.09-0.06,0.18-0.09,0.27c-2,0.64-25.77,0.76-28.75,0.12
		c0-58.48,0-116.99,0-175.68c1.05-0.06,1.96-0.16,2.88-0.16c8.78-0.01,17.56,0.06,26.34-0.06c2.09-0.03,3.49,0.69,4.91,2.14
		c42.22,42.84,84.47,85.65,126.72,128.47c0.79,0.8,1.49,1.67,2.24,2.51c0.22-0.07,0.43-0.14,0.65-0.21
		c0.04-0.96,0.11-1.93,0.11-2.89c0.01-21.91,0.01-43.81,0.01-65.72c0-20.21,0-40.41,0-60.62c0-1.11,0-2.21,0-3.46
		c9.95,0,19.52,0,29.26,0C750.5,64.3,750.5,122.81,750.5,181.69z"/>
	<path class="st0" d="M30.02,120.7c0,20.49,0,40.56,0,60.82c-10.14,0-19.99,0-30.02,0C0,122.84,0,64.35,0,5.62
		c1.04-0.06,1.95-0.16,2.86-0.16c38.53-0.01,77.06,0.01,115.59-0.01c10.63,0,21.12,1.1,31.29,4.3c11.1,3.49,20.95,9.04,28.53,18.11
		c6.41,7.67,10.03,16.56,11.34,26.43c1.13,8.52,0.82,16.95-1.5,25.26c-3.95,14.16-12.74,24.44-25.49,31.44
		c-10.01,5.49-20.87,8.19-32.17,9.14c-5.35,0.45-10.75,0.54-16.13,0.55c-26.82,0.05-53.64,0.02-80.46,0.02
		C32.75,120.7,31.63,120.7,30.02,120.7z M30.51,31.81c-0.62,3.09-0.53,60.52,0.08,62.9c1.06,0,2.18,0,3.29,0c24.45,0,48.9,0,73.36,0
		c4.81,0,9.63,0.1,14.44-0.08c6.44-0.25,12.78-1.21,18.83-3.53c8.88-3.41,15.26-9.27,17.7-18.77c1.02-3.96,1.2-7.98,0.9-12.08
		c-0.88-12.22-7.08-20.37-18.47-24.69c-7.34-2.79-15.02-3.69-22.78-3.71c-28.23-0.07-56.46-0.03-84.69-0.03
		C32.28,31.81,31.36,31.81,30.51,31.81z"/>
	<path class="st0" d="M504,181.56c-10.06,0-19.85,0-29.6,0c-0.57-2.25-0.67-172.89-0.1-175.94c9.83,0,19.68,0,29.7,0
		C504,64.28,504,122.77,504,181.56z"/>
	<path class="st0" d="M568.81,260.13c0.82,0,1.47,0,2.12,0c11.89,0,23.79,0,35.68,0c4.28,0,8.53,0.41,12.44,2.23
		c2.02,0.94,4.07,2.13,5.62,3.68c5.24,5.26,3.73,13.84-2.87,17.21c-1.17,0.6-2.43,1-3.9,1.59c0.75,0.28,1.38,0.47,1.98,0.74
		c2.13,0.96,4.5,1.62,6.33,2.99c5.79,4.32,6.1,12.57,0.87,17.59c-2.83,2.72-6.34,4.06-10.08,4.8c-2.12,0.42-4.31,0.66-6.46,0.67
		c-13.4,0.06-26.81,0.04-40.21,0.04c-0.46,0-0.92-0.05-1.35-0.07C568.4,309.5,568.24,264.06,568.81,260.13z M586.31,299.94
		c0.49,0.1,0.84,0.24,1.2,0.24c6.13,0.01,12.26,0.04,18.39-0.02c1.2-0.01,2.45-0.26,3.6-0.64c1.91-0.65,2.82-2.14,2.8-4.13
		c-0.02-1.99-0.99-3.45-2.93-4.02c-1.25-0.36-2.59-0.55-3.9-0.56c-5.66-0.06-11.32-0.03-16.98-0.02c-0.72,0-1.44,0.13-2.18,0.21
		C586.31,294.09,586.31,296.98,586.31,299.94z M586.32,280.09c0.45,0.1,0.8,0.25,1.16,0.26c5.64,0.02,11.28,0.04,16.92,0
		c0.92-0.01,1.88-0.22,2.76-0.51c1.87-0.61,2.82-1.95,2.82-3.77c0-1.9-1.09-3.45-3.02-3.92c-1.26-0.31-2.6-0.44-3.91-0.46
		c-4.79-0.05-9.59-0.03-14.39-0.01c-0.73,0-1.47,0.11-2.35,0.18C586.32,274.66,586.32,277.34,586.32,280.09z"/>
	<path class="st0" d="M497.15,260.27c6.03,0,11.75,0,17.71,0c0.05,1.08,0.14,2.09,0.14,3.09c0.01,7.17-0.06,14.35,0.05,21.52
		c0.04,2.24,0.32,4.53,0.93,6.68c0.98,3.5,3.44,5.78,6.93,6.88c2.76,0.87,5.56,1.01,8.39,0.4c5.23-1.12,8.22-4.22,9.12-9.51
		c0.25-1.48,0.37-3,0.38-4.5c0.04-7.08,0.02-14.16,0.02-21.24c0-1.03,0-2.05,0-3.27c5.98,0,11.77,0,17.73,0
		c0.06,0.9,0.17,1.73,0.17,2.55c0.01,8.02,0,16.05,0.01,24.07c0,5.8-1.19,11.24-4.76,15.97c-3.31,4.39-7.77,7.14-12.95,8.65
		c-8.63,2.52-17.32,2.55-25.97,0.08c-11.08-3.17-17.63-11.52-17.84-23.04C497.01,279.27,497.15,269.93,497.15,260.27z"/>
	<path class="st0" d="M433.93,272.03c-5.06,2.65-9.81,5.14-14.99,7.86c-0.36-0.53-0.69-1.1-1.08-1.62
		c-5.54-7.3-17.35-6.88-22.97-3.07c-4.6,3.12-5.87,7.71-5.2,12.91c0.67,5.18,3.69,8.66,8.63,10.2c7.06,2.2,15.8,1.15,20.62-5.79
		c0.1-0.15,0.28-0.24,0.63-0.53c4.71,2.48,9.5,5.01,14.5,7.64c-1.33,2.33-2.88,4.06-4.68,5.58c-4.82,4.07-10.48,6.32-16.61,7.41
		c-7.35,1.31-14.69,1.08-21.86-1.09c-9.14-2.77-16.06-8.16-18.51-17.75c-2.56-10.03-1.17-19.35,6.66-26.89
		c4.06-3.91,9.1-6.05,14.52-7.24c8.06-1.77,16.13-1.82,24.07,0.65C424.23,262.36,429.84,265.83,433.93,272.03z"/>
	<path class="st0" d="M440.75,260.22c5.82,0,11.46,0,17.5,0c0.22,4.15,0.07,8.25,0.1,12.35c0.03,4.15,0.01,8.31,0.01,12.46
		c0,4.14,0,8.28,0,12.68c2.89,0.44,5.6,0.17,8.28,0.22c2.74,0.05,5.47,0.01,8.21,0.01c2.74,0,5.47,0,8.21,0c2.71,0,5.42,0,8.29,0
		c0,4.71,0,9.09,0,13.61c-16.92,0-33.68,0-50.43,0C440.38,309.51,440.2,264.31,440.75,260.22z"/>
</g>
</svg>
