<svg width="151" height="66" viewBox="0 0 151 66" fill="none" xmlns="http://www.w3.org/2000/svg">
<path d="M109.42 36.4858C116.944 36.6501 124.349 36.7507 131.745 37.0328C132.991 37.0794 134.299 37.7638 135.417 38.4261C137.721 39.7949 138.557 41.9903 138.243 44.5929C137.956 46.9895 136.59 48.5986 134.353 49.4744C134.134 49.5602 133.906 49.6166 133.396 49.7736C134.24 50.0459 134.809 50.2323 135.378 50.4163C137.772 51.1939 139.352 52.781 139.727 55.283C140.139 58.0132 139.644 60.6674 137.137 62.1809C135.444 63.2038 133.389 64.1163 131.465 64.1776C124.163 64.4082 116.851 64.2708 109.42 64.2708C109.42 55.0991 109.42 45.9739 109.42 36.4858ZM114.069 60.3215C118.327 60.3215 122.411 60.3485 126.496 60.3068C128.124 60.2896 129.763 60.2136 131.372 59.9879C132.834 59.7818 134.09 59.122 134.627 57.5668C135.528 54.9568 134.124 52.521 131.159 52.3664C125.556 52.077 119.936 52.1383 114.324 52.0647C114.245 52.0647 114.164 52.1751 114.069 52.2438C114.069 54.8758 114.069 57.5128 114.069 60.3215ZM114.054 48.0197C119.355 48.0197 124.509 48.0222 129.66 48.0124C129.908 48.0124 130.156 47.9044 130.403 47.8431C132.631 47.2814 133.57 46.2217 133.533 44.3182C133.494 42.3754 132.439 41.0753 130.097 40.9698C124.85 40.7344 119.588 40.7662 114.334 40.6976C114.255 40.6976 114.174 40.803 114.057 40.8889C114.054 43.1996 114.054 45.5349 114.054 48.0197Z" fill="white"/>
<path d="M41.9511 42.8734C40.548 43.5602 39.3411 44.2029 38.0827 44.7278C37.7908 44.8505 37.1678 44.6984 36.9764 44.4556C33.7949 40.3713 29.3918 40.0647 24.763 40.4572C24.059 40.516 23.3574 40.7074 22.6706 40.8914C17.6272 42.2454 14.9265 45.7924 15.0933 50.8186C15.2601 55.8423 18.3484 59.3648 23.4555 60.3019C26.247 60.8145 29.0336 60.8612 31.8006 60.0615C33.8292 59.4752 35.5782 58.4548 36.817 56.745C37.3812 55.9674 37.8448 55.9773 38.5782 56.3722C39.6404 56.9462 40.7418 57.449 41.9437 58.0402C39.7851 61.2316 36.8832 63.0958 33.3951 64.0868C28.8031 65.3894 24.1988 65.3231 19.6779 63.7827C13.5553 61.6976 10.1701 56.8652 10.1824 50.4212C10.1947 44.0704 13.5455 39.1914 19.6804 37.2413C26.4727 35.0827 33.0811 35.3476 39.0664 39.7851C39.5962 40.1775 40.077 40.651 40.5308 41.1342C40.9871 41.6199 41.3746 42.1596 41.9511 42.8734Z" fill="white"/>
<path d="M73.1458 36.7164C74.831 36.7164 76.3028 36.7164 77.9855 36.7164C77.9855 37.5651 77.9855 38.3648 77.9855 39.1645C77.9929 43.2045 77.9438 47.2471 78.0199 51.2871C78.1278 56.8726 81.5105 60.3608 87.0984 60.5889C88.71 60.6551 90.3903 60.5349 91.9504 60.1424C96.2775 59.0509 98.5146 55.8595 98.6274 50.875C98.6814 48.5226 98.6422 46.1702 98.6422 43.8153C98.6446 41.5144 98.6422 39.2135 98.6422 36.7875C100.229 36.7875 101.77 36.7875 103.482 36.7875C103.482 38.3403 103.497 39.8636 103.479 41.3844C103.433 45.2675 103.619 49.1751 103.254 53.0312C102.67 59.1858 99.1892 62.9388 93.1499 64.391C89.3502 65.306 85.5309 65.2299 81.8171 63.9568C76.6535 62.1882 73.6511 58.4474 73.2537 53.0876C72.8907 48.2037 73.1531 43.2732 73.1409 38.3623C73.1458 37.8619 73.1458 37.3566 73.1458 36.7164Z" fill="white"/>
<path d="M70.5799 59.9707C70.5799 61.5259 70.5799 62.8309 70.5799 64.2217C62.1514 64.2217 53.7916 64.2217 45.3459 64.2217C45.3459 55.0647 45.3459 45.9788 45.3459 36.7777C46.8742 36.7777 48.3778 36.7777 50.0459 36.7777C50.0459 44.4384 50.0459 52.1334 50.0459 59.9707C56.9363 59.9707 63.6673 59.9707 70.5799 59.9707Z" fill="white"/>
<path d="M148.879 5.56094C147.26 6.67951 146.049 7.51598 144.712 8.43585C142.705 6.39987 140.326 5.09242 137.505 4.72447C134.225 4.29765 130.968 4.37124 127.83 5.54623C123.955 6.99594 121.825 10.2314 121.786 14.6125C121.747 18.9567 123.918 22.4032 127.867 23.8186C132.179 25.3615 136.58 25.3738 140.946 23.9535C141.712 23.7033 142.455 23.3157 143.132 22.8766C145.362 21.4269 145.735 20.4751 145.244 17.5781C143.392 17.5781 141.511 17.5781 139.629 17.5781C137.748 17.5781 135.866 17.5781 133.894 17.5781C133.894 16.1603 133.894 14.9117 133.894 13.5773C139.249 13.5773 144.545 13.5773 150.032 13.5773C150.032 16.3835 150.072 19.1799 149.995 21.9715C149.983 22.4547 149.529 22.9698 149.184 23.3917C146.976 26.0557 144.052 27.5863 140.77 28.4081C136.224 29.5438 131.652 29.5193 127.136 28.207C120.591 26.301 116.88 21.3459 116.887 14.6272C116.895 8.00658 120.601 3.06135 127.141 1.23632C132.822 -0.350764 138.479 -0.255097 143.885 2.33526C145.556 3.13248 147.032 4.34917 148.879 5.56094Z" fill="white"/>
<path d="M49.7736 0C52.023 0.458709 54.7433 0.735897 57.2748 1.58463C63.2822 3.59854 66.4809 8.38187 66.476 14.8038C66.4686 21.0761 63.2086 25.8128 57.265 27.8856C52.0892 29.691 46.8005 29.718 41.5904 28.0818C35.009 26.014 31.5282 20.8308 31.7931 13.8619C32.0384 7.45955 36.2306 2.52413 42.9322 0.966478C45.0074 0.480786 47.166 0.355684 49.7736 0ZM48.574 25.0328C50.3991 24.8292 51.6771 24.7531 52.9306 24.5373C57.9494 23.6738 61.0549 20.4089 61.5307 15.5618C61.9698 11.0728 59.5463 7.08669 55.2854 5.56584C51.2061 4.10876 47.0556 4.11612 42.9788 5.57074C38.951 7.0082 36.6525 10.4767 36.6869 14.7915C36.7212 19.1284 39.0393 22.5528 43.1235 23.8872C45.0368 24.5152 47.0826 24.7311 48.574 25.0328Z" fill="white"/>
<path d="M86.7427 6.90271C86.7427 14.2911 86.7427 21.2969 86.7427 28.4204C85.2415 28.4204 83.7942 28.4204 82.2439 28.4204C82.2439 19.3075 82.2439 10.1799 82.2439 0.892886C83.7476 0.892886 85.2243 0.81439 86.6838 0.934587C87.2038 0.978741 87.7656 1.42028 88.1679 1.82257C94.2709 7.95014 100.354 14.0973 106.43 20.2519C106.825 20.6517 107.139 21.1276 107.49 21.5691C107.608 21.5103 107.726 21.4489 107.841 21.3901C107.841 14.637 107.841 7.88636 107.841 1.01308C109.452 1.01308 110.902 1.01308 112.455 1.01308C112.455 10.1137 112.455 19.2413 112.455 28.4081C110.029 28.8128 108.084 28.5013 106.19 26.4997C100.327 20.2887 94.2022 14.3206 88.1777 8.26167C87.795 7.87655 87.3903 7.51351 86.7427 6.90271Z" fill="white"/>
<path d="M4.74899 19.1063C4.74899 22.229 4.74899 25.2781 4.74899 28.4326C3.13247 28.4326 1.62633 28.4326 0 28.4326C0 19.3345 0 10.2143 0 1.09894C0.103026 1.03762 0.183974 0.944403 0.267376 0.944403C6.96404 0.929685 13.6632 0.821754 20.3574 0.951762C24.8856 1.04007 28.4964 3.63043 29.5512 7.11613C31.207 12.5912 28.1751 17.534 22.413 18.6648C21.2699 18.888 20.0851 18.9886 18.9175 18.9984C14.3672 19.0377 9.81687 19.018 5.26657 19.0254C5.16845 19.0254 5.06788 19.0548 4.74899 19.1063ZM4.82013 5.18808C4.82013 8.49962 4.82013 11.6394 4.82013 14.713C10.1603 14.713 15.4097 14.8136 20.6517 14.6591C22.4792 14.6051 24.0663 13.6141 24.7065 11.6591C25.8006 8.32545 23.8234 5.37205 20.0728 5.23468C15.0295 5.04826 9.97631 5.18808 4.82013 5.18808Z" fill="white"/>
<path d="M70.6536 0.944397C72.2505 0.944397 73.7223 0.944397 75.2897 0.944397C75.2897 10.1112 75.2897 19.229 75.2897 28.4424C73.7762 28.4424 72.2701 28.4424 70.6536 28.4424C70.6536 19.3222 70.6536 10.2069 70.6536 0.944397Z" fill="white"/>
</svg>
