<svg width="26" height="26" viewBox="0 0 26 26" fill="none" xmlns="http://www.w3.org/2000/svg">
<path d="M0 13.2582C0 12.8882 0 12.5082 0 12.1382C0.01 12.0982 0.02 12.0482 0.02 12.0082C0.06 11.1981 0.18 10.3982 0.38 9.60815C0.54 8.96815 0.74 8.34815 1.01 7.74815C1.22 7.26815 1.46 6.79815 1.72 6.33815C1.92 5.97815 2.17 5.62815 2.4 5.28815C2.43 5.23815 2.5 5.21815 2.54 5.18815C2.55 5.14815 2.54 5.08815 2.57 5.05815C2.67 4.91815 2.78 4.77815 2.9 4.64815C2.94 4.59815 3 4.56815 3.05 4.52815C3.09 4.47815 3.1 4.40815 3.14 4.34815C3.22 4.24815 3.32 4.14815 3.4 4.05815C3.44 4.00815 3.48 3.99815 3.54 4.05815C3.56 4.07815 3.63 4.07815 3.66 4.05815C3.7 4.03815 3.72 3.98815 3.75 3.94815C3.73 3.91815 3.69 3.89815 3.66 3.87815C3.65 3.86815 3.64 3.85815 3.63 3.85815C3.71 3.71815 3.73 3.70815 3.84 3.79815C3.85 3.78815 3.85 3.77815 3.85 3.76815C3.85 3.54815 3.93 3.49815 4.14 3.49815C4.24 3.49815 4.34 3.45815 4.45 3.42815C4.34 3.27815 4.23 3.31815 4.11 3.38815C4.18 3.29815 4.24 3.20815 4.33 3.17815C4.39 3.14815 4.48 3.18815 4.58 3.20815C4.55 3.13815 4.52 3.08815 4.49 3.02815C4.58 2.94815 4.67 2.88815 4.75 2.80815C4.93 2.64815 4.94 2.64815 5.15 2.78815C5.17 2.81815 5.23 2.80815 5.27 2.79815C5.31 2.79815 5.35 2.77815 5.39 2.76815C5.42 2.75815 5.45 2.74815 5.46 2.71815C5.47 2.70815 5.44 2.67815 5.43 2.65815C5.41 2.62815 5.38 2.60815 5.37 2.57815C5.34 2.50815 5.42 2.29815 5.49 2.25815C5.79 2.06815 6.08 1.87815 6.38 1.69815C6.42 1.66815 6.49 1.67815 6.55 1.67815C6.59 1.67815 6.63 1.68815 6.67 1.68815C6.65 1.64815 6.64 1.60815 6.63 1.55815C6.69 1.49815 6.77 1.51815 6.84 1.54815C6.82 1.57815 6.81 1.59815 6.79 1.62815C6.82 1.63815 6.85 1.64815 6.87 1.64815C6.88 1.64815 6.9 1.61815 6.91 1.59815C6.89 1.57815 6.86 1.56815 6.84 1.55815C6.84 1.46815 6.89 1.41815 6.97 1.37815C7.27 1.23815 7.58 1.09815 7.88 0.96815C7.98 0.91815 8.1 0.90815 8.21 0.88815C8.24 0.87815 8.29 0.87815 8.31 0.85815C8.46 0.69815 8.63 0.64815 8.85 0.69815C8.88 0.70815 8.92 0.69815 8.98 0.69815C8.9 0.56815 9 0.55815 9.07 0.53815C9.16 0.50815 9.25 0.47815 9.35 0.46815C9.41 0.45815 9.48 0.47815 9.54 0.47815C9.54 0.48815 9.54 0.49815 9.54 0.50815C9.6 0.46815 9.66 0.41815 9.73 0.38815C9.79 0.36815 9.87 0.36815 9.94 0.35815C9.97 0.34815 10.01 0.32815 10.04 0.31815C10.1 0.29815 10.15 0.26815 10.21 0.25815C10.51 0.19815 10.81 0.13815 11.11 0.0981497C11.96 -0.00185031 12.81 -0.0318503 13.67 0.0381497C14.55 0.10815 15.42 0.26815 16.27 0.50815C17.32 0.80815 18.32 1.25815 19.26 1.82815C19.56 2.00815 19.85 2.21815 20.15 2.40815C20.23 2.46815 20.35 2.50815 20.29 2.61815C20.38 2.64815 20.48 2.66815 20.55 2.71815C21.33 3.31815 22.01 4.00815 22.63 4.76815C23.56 5.92815 24.26 7.20815 24.74 8.60815C25.16 9.84815 25.38 11.1182 25.4 12.4282C25.41 12.7481 25.39 13.0682 25.38 13.3882C25.38 13.4581 25.4 13.5482 25.36 13.5982C25.31 13.6782 25.22 13.7282 25.35 13.8182C25.36 13.8282 25.35 13.8681 25.35 13.8882C25.3 14.0381 25.25 14.1882 25.2 14.3482C25.22 14.3682 25.28 14.4082 25.28 14.4382C25.27 14.5982 25.24 14.7582 25.22 14.8882C25.13 14.8882 25.07 14.8882 25.01 14.8882C24.93 14.8982 24.92 14.9581 24.94 15.0082C24.95 15.0381 25 15.0781 25.04 15.0882C25.15 15.1082 25.2 15.1982 25.14 15.2782C25.11 15.3082 25.06 15.3182 25.01 15.3482C25.13 15.4082 25.11 15.4782 25.09 15.5582C25.08 15.5882 25.07 15.6281 25.06 15.6581C25.01 15.8481 24.96 15.8682 24.78 15.8082C24.75 15.7982 24.69 15.8281 24.66 15.8482C24.63 15.8682 24.63 15.9181 24.61 15.9481C24.65 15.9581 24.69 15.9682 24.73 15.9782C24.74 15.9782 24.76 15.9782 24.78 15.9782C24.86 15.9482 24.89 16.0082 24.92 16.0581C24.96 16.1481 24.88 16.3882 24.81 16.4582C24.75 16.5182 24.7 16.5882 24.65 16.6581C24.63 16.6581 24.62 16.6581 24.6 16.6681C24.57 16.6882 24.54 16.7181 24.51 16.7481C24.54 16.7682 24.58 16.7882 24.61 16.7982C24.63 16.8082 24.65 16.7882 24.67 16.7882C24.66 16.7382 24.65 16.6982 24.64 16.6581C24.77 16.7682 24.77 16.7682 24.67 16.9181C24.66 16.9282 24.66 16.9382 24.66 16.9482C24.63 17.0582 24.59 17.1681 24.56 17.2882C24.52 17.4082 24.46 17.4081 24.38 17.3281C24.36 17.3081 24.32 17.3082 24.28 17.2982C24.27 17.2982 24.25 17.3382 24.26 17.3482C24.28 17.3782 24.31 17.4181 24.34 17.4282C24.38 17.4482 24.44 17.4481 24.5 17.4681C24.41 17.6181 24.41 17.7982 24.22 17.8682C24.3 17.9682 24.25 18.0681 24.19 18.1481C24.14 18.2281 24.05 18.2782 23.98 18.3482C24.05 18.4382 24.05 18.4382 23.99 18.5681C23.91 18.7381 23.81 18.8882 23.72 19.0482C23.52 19.3882 23.3 19.7182 23.08 20.0382C22.58 20.7682 21.99 21.4282 21.34 22.0282C20.01 23.2582 18.49 24.1581 16.77 24.7381C15.96 25.0082 15.13 25.1982 14.28 25.2982C13.96 25.3382 13.64 25.3581 13.32 25.3881C12.9 25.3881 12.48 25.3881 12.05 25.3881C12.02 25.3781 11.99 25.3682 11.96 25.3682C10.52 25.2782 9.13 24.9581 7.8 24.3981C6.52 23.8581 5.36 23.1282 4.32 22.2082C3.4 21.3982 2.62 20.4782 1.97 19.4482C1.33 18.4282 0.84 17.3281 0.51 16.1681C0.31 15.4481 0.17 14.7182 0.1 13.9782C0.04 13.7382 0.02 13.4981 0 13.2582ZM6.77 2.36815C6.66 2.29815 6.58 2.22815 6.48 2.17815C6.46 2.16815 6.41 2.17815 6.39 2.19815C6.34 2.25815 6.28 2.26815 6.2 2.22815C6.17 2.21815 6.12 2.21815 6.11 2.22815C6.05 2.29815 6 2.36815 5.95 2.43815C6.1 2.44815 6.29 2.40815 6.38 2.35815C6.4 2.34815 6.44 2.33815 6.46 2.35815C6.5 2.37815 6.56 2.41815 6.56 2.44815C6.55 2.49815 6.52 2.55815 6.47 2.58815C6.43 2.60815 6.34 2.61815 6.32 2.58815C6.23 2.49815 6.17 2.51815 6.11 2.62815C6.04 2.50815 5.96 2.53815 5.87 2.56815C5.98 2.72815 5.97 2.79815 5.8 2.85815C5.74 2.87815 5.67 2.86815 5.58 2.87815C5.72 2.97815 5.84 2.92815 6 2.89815C5.86 3.05815 6.06 3.05815 6.09 3.13815C6.1 3.14815 6.19 3.13815 6.25 3.12815C6.18 3.05815 6.1 3.02815 6.07 2.96815C6.04 2.90815 6.05 2.81815 6.07 2.74815C6.11 2.65815 6.2 2.64815 6.26 2.65815C6.29 2.73815 6.31 2.79815 6.33 2.85815C6.39 2.81815 6.45 2.76815 6.5 2.71815C6.52 2.69815 6.53 2.65815 6.54 2.63815C6.56 2.59815 6.59 2.56815 6.62 2.53815C6.67 2.47815 6.73 2.41815 6.77 2.36815ZM23.42 14.7982C23.49 14.7582 23.51 14.7082 23.43 14.6482C23.38 14.6082 23.33 14.5682 23.29 14.5282C23.27 14.5082 23.24 14.4981 23.22 14.4981C23.14 14.4781 23.06 14.4581 22.98 14.4481C22.94 14.4682 22.88 14.4882 22.84 14.5282C22.81 14.5482 22.79 14.5882 22.76 14.6181C22.8 14.6481 22.84 14.6981 22.88 14.6981C23 14.6981 23.12 14.6882 23.24 14.6681C23.33 14.6481 23.41 14.6681 23.42 14.7982ZM7.59 2.50815C7.59 2.38815 7.58 2.28815 7.57 2.19815C7.56 2.20815 7.55 2.21815 7.54 2.22815C7.48 2.21815 7.43 2.19815 7.38 2.17815C7.35 2.16815 7.32 2.13815 7.29 2.13815C7.25 2.13815 7.19 2.14815 7.16 2.17815C7.12 2.20815 7.1 2.26815 7.16 2.30815C7.19 2.31815 7.2 2.34815 7.22 2.37815C7.25 2.45815 7.3 2.45815 7.36 2.42815C7.35 2.40815 7.34 2.38815 7.34 2.37815C7.48 2.28815 7.49 2.45815 7.59 2.50815ZM9.33 1.92815C9.34 1.90815 9.35 1.88815 9.35 1.86815C9.39 1.71815 9.34 1.65815 9.19 1.66815C9.15 1.66815 9.11 1.64815 9.08 1.62815C9 1.58815 8.93 1.59815 8.9 1.66815C8.89 1.69815 8.94 1.77815 8.98 1.79815C9.09 1.84815 9.2 1.88815 9.33 1.92815ZM24.65 16.0382C24.59 16.1282 24.52 16.1881 24.53 16.2181C24.55 16.2881 24.62 16.3482 24.66 16.4081C24.72 16.3582 24.82 16.2982 24.82 16.2582C24.81 16.1882 24.73 16.1282 24.65 16.0382ZM8.88 1.10815C8.77 1.01815 8.6 0.99815 8.53 1.05815C8.51 1.07815 8.5 1.10815 8.48 1.13815C8.53 1.14815 8.56 1.14815 8.59 1.15815C8.6 1.18815 8.61 1.21815 8.62 1.26815C8.66 1.20815 8.69 1.16815 8.72 1.11815C8.87 1.20815 8.96 1.20815 9.04 1.13815C9 1.11815 8.96 1.08815 8.92 1.05815C8.93 1.04815 8.94 1.03815 8.95 1.02815C8.92 1.05815 8.9 1.08815 8.88 1.10815ZM5.33 3.48815C5.28 3.41815 5.24 3.35815 5.13 3.37815C5.06 3.39815 5 3.38815 4.9 3.39815C4.9 3.40815 4.9 3.48815 4.92 3.48815C5.05 3.53815 5.18 3.63815 5.33 3.48815ZM3.92 4.05815C3.81 4.13815 3.76 4.23815 3.81 4.29815C3.86 4.36815 3.93 4.36815 4.02 4.34815C4.13 4.32815 4.19 4.25815 4.27 4.14815C4.2 4.16815 4.13 4.15815 4.12 4.18815C4.05 4.31815 3.98 4.25815 3.9 4.20815C3.91 4.15815 3.91 4.11815 3.92 4.05815ZM24.56 15.5381C24.61 15.5482 24.67 15.5582 24.73 15.5682C24.79 15.5882 24.85 15.6082 24.91 15.6382C24.89 15.5882 24.85 15.5181 24.87 15.4881C24.92 15.3881 24.83 15.3781 24.79 15.3681C24.75 15.3581 24.69 15.3882 24.65 15.4181C24.62 15.4481 24.6 15.4981 24.56 15.5381ZM13.28 0.49815C13.33 0.42815 13.49 0.41815 13.39 0.27815C13.34 0.21815 13.28 0.18815 13.21 0.24815C13.13 0.30815 13.15 0.35815 13.28 0.49815ZM23.3 15.2481C23.23 15.1281 23.24 14.9982 23.1 14.9782C23.09 14.9782 23.08 14.9881 23.07 14.9981C23.08 15.0281 23.1 15.0482 23.11 15.0682C23.1 15.0682 23.09 15.0682 23.08 15.0682C23.07 15.1182 23.03 15.1782 23.05 15.2182C23.08 15.3281 23.18 15.2381 23.3 15.2481ZM24.07 17.0082C24.07 17.0082 24.09 16.9881 24.09 16.9781C24.1 16.9282 24.1 16.8881 24.11 16.8382C24.06 16.8382 24.01 16.8281 23.97 16.8281C23.93 16.8281 23.89 16.8382 23.86 16.8582C23.83 16.8682 23.81 16.8881 23.79 16.9081C23.81 16.9282 23.83 16.9581 23.86 16.9681C23.93 16.9781 23.99 16.9881 24.07 17.0082ZM24.24 16.3981C24.31 16.2781 24.27 16.1982 24.21 16.1581C24.09 16.0781 24.04 16.2381 23.95 16.2682C24.05 16.3181 24.19 16.2181 24.24 16.3981ZM9.18 0.66815C9.2 0.69815 9.22 0.72815 9.24 0.75815C9.27 0.79815 9.29 0.84815 9.31 0.88815C9.33 0.83815 9.37 0.77815 9.38 0.72815C9.39 0.67815 9.37 0.61815 9.37 0.55815C9.32 0.57815 9.28 0.59815 9.24 0.61815C9.22 0.62815 9.2 0.64815 9.18 0.66815ZM6.81 2.57815C6.88 2.56815 6.96 2.58815 6.98 2.55815C7.01 2.50815 7.01 2.43815 7.02 2.37815C6.87 2.36815 6.86 2.37815 6.81 2.57815ZM5.22 6.97815C5.16 6.92815 5.11 6.87815 5.1 6.87815C5.05 6.90815 5.01 6.95815 4.98 6.99815C4.97 7.00815 5.04 7.09815 5.06 7.08815C5.11 7.07815 5.15 7.02815 5.22 6.97815ZM5.42 6.22815C5.34 6.18815 5.3 6.14815 5.26 6.14815C5.23 6.14815 5.19 6.19815 5.16 6.22815C5.2 6.26815 5.22 6.32815 5.27 6.34815C5.3 6.34815 5.35 6.28815 5.42 6.22815ZM22.67 13.7782C22.59 13.8382 22.53 13.8681 22.49 13.9181C22.48 13.9282 22.49 13.9981 22.52 14.0082C22.57 14.0482 22.76 13.9782 22.79 13.9181C22.63 13.9282 22.61 13.9182 22.67 13.7782ZM6.79 2.11815C6.77 2.06815 6.76 2.01815 6.75 1.96815C6.7 1.99815 6.65 2.02815 6.6 2.06815C6.71 2.19815 6.79 2.21815 6.9 2.12815C6.84 2.11815 6.81 2.11815 6.79 2.11815ZM16.75 4.84815C16.8 4.77815 16.86 4.73815 16.86 4.70815C16.86 4.66815 16.8 4.63815 16.76 4.59815C16.73 4.63815 16.67 4.66815 16.66 4.70815C16.65 4.73815 16.7 4.78815 16.75 4.84815ZM5.12 2.97815C5.15 3.04815 5.18 3.10815 5.21 3.16815C5.23 3.18815 5.27 3.19815 5.3 3.19815C5.31 3.19815 5.34 3.16815 5.34 3.14815C5.35 3.07815 5.22 2.96815 5.12 2.97815ZM4.63 3.73815C4.63 3.75815 4.64 3.77815 4.64 3.78815C4.71 3.78815 4.79 3.79815 4.86 3.77815C4.89 3.76815 4.9 3.70815 4.92 3.66815C4.89 3.66815 4.86 3.65815 4.83 3.66815C4.8 3.66815 4.77 3.67815 4.74 3.68815C4.7 3.70815 4.67 3.72815 4.63 3.73815ZM3.77 4.41815C3.73 4.47815 3.69 4.50815 3.67 4.54815C3.67 4.56815 3.73 4.62815 3.75 4.61815C3.79 4.60815 3.84 4.57815 3.88 4.54815C3.85 4.50815 3.82 4.47815 3.77 4.41815ZM5.93 2.17815C5.92 2.16815 5.91 2.14815 5.9 2.13815C5.85 2.15815 5.78 2.15815 5.74 2.18815C5.72 2.20815 5.74 2.27815 5.73 2.31815C5.76 2.31815 5.81 2.31815 5.83 2.29815C5.88 2.26815 5.9 2.21815 5.93 2.17815ZM23.77 15.9881C23.82 15.9481 23.86 15.9181 23.9 15.8882C23.87 15.8582 23.83 15.8082 23.81 15.8182C23.76 15.8282 23.72 15.8781 23.68 15.9081C23.7 15.9282 23.73 15.9481 23.77 15.9881ZM6.89 3.41815C6.88 3.41815 6.87 3.41815 6.85 3.42815C6.87 3.49815 6.88 3.57815 6.9 3.64815C6.91 3.66815 6.95 3.66815 6.98 3.68815C6.99 3.64815 7.02 3.60815 7.01 3.57815C6.98 3.51815 6.93 3.46815 6.89 3.41815ZM24.77 13.7081C24.67 13.7481 24.59 13.7882 24.5 13.8182C24.5 13.8382 24.51 13.8581 24.51 13.8681C24.59 13.8781 24.66 13.8781 24.72 13.8882C24.74 13.8281 24.75 13.7881 24.77 13.7081ZM23.09 17.7181C23.03 17.7181 22.97 17.7282 22.92 17.7082C22.87 17.6882 22.83 17.6382 22.79 17.5982C22.75 17.6581 22.75 17.6981 22.82 17.7381C22.88 17.7682 22.93 17.8182 22.99 17.8682C23.01 17.8182 23.05 17.7781 23.09 17.7181ZM22.18 15.2081C22.23 15.1281 22.23 15.0582 22.16 15.0082C22.14 14.9981 22.08 15.0082 22.07 15.0282C21.95 15.1782 22.15 15.1281 22.18 15.2081ZM4.53 3.79815C4.54 3.77815 4.54 3.75815 4.55 3.72815C4.49 3.68815 4.42 3.64815 4.36 3.60815C4.36 3.66815 4.34 3.73815 4.37 3.76815C4.4 3.79815 4.47 3.78815 4.53 3.79815ZM4.9 2.94815C4.91 2.95815 4.92 2.96815 4.93 2.97815C4.98 2.93815 5.03 2.88815 5.08 2.84815C5.05 2.83815 5.01 2.79815 4.97 2.79815C4.85 2.80815 4.91 2.88815 4.9 2.94815ZM10.48 3.98815C10.45 4.04815 10.41 4.08815 10.42 4.10815C10.44 4.14815 10.48 4.17815 10.51 4.20815C10.53 4.17815 10.58 4.14815 10.57 4.12815C10.56 4.08815 10.53 4.04815 10.48 3.98815ZM12.24 3.31815C12.18 3.27815 12.15 3.24815 12.1 3.23815C12.09 3.23815 12.03 3.29815 12.04 3.30815C12.06 3.34815 12.1 3.37815 12.14 3.39815C12.15 3.40815 12.19 3.35815 12.24 3.31815ZM21.93 15.9682C22 15.9282 22.04 15.8182 21.97 15.7582C21.95 15.7381 21.91 15.7381 21.88 15.7481C21.87 15.7481 21.86 15.7982 21.87 15.8182C21.88 15.8682 21.91 15.9181 21.93 15.9682ZM15.86 2.77815C15.81 2.73815 15.78 2.68815 15.74 2.68815C15.71 2.68815 15.68 2.73815 15.65 2.75815C15.69 2.78815 15.72 2.82815 15.76 2.84815C15.78 2.85815 15.82 2.81815 15.86 2.77815ZM1.66 9.46815C1.66 9.48815 1.66 9.50815 1.65 9.52815C1.7 9.54815 1.75 9.56815 1.81 9.57815C1.83 9.57815 1.87 9.55815 1.89 9.54815C1.88 9.51815 1.87 9.46815 1.86 9.46815C1.79 9.45815 1.73 9.46815 1.66 9.46815ZM10.92 3.51815C10.94 3.50815 10.96 3.49815 10.97 3.48815C10.99 3.45815 11.03 3.41815 11.02 3.39815C11 3.36815 10.96 3.33815 10.92 3.31815C10.9 3.34815 10.86 3.37815 10.86 3.39815C10.87 3.43815 10.9 3.47815 10.92 3.51815ZM9.15 0.81815C9.14 0.78815 9.13 0.76815 9.12 0.73815C9.07 0.76815 9.01 0.78815 8.95 0.81815C8.94 0.81815 8.96 0.86815 8.97 0.89815C9.03 0.86815 9.09 0.83815 9.15 0.81815ZM24.52 13.5381C24.47 13.5082 24.42 13.4581 24.41 13.4682C24.37 13.4882 24.35 13.5282 24.33 13.5682C24.33 13.5782 24.38 13.6281 24.39 13.6281C24.43 13.6181 24.46 13.5781 24.52 13.5381ZM5.65 3.71815C5.69 3.67815 5.72 3.64815 5.75 3.61815C5.72 3.58815 5.69 3.54815 5.66 3.54815C5.63 3.54815 5.59 3.58815 5.58 3.62815C5.57 3.63815 5.62 3.67815 5.65 3.71815ZM6.65 2.82815C6.65 2.83815 6.65 2.84815 6.65 2.86815C6.7 2.86815 6.76 2.88815 6.8 2.86815C6.86 2.83815 6.87 2.77815 6.82 2.72815C6.76 2.75815 6.7 2.79815 6.65 2.82815ZM16.42 3.78815C16.45 3.73815 16.49 3.70815 16.49 3.68815C16.49 3.65815 16.45 3.63815 16.42 3.60815C16.39 3.63815 16.35 3.65815 16.34 3.69815C16.34 3.70815 16.38 3.74815 16.42 3.78815ZM24.14 14.4282C24.07 14.3982 24.01 14.3781 23.93 14.3482C23.93 14.4181 23.94 14.4782 23.94 14.5482C24.02 14.4981 24.08 14.4682 24.14 14.4282ZM6.25 9.26815C6.23 9.25815 6.21 9.24815 6.2 9.23815C6.18 9.26815 6.15 9.30815 6.16 9.32815C6.18 9.36815 6.22 9.39815 6.26 9.40815C6.27 9.40815 6.33 9.35815 6.32 9.34815C6.31 9.31815 6.27 9.28815 6.25 9.26815ZM22.45 15.8082C22.42 15.8482 22.39 15.8781 22.39 15.8781C22.43 15.9181 22.47 15.9482 22.51 15.9782C22.52 15.9782 22.54 15.9581 22.56 15.9481C22.53 15.9081 22.49 15.8582 22.45 15.8082ZM23.76 14.1882C23.76 14.2182 23.76 14.2382 23.76 14.2682C23.81 14.2682 23.87 14.2682 23.92 14.2682C23.93 14.2682 23.93 14.2182 23.93 14.1882C23.87 14.1882 23.82 14.1882 23.76 14.1882ZM22.87 14.0082C22.87 14.0282 22.88 14.0581 22.88 14.0781C22.93 14.0681 22.98 14.0682 23.03 14.0582C23.02 14.0282 23.02 13.9782 23.02 13.9782C22.96 13.9882 22.91 13.9981 22.87 14.0082ZM7.04 1.64815C7 1.72815 6.98 1.78815 6.94 1.86815C7.02 1.82815 7.08 1.79815 7.15 1.76815C7.11 1.71815 7.08 1.68815 7.04 1.64815ZM19.09 9.78815C19.06 9.83815 19.02 9.86815 19.02 9.89815C19.02 9.91815 19.05 9.94815 19.07 9.96815C19.09 9.93815 19.13 9.91815 19.14 9.88815C19.16 9.86815 19.13 9.83815 19.09 9.78815ZM6.52 3.29815C6.53 3.31815 6.53 3.32815 6.54 3.34815C6.59 3.38815 6.65 3.37815 6.68 3.31815C6.69 3.29815 6.68 3.26815 6.68 3.23815C6.62 3.25815 6.57 3.27815 6.52 3.29815ZM5.73 3.11815C5.74 3.16815 5.74 3.22815 5.75 3.27815C5.77 3.26815 5.81 3.27815 5.82 3.25815C5.86 3.19815 5.85 3.14815 5.73 3.11815ZM12.35 2.27815C12.3 2.24815 12.27 2.20815 12.25 2.20815C12.22 2.20815 12.19 2.24815 12.16 2.26815C12.19 2.28815 12.21 2.32815 12.24 2.33815C12.27 2.33815 12.3 2.30815 12.35 2.27815ZM14.66 0.81815C14.6 0.78815 14.57 0.74815 14.55 0.74815C14.52 0.74815 14.49 0.78815 14.46 0.81815C14.49 0.83815 14.52 0.86815 14.56 0.87815C14.58 0.88815 14.61 0.84815 14.66 0.81815ZM9.44 10.3182C9.56 10.1982 9.61 10.2782 9.66 10.3982C9.69 10.2982 9.67 10.2381 9.6 10.2081C9.52 10.1881 9.47 10.2282 9.44 10.3182ZM23.73 13.4682C23.92 13.5482 23.92 13.5482 23.97 13.5082C23.89 13.4382 23.82 13.4081 23.73 13.4682ZM7.79 4.21815C7.82 4.16815 7.84 4.13815 7.84 4.12815C7.82 4.09815 7.79 4.06815 7.76 4.05815C7.75 4.05815 7.72 4.08815 7.7 4.10815C7.73 4.13815 7.75 4.16815 7.79 4.21815ZM23.23 14.2582C23.33 14.3781 23.4 14.3982 23.51 14.3382C23.42 14.3181 23.34 14.2982 23.23 14.2582ZM22.72 13.6482C22.71 13.6582 22.7 13.6681 22.69 13.6782C22.73 13.7182 22.76 13.7682 22.8 13.7982C22.83 13.8182 22.87 13.7982 22.91 13.7881C22.91 13.7781 22.91 13.7682 22.9 13.7582C22.85 13.7182 22.79 13.6882 22.72 13.6482ZM11.03 0.68815C11.06 0.64815 11.09 0.62815 11.09 0.60815C11.08 0.57815 11.06 0.53815 11.03 0.53815C11.01 0.53815 10.96 0.56815 10.96 0.58815C10.97 0.61815 11 0.64815 11.03 0.68815ZM15.84 5.51815C15.79 5.48815 15.76 5.45815 15.74 5.46815C15.71 5.47815 15.69 5.51815 15.67 5.53815C15.7 5.55815 15.72 5.58815 15.75 5.58815C15.77 5.58815 15.79 5.54815 15.84 5.51815ZM9.03 1.48815C9.02 1.47815 9.01 1.46815 9 1.44815C8.91 1.48815 8.82 1.51815 8.73 1.55815C8.74 1.56815 8.74 1.58815 8.75 1.59815C8.84 1.56815 8.93 1.52815 9.03 1.48815ZM7.24 1.49815C7.26 1.48815 7.28 1.48815 7.3 1.47815C7.28 1.41815 7.26 1.36815 7.24 1.31815C7.21 1.32815 7.17 1.34815 7.17 1.34815C7.19 1.39815 7.21 1.44815 7.24 1.49815ZM25.04 13.5982C25.04 13.5882 25.04 13.5782 25.04 13.5682C24.94 13.5682 24.84 13.5682 24.75 13.5682C24.75 13.5782 24.75 13.5882 24.75 13.5982C24.85 13.5982 24.94 13.5982 25.04 13.5982ZM5.78 2.60815C5.73 2.57815 5.7 2.54815 5.69 2.55815C5.65 2.56815 5.63 2.59815 5.6 2.62815C5.62 2.64815 5.65 2.67815 5.67 2.66815C5.7 2.66815 5.73 2.63815 5.78 2.60815ZM10.55 3.04815C10.56 3.03815 10.57 3.02815 10.58 3.00815C10.55 2.96815 10.51 2.92815 10.48 2.88815C10.46 2.90815 10.44 2.93815 10.42 2.95815C10.47 2.98815 10.51 3.01815 10.55 3.04815ZM16.15 4.09815C16.09 4.06815 16.06 4.04815 16.04 4.04815C16.02 4.04815 16 4.08815 15.98 4.09815C16 4.11815 16.03 4.15815 16.05 4.15815C16.07 4.16815 16.1 4.13815 16.15 4.09815ZM24.55 14.2481C24.56 14.2381 24.56 14.2182 24.57 14.2081C24.52 14.1881 24.47 14.1681 24.42 14.1681C24.4 14.1681 24.37 14.1981 24.34 14.2182C24.34 14.2282 24.35 14.2381 24.35 14.2381C24.42 14.2481 24.49 14.2481 24.55 14.2481ZM23.92 13.6581C23.92 13.6481 23.91 13.6382 23.91 13.6281C23.85 13.6281 23.8 13.6382 23.72 13.6382C23.75 13.6782 23.78 13.7382 23.79 13.7282C23.83 13.7081 23.88 13.6782 23.92 13.6581ZM10.62 3.77815C10.59 3.74815 10.56 3.72815 10.54 3.70815C10.52 3.73815 10.49 3.75815 10.48 3.78815C10.48 3.79815 10.51 3.82815 10.53 3.84815C10.56 3.83815 10.58 3.81815 10.62 3.77815ZM7.37 3.25815C7.4 3.21815 7.43 3.18815 7.43 3.17815C7.4 3.15815 7.37 3.12815 7.34 3.10815C7.34 3.10815 7.3 3.13815 7.3 3.14815C7.32 3.18815 7.34 3.20815 7.37 3.25815ZM7.94 4.75815C7.91 4.79815 7.88 4.81815 7.88 4.83815C7.88 4.85815 7.91 4.88815 7.94 4.89815C7.96 4.89815 7.99 4.86815 8 4.84815C8 4.82815 7.97 4.79815 7.94 4.75815ZM22.69 12.6882C22.75 12.6882 22.8 12.6981 22.84 12.6981C22.86 12.6881 22.88 12.6581 22.9 12.6281C22.9 12.6181 22.89 12.5882 22.88 12.5882C22.86 12.5882 22.83 12.5982 22.81 12.6082C22.77 12.6282 22.74 12.6482 22.69 12.6882ZM22.87 15.8281C22.89 15.8281 22.91 15.8182 22.94 15.8182C22.93 15.7782 22.93 15.7282 22.92 15.6882C22.9 15.6882 22.86 15.6981 22.86 15.6981C22.85 15.7481 22.86 15.7881 22.87 15.8281ZM4.69 3.18815C4.73 3.11815 4.76 3.06815 4.8 3.01815C4.68 3.01815 4.66 3.05815 4.69 3.18815ZM23.38 12.4081C23.37 12.4181 23.35 12.4181 23.34 12.4282C23.35 12.4581 23.36 12.5182 23.38 12.5282C23.41 12.5382 23.46 12.5182 23.53 12.5082C23.46 12.4581 23.42 12.4282 23.38 12.4081ZM22.35 14.2982C22.39 14.2881 22.42 14.2882 22.43 14.2682C22.45 14.2382 22.47 14.2081 22.48 14.1681C22.48 14.1581 22.46 14.1482 22.44 14.1281C22.42 14.1581 22.4 14.1882 22.38 14.2182C22.39 14.2481 22.38 14.2582 22.35 14.2982ZM23.13 8.87815C23.16 8.83815 23.19 8.80815 23.18 8.78815C23.18 8.76815 23.14 8.74815 23.12 8.73815C23.11 8.73815 23.07 8.76815 23.07 8.78815C23.07 8.81815 23.1 8.83815 23.13 8.87815ZM23.43 13.8681C23.41 13.8681 23.39 13.8681 23.37 13.8781C23.38 13.9282 23.38 13.9782 23.39 14.0282C23.39 14.0282 23.42 14.0282 23.44 14.0282C23.44 13.9682 23.43 13.9181 23.43 13.8681ZM20.39 10.9481C20.35 10.9281 20.32 10.8981 20.31 10.9081C20.29 10.9181 20.27 10.9481 20.25 10.9682C20.27 10.9782 20.29 11.0082 20.3 11.0082C20.33 10.9981 20.35 10.9781 20.39 10.9481ZM10.37 0.58815C10.33 0.55815 10.31 0.52815 10.3 0.53815C10.28 0.54815 10.26 0.57815 10.24 0.59815C10.26 0.61815 10.28 0.63815 10.3 0.63815C10.31 0.63815 10.34 0.60815 10.37 0.58815ZM9.71 0.68815C9.71 0.70815 9.72 0.71815 9.72 0.73815C9.78 0.72815 9.85 0.70815 9.91 0.69815C9.91 0.68815 9.9 0.66815 9.9 0.65815C9.84 0.66815 9.77 0.67815 9.71 0.68815ZM23.31 18.8981C23.3 18.9181 23.29 18.9282 23.28 18.9482C23.33 18.9882 23.39 19.0181 23.44 19.0581C23.45 19.0481 23.46 19.0382 23.47 19.0182C23.41 18.9781 23.36 18.9382 23.31 18.8981ZM25.03 13.2982C24.98 13.1382 24.87 13.2481 24.81 13.2182C24.81 13.2282 24.8 13.2381 24.8 13.2481C24.86 13.2682 24.93 13.2781 25.03 13.2982ZM24.4 16.2481C24.38 16.2782 24.36 16.3081 24.36 16.3181C24.38 16.3382 24.4 16.3582 24.43 16.3682L24.47 16.3281C24.46 16.2981 24.43 16.2782 24.4 16.2481ZM6.49 3.18815C6.5 3.17815 6.51 3.15815 6.52 3.14815C6.48 3.11815 6.43 3.08815 6.38 3.06815C6.37 3.07815 6.37 3.09815 6.36 3.10815C6.4 3.13815 6.44 3.16815 6.49 3.18815ZM13.16 1.80815C13.15 1.78815 13.14 1.76815 13.14 1.74815C13.11 1.76815 13.08 1.77815 13.05 1.79815L13.07 1.84815C13.1 1.83815 13.13 1.81815 13.16 1.80815ZM23.94 17.7381C23.95 17.7582 23.95 17.7682 23.96 17.7882C24.02 17.7682 24.08 17.7481 24.14 17.7181C24.14 17.7081 24.13 17.6982 24.13 17.6782C24.07 17.6982 24 17.7181 23.94 17.7381ZM9.48 3.08815C9.38 3.00815 9.33 3.00815 9.3 3.09815C9.36 3.09815 9.42 3.09815 9.48 3.08815ZM22.98 10.2682C22.95 10.2982 22.92 10.3181 22.93 10.3281C22.94 10.3581 22.96 10.3781 22.98 10.3982C23 10.3882 23.03 10.3682 23.03 10.3582C23.02 10.3282 23 10.3082 22.98 10.2682ZM4.92 4.58815C4.93 4.56815 4.93 4.55815 4.94 4.53815C4.9 4.52815 4.86 4.50815 4.83 4.49815C4.82 4.50815 4.81 4.52815 4.81 4.54815C4.85 4.55815 4.88 4.57815 4.92 4.58815ZM13.78 4.06815C13.75 4.03815 13.73 4.00815 13.71 4.01815C13.69 4.01815 13.67 4.04815 13.66 4.06815C13.66 4.07815 13.69 4.10815 13.7 4.10815C13.72 4.10815 13.74 4.08815 13.78 4.06815ZM23.24 16.0282C23.24 16.0482 23.23 16.0581 23.23 16.0781C23.28 16.0882 23.32 16.0882 23.37 16.0982C23.37 16.0781 23.37 16.0682 23.38 16.0482C23.33 16.0382 23.29 16.0282 23.24 16.0282ZM24.37 16.5781C24.37 16.5681 24.37 16.5482 24.36 16.5382C24.3 16.5482 24.25 16.5581 24.19 16.5681C24.19 16.5781 24.2 16.5982 24.2 16.6082C24.25 16.5982 24.31 16.5882 24.37 16.5781Z" fill="white"/>
<path d="M24.99 14.9081C25.02 14.9381 25.05 14.9581 25.08 14.9881C25.09 14.9981 25.1 15.0281 25.1 15.0481C25.1 15.0581 25.07 15.0681 25.05 15.0681C25.03 15.0581 25.01 15.0381 25 15.0281C25 14.9881 25 14.9481 24.99 14.9081Z" fill="white"/>
<path d="M7.6001 15.2682C7.6901 15.2382 7.7701 15.2182 7.8601 15.2682C7.9101 15.2982 8.0001 15.2582 8.0601 15.2382C8.4801 15.1182 8.9001 15.0882 9.3201 15.1982C9.5301 15.2482 9.7201 15.3482 9.8801 15.4982C10.0201 15.6382 9.9601 15.8782 9.7801 16.0282C9.5101 16.2482 9.2501 16.4782 8.9801 16.7082C8.9701 16.7182 8.9601 16.7382 8.9501 16.7582C8.9901 16.7682 9.0201 16.7782 9.0601 16.7882C9.3501 16.8082 9.5901 16.9382 9.8201 17.1082C9.9101 17.1782 10.0201 17.2382 10.0801 17.3182C10.2001 17.4682 10.1801 17.5182 10.0601 17.6782C9.8501 17.9582 9.5801 18.1882 9.2901 18.3782C9.0201 18.5682 8.7301 18.7382 8.4601 18.9282C8.3301 19.0082 8.2101 19.0982 8.0801 19.1982C8.0301 19.2382 7.9801 19.2682 7.9401 19.2982C7.7701 19.2382 7.6401 19.1482 7.5201 19.0082C7.4501 18.9182 7.3601 18.8382 7.3001 18.7282C7.2501 18.6382 7.2301 18.5582 7.2501 18.4582C7.3201 18.0282 7.4001 17.5882 7.4601 17.1582C7.5301 16.6482 7.5801 16.1382 7.6401 15.6182C7.6401 15.5082 7.6101 15.3882 7.6001 15.2682ZM9.0501 17.3482C9.0501 17.3382 9.0401 17.3182 9.0401 17.3082C8.9501 17.3182 8.8601 17.3282 8.7701 17.3482C8.6101 17.3882 8.4501 17.4282 8.2901 17.4682C8.2501 17.4782 8.1901 17.5082 8.1901 17.5482C8.1601 17.7082 8.1301 17.8682 8.1001 18.0482C8.4801 17.8682 8.7601 17.5982 9.0501 17.3482ZM8.2701 16.1782C8.5101 15.9682 8.7301 15.7782 8.9601 15.5782C8.9501 15.5682 8.9401 15.5482 8.9301 15.5382C8.6401 15.4882 8.3901 15.6282 8.1101 15.6882C8.1701 15.8482 8.2201 15.9982 8.2701 16.1782Z" fill="black"/>
<path d="M9.93997 12.6482C9.87997 12.6682 9.83997 12.6782 9.80997 12.6882C9.71997 12.7082 9.63997 12.7282 9.55997 12.6382C9.51997 12.5882 9.43997 12.5882 9.38997 12.5482C9.21997 12.4282 9.13997 12.2582 9.04997 12.0782C9.02997 12.0482 9.01997 12.0182 9.00997 11.9882C8.99997 11.9882 8.98997 11.9882 8.97997 11.9882C8.95997 12.0682 8.91997 12.1482 8.91997 12.2282C8.90997 12.3982 8.91997 12.5682 8.91997 12.7382C8.92997 12.9082 8.93997 13.0882 8.95997 13.2582C8.97997 13.4182 9.02997 13.5782 9.02997 13.7382C9.01997 13.9682 8.98997 14.1982 8.94997 14.4182C8.93997 14.4882 8.82997 14.5382 8.76997 14.5982C8.69997 14.5582 8.65997 14.5282 8.60997 14.4882C8.54997 14.4482 8.48997 14.4182 8.40997 14.4682C8.33997 14.5182 8.27997 14.4982 8.23997 14.4582C8.22997 14.3382 8.21997 14.2382 8.21997 14.1382C8.21997 14.1082 8.21997 14.0682 8.22997 14.0482C8.33997 13.8382 8.30997 13.6182 8.31997 13.3982C8.32997 12.9982 8.31997 12.5982 8.33997 12.1982C8.34997 11.9782 8.38997 11.7582 8.40997 11.5382C8.40997 11.4882 8.39997 11.4382 8.39997 11.3882C8.40997 11.1882 8.41997 10.9982 8.43997 10.7982V10.7882C8.51997 10.6682 8.65997 10.7182 8.75997 10.6782C8.78997 10.6682 8.85997 10.7182 8.87997 10.7582C8.91997 10.8182 8.92997 10.8882 8.95997 10.9482C9.00997 11.0382 9.05997 11.1282 9.10997 11.2082C9.22997 11.3982 9.34997 11.5782 9.48997 11.7982C9.57997 11.5882 9.65997 11.4182 9.73997 11.2482C9.81997 11.0882 9.88997 10.9082 10.01 10.7782C10.08 10.6982 10.23 10.7082 10.35 10.6782C10.37 10.6782 10.39 10.6882 10.41 10.6782C10.59 10.5782 10.71 10.7082 10.81 10.8082C10.93 10.9182 10.95 11.0782 10.9 11.2382C10.89 11.2582 10.9 11.2782 10.9 11.2982C10.91 11.6982 10.93 12.0882 10.92 12.4882C10.91 12.9682 10.87 13.4382 10.85 13.9182C10.84 14.1182 10.84 14.3082 10.83 14.5082C10.82 14.6482 10.6 14.8082 10.47 14.7882C10.33 14.7582 10.19 14.7482 10.06 14.6982C9.99997 14.6782 9.92997 14.5982 9.90997 14.5382C9.87997 14.3982 9.87997 14.2382 9.86997 14.0882C9.85997 13.9882 9.84997 13.8882 9.85997 13.7782C9.87997 13.4582 9.90997 13.1382 9.93997 12.8182C9.93997 12.7782 9.93997 12.7282 9.93997 12.6482Z" fill="black"/>
<path d="M15.71 5.86815C15.7 5.84815 15.68 5.82815 15.66 5.80815C15.67 5.72815 15.76 5.71815 15.9 5.74815C16 5.69815 16.1 5.62815 16.21 5.59815C16.3 5.56815 16.4 5.56815 16.5 5.56815C16.6 5.56815 16.7 5.54815 16.79 5.56815C16.92 5.59815 17.07 5.64815 17.18 5.72815C17.34 5.84815 17.49 5.98815 17.57 6.17815C17.64 6.36815 17.62 6.46815 17.47 6.60815C17.44 6.63815 17.41 6.67815 17.4 6.72815C17.33 6.94815 17.17 7.07815 16.98 7.16815C16.92 7.19815 16.86 7.24815 16.81 7.28815C16.74 7.34815 16.66 7.39815 16.59 7.46815C16.54 7.51815 16.5 7.57815 16.46 7.62815C16.49 7.65815 16.49 7.67815 16.51 7.67815C16.67 7.71815 16.78 7.84815 16.88 7.95815C17 8.08815 17.13 8.20815 17.2 8.38815C17.26 8.53815 17.39 8.65815 17.49 8.78815C17.66 9.00815 17.82 9.23815 17.87 9.51815C17.89 9.61815 17.94 9.70815 17.95 9.79815C17.97 9.95815 17.92 9.97815 17.78 10.0382C17.62 10.1082 17.49 10.0282 17.34 10.0282C17.2 10.0282 17.19 9.87815 17.14 9.78815C16.93 9.44815 16.88 9.02815 16.64 8.68815C16.5 8.49815 16.4 8.27815 16.28 8.07815C16.24 8.01815 16.19 7.97815 16.13 7.90815C16.06 8.05815 16.07 8.19815 16.13 8.28815C16.3 8.53815 16.24 8.81815 16.26 9.08815C16.27 9.32815 16.27 9.55815 16.24 9.79815C16.21 9.96815 16.1 10.0482 15.97 10.0882C15.84 10.1282 15.69 10.1282 15.59 9.99815C15.58 9.98815 15.58 9.97815 15.57 9.96815C15.39 9.87815 15.4 9.73815 15.46 9.56815C15.54 9.34815 15.52 9.12815 15.53 8.89815C15.54 8.53815 15.53 8.18815 15.53 7.82815C15.53 7.69815 15.53 7.55815 15.54 7.42815C15.57 7.01815 15.61 6.60815 15.65 6.19815C15.62 6.10815 15.67 5.99815 15.71 5.86815ZM16.16 6.97815C16.51 6.80815 16.82 6.40815 16.93 6.00815C16.89 5.98815 16.85 5.96815 16.82 5.93815C16.74 5.85815 16.61 5.82815 16.51 5.87815C16.4 5.93815 16.28 5.98815 16.16 6.04815C16.16 6.34815 16.16 6.65815 16.16 6.97815Z" fill="black"/>
<path d="M10.31 9.03815C10.38 8.82815 10.46 8.63815 10.51 8.44815C10.62 8.01815 10.72 7.58815 10.83 7.15815C10.89 6.91815 10.98 6.67815 11.04 6.43815C11.07 6.29815 11.08 6.15815 11.09 6.01815C11.1 5.85815 11.12 5.83815 11.29 5.83815C11.34 5.83815 11.39 5.82815 11.45 5.82815C11.44 5.94815 11.71 5.93815 11.57 6.10815C11.6 6.16815 11.63 6.22815 11.64 6.28815C11.65 6.32815 11.65 6.38815 11.63 6.42815C11.6 6.51815 11.56 6.59815 11.52 6.70815C11.58 6.70815 11.62 6.70815 11.66 6.70815C11.74 6.83815 11.75 6.98815 11.73 7.12815C11.71 7.28815 11.69 7.43815 11.67 7.59815C11.64 7.77815 11.59 7.94815 11.56 8.12815C11.52 8.34815 11.51 8.56815 11.46 8.78815C11.42 8.94815 11.37 9.11815 11.29 9.26815C11.19 9.45815 11.08 9.63815 10.96 9.81815C10.81 10.0482 10.42 10.1282 10.18 9.93815C9.93998 9.74815 9.73998 9.53815 9.61998 9.24815C9.56998 9.13815 9.52998 9.04815 9.47998 8.95815C9.35998 8.70815 9.32998 8.42815 9.29998 8.15815C9.28998 7.96815 9.24998 7.77815 9.23998 7.59815C9.22998 7.28815 9.23998 6.98815 9.24998 6.67815C9.25998 6.41815 9.29998 6.16815 9.32998 5.91815C9.33998 5.87815 9.36998 5.81815 9.39998 5.80815C9.42998 5.79815 9.48998 5.82815 9.52998 5.84815C9.57998 5.87815 9.62998 5.92815 9.67998 5.95815C9.82998 6.04815 9.82998 6.21815 9.86998 6.34815C9.91998 6.52815 9.95998 6.70815 9.97998 6.88815C10.02 7.21815 10.03 7.55815 10.06 7.88815C10.07 7.97815 10.09 8.07815 10.1 8.16815C10.15 8.42815 10.19 8.68815 10.24 8.94815C10.25 8.97815 10.27 8.99815 10.31 9.03815Z" fill="black"/>
<path d="M8.72017 7.04815C8.79017 7.00815 8.82017 6.98815 8.86017 6.96815C8.98017 7.11815 8.96017 7.27815 8.89017 7.43815C8.87017 7.46815 8.85017 7.50815 8.86017 7.54815C8.91017 7.75815 8.84017 7.94815 8.76017 8.13815C8.72017 8.24815 8.69017 8.35815 8.66017 8.46815C8.63017 8.63815 8.55017 8.77815 8.43017 8.89815C8.38017 8.95815 8.37017 9.00815 8.43017 9.06815C8.57017 9.22815 8.70017 9.39815 8.83017 9.55815C8.85017 9.58815 8.88017 9.62815 8.87017 9.64815C8.86017 9.70815 8.84017 9.78815 8.80017 9.80815C8.70017 9.86815 8.44017 9.77815 8.37017 9.67815C8.31017 9.57815 8.24017 9.48815 8.18017 9.39815C8.14017 9.34815 8.09017 9.32815 8.03017 9.38815C7.95017 9.45815 7.86017 9.52815 7.77017 9.58815C7.48017 9.79815 7.14017 9.72815 6.90017 9.49815C6.76017 9.36815 6.61017 9.22815 6.50017 9.07815C6.42017 8.97815 6.39017 8.83815 6.34017 8.71815C6.30017 8.60815 6.25017 8.50815 6.24017 8.39815C6.21017 8.16815 6.19017 7.93815 6.17017 7.70815C6.17017 7.61815 6.20017 7.52815 6.19017 7.44815C6.18017 7.08815 6.37017 6.79815 6.54017 6.50815C6.65017 6.31815 6.76017 6.12815 6.89017 5.95815C7.05017 5.75815 7.26017 5.63815 7.52017 5.62815C7.63017 5.61815 7.73017 5.55815 7.83017 5.53815C7.93017 5.52815 8.04017 5.53815 8.15017 5.53815C8.15017 5.60815 8.15017 5.63815 8.15017 5.69815C8.30017 5.62815 8.42017 5.62815 8.52017 5.75815C8.60017 5.85815 8.54017 5.92815 8.47017 6.02815C8.54017 6.08815 8.60017 6.14815 8.67017 6.19815C8.73017 6.23815 8.76017 6.26815 8.74017 6.33815C8.71017 6.40815 8.72017 6.48815 8.71017 6.56815C8.75017 6.56815 8.79017 6.57815 8.83017 6.57815C8.85017 6.47815 8.89017 6.37815 8.90017 6.27815C8.91017 6.18815 8.83017 6.12815 8.70017 6.13815C8.68017 6.11815 8.65017 6.09815 8.63017 6.07815C8.62017 6.05815 8.60017 6.02815 8.59017 6.01815C8.62017 5.97815 8.66017 5.92815 8.71017 5.85815C8.74017 5.87815 8.79017 5.89815 8.84017 5.91815C8.82017 5.96815 8.80017 6.00815 8.79017 6.04815C8.99017 6.08815 8.95017 6.28815 9.01017 6.41815C9.02017 6.43815 9.01017 6.47815 9.00017 6.50815C8.93017 6.63815 8.85017 6.76815 8.77017 6.89815C8.75017 6.93815 8.74017 6.97815 8.72017 7.04815ZM7.22017 9.10815C7.33017 8.97815 7.44017 8.85815 7.55017 8.73815C7.62017 8.66815 7.61017 8.61815 7.57017 8.53815C7.53017 8.45815 7.49017 8.36815 7.47017 8.27815C7.46017 8.17815 7.53017 8.14815 7.62017 8.19815C7.68017 8.23815 7.75017 8.25815 7.80017 8.27815C7.85017 8.09815 7.89017 7.93815 7.94017 7.77815C8.05017 7.40815 8.13017 7.03815 8.12017 6.64815C8.12017 6.46815 8.06017 6.30815 7.97017 6.15815C7.88017 6.02815 7.65017 5.90815 7.52017 5.94815C7.37017 5.99815 7.20017 6.01815 7.13017 6.21815C7.09017 6.36815 7.00017 6.51815 6.92017 6.66815C6.90017 6.72815 6.86017 6.77815 6.84017 6.83815C6.81017 6.91815 6.81017 7.00815 6.77017 7.08815C6.69017 7.25815 6.61017 7.40815 6.67017 7.59815C6.69017 7.63815 6.67017 7.69815 6.67017 7.73815C6.70017 7.90815 6.72017 8.08815 6.76017 8.25815C6.79017 8.38815 6.84017 8.50815 6.90017 8.62815C6.97017 8.76815 7.05017 8.90815 7.14017 9.03815C7.15017 9.06815 7.18017 9.07815 7.22017 9.10815Z" fill="black"/>
<path d="M12.0501 17.2282C12.0301 17.8382 11.9701 18.3582 11.7901 18.8482C11.7201 19.0482 11.6101 19.2682 11.3801 19.3282C11.2401 19.3682 11.0701 19.3782 10.9301 19.3282C10.8201 19.2982 10.7301 19.1682 10.6401 19.0782C10.4401 18.8582 10.3101 18.6082 10.2401 18.3282C10.2101 18.2282 10.2101 18.1082 10.2201 17.9982C10.2501 17.6682 10.2801 17.3382 10.3301 17.0182C10.3901 16.5582 10.5001 16.1082 10.7001 15.6782C10.7701 15.5382 10.8401 15.3882 11.0201 15.3482C11.0601 15.3382 11.1001 15.3282 11.1301 15.3382C11.2801 15.3782 11.4301 15.4082 11.5601 15.4782C11.6401 15.5182 11.7101 15.6082 11.7601 15.6982C11.8101 15.7882 11.8301 15.8982 11.8701 15.9982C11.9601 16.2182 11.9801 16.4382 12.0001 16.6682C12.0001 16.8882 12.0301 17.0982 12.0501 17.2282ZM10.9201 18.2682C11.0501 17.9582 11.1901 16.3682 11.1101 16.2382C11.0401 16.8582 10.9101 17.4682 10.8901 18.0982C10.8901 18.1582 10.9101 18.2182 10.9201 18.2682Z" fill="black"/>
<path d="M12.9901 15.4581C13.0601 15.4781 13.1201 15.4981 13.1901 15.5081C13.2301 15.5181 13.2701 15.5281 13.3101 15.5281C13.6501 15.5081 13.8601 15.7981 13.9301 16.0581C13.9701 16.2181 13.9601 16.3881 14.0101 16.5381C14.1101 16.8281 14.0601 17.1181 14.1001 17.4081C14.1301 17.6481 14.0601 17.8781 14.0301 18.1081C13.9901 18.3781 13.9601 18.6581 13.8201 18.8881C13.7301 19.0381 13.6001 19.1681 13.4701 19.2981C13.3701 19.3981 13.2201 19.3681 13.1101 19.3181C12.7801 19.1681 12.5801 18.8981 12.4501 18.5581C12.3101 18.1981 12.3701 17.8281 12.3901 17.4681C12.4101 17.0081 12.5101 16.5581 12.6601 16.1181C12.7001 16.0081 12.7101 15.8881 12.7301 15.7781C12.7401 15.7381 12.7601 15.6981 12.7801 15.6781C12.8501 15.6081 12.9301 15.5481 13.0001 15.4781C12.9901 15.4881 12.9901 15.4781 12.9901 15.4581ZM13.1401 17.7781C13.2801 17.4881 13.2201 17.1781 13.2201 16.8681C13.0701 17.1581 13.2001 17.4781 13.1401 17.7781Z" fill="black"/>
<path d="M12.5001 11.1482C12.5501 11.1682 12.6101 11.1782 12.6401 11.2182C12.8001 11.3982 12.9701 11.5782 13.1201 11.7682C13.3101 12.0082 13.4901 12.2682 13.5901 12.5582C13.6301 12.6782 13.7101 12.7882 13.7901 12.8982C13.9101 12.3082 13.9701 11.7282 14.0301 11.1382C14.0701 11.1382 14.1101 11.1182 14.1301 11.1282C14.2301 11.1982 14.3501 11.2482 14.4201 11.3382C14.4801 11.4182 14.5001 11.5382 14.5201 11.6482C14.5401 11.7782 14.4901 11.9382 14.5401 12.0482C14.6101 12.2082 14.5901 12.3582 14.5901 12.5082C14.5901 12.6882 14.5701 12.8682 14.5501 13.0482C14.5101 13.2982 14.4601 13.5482 14.4201 13.8082C14.4001 13.9282 14.4201 14.0582 14.4201 14.1782C14.4201 14.3782 14.3101 14.4882 14.0801 14.5082C14.0401 14.5082 14.0001 14.5182 13.9701 14.5182C13.7501 14.4182 13.6401 14.2282 13.5601 14.0182C13.5101 13.8882 13.4801 13.7582 13.4501 13.6282C13.3601 13.2182 13.1801 12.8482 13.0101 12.4782C13.0001 12.4682 12.9901 12.4582 12.9601 12.4382C12.9601 12.5182 12.9701 12.5882 12.9601 12.6582C12.9001 13.0082 12.9901 13.3582 12.9901 13.6982C12.9901 13.8882 12.9901 14.0882 12.9701 14.2782C12.9601 14.3382 12.9001 14.3982 12.8901 14.4182C12.6601 14.5082 12.5301 14.3782 12.4001 14.2582C12.3601 14.2182 12.3301 14.1382 12.3301 14.0782C12.3301 13.7982 12.3401 13.5182 12.3501 13.2482C12.3501 13.0982 12.3601 12.9482 12.3701 12.7982C12.3801 12.6082 12.4001 12.4182 12.4101 12.2282C12.4201 11.9982 12.4301 11.7682 12.4401 11.5382C12.4601 11.4282 12.4801 11.3082 12.5001 11.1482Z" fill="black"/>
<path d="M15.18 17.9581C15.26 18.2281 15.14 18.4781 15.11 18.7381C15.09 18.8481 15.08 18.9681 15.07 19.0781C15.06 19.1581 15.07 19.2381 15.06 19.3181C15.04 19.4581 14.96 19.5181 14.82 19.5081C14.73 19.4981 14.63 19.4781 14.54 19.4581C14.47 19.3681 14.4 19.2781 14.35 19.1781C14.32 19.1181 14.33 19.0381 14.33 18.9681C14.33 18.8681 14.35 18.7681 14.36 18.6681C14.41 18.2781 14.47 17.8781 14.52 17.4881C14.56 17.1881 14.59 16.8881 14.6 16.5881C14.62 16.2781 14.62 15.9681 14.63 15.6581C14.64 15.5681 14.68 15.4781 14.71 15.3981C14.89 15.3981 14.97 15.4681 15.01 15.6181C15.08 15.8481 15.17 16.0781 15.25 16.3081C15.27 16.3681 15.28 16.4281 15.3 16.5181C15.59 16.2781 15.87 16.0481 16.15 15.8281C16.3 15.8581 16.43 15.9081 16.5 16.0381C16.58 16.1781 16.58 16.2881 16.48 16.4181C16.4 16.5181 16.3 16.5981 16.2 16.6881C16.06 16.8081 15.91 16.9281 15.77 17.0381C15.66 17.1281 15.55 17.1981 15.46 17.2981C15.33 17.4581 15.36 17.5481 15.53 17.6581C15.91 17.9081 16.22 18.2281 16.42 18.6381C16.46 18.7181 16.5 18.7881 16.54 18.8681C16.61 19.0481 16.59 19.1581 16.42 19.2081C16.39 19.2181 16.36 19.2381 16.32 19.2581C16.06 19.1881 15.91 18.9981 15.78 18.7781C15.62 18.5081 15.45 18.2481 15.28 17.9881C15.26 17.9581 15.22 17.9381 15.2 17.9081C15.2 17.9481 15.19 17.9581 15.18 17.9581Z" fill="black"/>
<path d="M17.2602 12.3481C17.4102 12.1481 17.3302 11.9781 17.2702 11.8281C17.2302 11.7281 17.1402 11.6281 17.0602 11.5481C16.9602 11.4581 16.8602 11.4881 16.7902 11.5981C16.7502 11.6681 16.7102 11.7481 16.6702 11.8181C16.5702 11.9681 16.6502 12.2981 16.7302 12.4081C16.7602 12.4381 16.8002 12.4681 16.8302 12.4781C16.9602 12.5081 17.0902 12.5281 17.2102 12.5581C17.3402 12.5881 17.4602 12.6381 17.5802 12.6781C17.6602 12.6981 17.7302 12.7181 17.8102 12.7481C18.2702 12.9481 18.4702 13.3781 18.3502 13.8781C18.2402 14.3581 17.9102 14.6781 17.3902 14.7181C17.2502 14.7281 17.1202 14.7581 16.9702 14.7181C16.7702 14.6681 16.6602 14.5181 16.5202 14.4081C16.4602 14.3581 16.4002 14.3081 16.3502 14.2481C16.3202 14.2181 16.2902 14.1781 16.2802 14.1281C16.2702 14.0981 16.2802 14.0481 16.3002 14.0381C16.3202 14.0181 16.3702 14.0181 16.3902 14.0281C16.8202 14.1781 17.2502 13.9481 17.3602 13.5181C17.4002 13.3781 17.4202 13.2481 17.3402 13.1081C17.3002 13.0381 17.2502 13.0081 17.1702 12.9881C16.9902 12.9481 16.8202 12.8981 16.6502 12.8481C16.6002 12.8281 16.5602 12.7881 16.5202 12.7381C16.4002 12.5981 16.2602 12.4781 16.1802 12.3181C16.1002 12.1681 16.0702 11.9881 16.1102 11.8081C16.1202 11.7581 16.1302 11.7081 16.1302 11.6581C16.1202 11.5181 16.2202 11.4481 16.3102 11.3881C16.4602 11.2981 16.6202 11.2181 16.7802 11.1381C17.0402 10.9981 17.3802 11.0581 17.5802 11.2681C17.7802 11.4881 17.8202 11.7581 17.8802 12.0181C17.9302 12.2281 17.7002 12.4281 17.4902 12.3781C17.4402 12.3581 17.3602 12.3581 17.2602 12.3481Z" fill="black"/>
<path d="M18.6802 16.3481C18.6202 16.4881 18.6202 16.6581 18.4502 16.7181C18.3902 16.7381 18.3202 16.7381 18.2502 16.7481C18.2502 16.6081 18.2102 16.5281 18.1002 16.4881C18.0902 16.4781 18.0702 16.4681 18.0602 16.4581C17.9502 16.2581 17.7402 16.2781 17.5602 16.2681C17.4202 16.2581 17.3902 16.3981 17.3502 16.4981C17.2602 16.7181 17.3802 16.9281 17.6202 16.9681C17.7602 16.9881 17.9102 16.9981 18.0402 17.0381C18.2502 17.1181 18.4802 17.1881 18.6602 17.3181C18.8402 17.4481 18.9602 17.6581 18.9902 17.8781C19.0302 18.1481 19.0102 18.4181 18.8102 18.6381C18.7402 18.7181 18.6902 18.8281 18.6102 18.8981C18.3602 19.1381 18.0702 19.2281 17.7302 19.1581C17.6702 19.1481 17.6102 19.1481 17.5702 19.1381C17.3902 18.9881 17.2202 18.8481 17.0702 18.6881C16.9202 18.5381 16.8002 18.3581 16.6602 18.1981C16.6902 18.0981 16.7502 18.0781 16.8402 18.1281C16.9402 18.1881 17.0402 18.2581 17.1402 18.3281C17.2802 18.4281 17.5802 18.4081 17.7002 18.2681C17.8502 18.1081 17.9702 17.9181 18.0002 17.6981C18.0202 17.5281 17.9802 17.4281 17.7802 17.4481C17.5102 17.4681 17.3002 17.3481 17.1202 17.1581C16.9602 16.9981 16.7802 16.8481 16.7502 16.5981C16.7402 16.5081 16.7302 16.4181 16.7202 16.3181C16.9402 16.2881 17.1002 16.1281 17.2702 16.0081C17.4002 15.9181 17.5802 15.8881 17.7302 15.8381C17.7802 15.8181 17.8402 15.8281 17.8902 15.8181C18.0502 15.7781 18.1902 15.8681 18.3202 15.9281C18.4202 15.9781 18.5102 16.0681 18.5902 16.1481C18.6402 16.1981 18.6502 16.2781 18.6802 16.3481Z" fill="black"/>
<path d="M11.8801 9.52814C11.8501 9.47814 11.8101 9.43814 11.7901 9.38814C11.7001 9.07814 11.6801 8.75814 11.7201 8.43814C11.7701 7.99814 11.8301 7.56814 11.8801 7.12814C11.9101 6.86814 11.9101 6.60814 11.9101 6.33814C11.9101 6.06814 11.9801 5.99814 12.2601 5.97814C12.4701 5.95814 12.6801 5.91814 12.8901 5.89814C13.0901 5.87814 13.2901 5.87814 13.4901 5.87814C13.5601 5.87814 13.6401 5.91814 13.6901 5.96814C13.7301 6.00814 13.7701 6.08814 13.7601 6.13814C13.7401 6.24814 13.6501 6.30814 13.5401 6.32814C13.4001 6.35814 13.2701 6.38814 13.1401 6.40814C13.1001 6.41814 13.0601 6.42814 13.0201 6.41814C12.8401 6.37814 12.6601 6.32814 12.4801 6.27814C12.5001 6.23814 12.5201 6.20814 12.5501 6.14814C12.4901 6.18814 12.4501 6.20814 12.3901 6.24814C12.4201 6.31814 12.4301 6.39814 12.4801 6.46814C12.6101 6.66814 12.6701 6.87814 12.6401 7.12814C12.6101 7.43814 12.6101 7.74814 12.5901 8.05814C12.5901 8.09814 12.6001 8.13814 12.6101 8.19814C12.6701 8.19814 12.7101 8.19814 12.7601 8.19814C12.8201 8.19814 12.8701 8.18814 12.9301 8.18814C12.9601 8.18814 13.0101 8.21814 13.0201 8.24814C13.0301 8.27814 13.0201 8.34814 12.9901 8.36814C12.8901 8.44814 12.7901 8.50814 12.6901 8.57814C12.6601 8.59814 12.6101 8.63814 12.6101 8.66814C12.5801 8.91814 12.5601 9.16814 12.6001 9.44814C12.9001 9.30814 13.1301 9.47814 13.3701 9.54814C13.4001 9.71814 13.3601 9.79814 13.2201 9.85814C13.1601 9.87814 13.1001 9.90814 13.0501 9.93814C12.8401 10.0581 12.6101 10.0481 12.4001 9.98814C12.1601 9.91814 12.0201 9.72814 11.8801 9.52814Z" fill="black"/>
<path d="M15.0601 9.92814C14.9801 9.89814 14.9301 9.88814 14.8801 9.86814C14.8701 9.87814 14.8701 9.88814 14.8601 9.90814C14.8801 9.93814 14.9001 9.95814 14.9301 9.99814C14.8801 10.0281 14.8201 10.0781 14.7701 10.0881C14.5401 10.1181 14.3201 10.0781 14.1401 9.91814C14.0401 9.82814 13.9301 9.72814 13.8501 9.61814C13.7901 9.52814 13.7401 9.41814 13.7301 9.30814C13.7101 9.14814 13.7301 8.97814 13.7301 8.80814C13.7301 8.74814 13.7301 8.69814 13.7301 8.63814C13.7501 8.32814 13.7801 8.01814 13.8001 7.71814C13.8101 7.52814 13.8101 7.33814 13.8101 7.14814C13.8101 7.08814 13.8301 7.02814 13.8401 6.96814C13.8601 6.79814 13.8701 6.62814 13.8901 6.45814C13.9001 6.33814 13.8901 6.20814 13.9301 6.09814C13.9501 6.03814 14.0201 5.96814 14.0801 5.94814C14.3401 5.88814 14.6001 5.80814 14.8801 5.85814C15.0201 5.87814 15.0601 5.94814 14.9901 6.07814C14.9701 6.11814 14.9501 6.15814 14.9301 6.19814C14.6801 6.32814 14.5401 6.29814 14.4001 6.07814C14.3801 6.11814 14.3601 6.13814 14.3701 6.15814C14.4001 6.24814 14.4401 6.32814 14.4601 6.40814C14.5001 6.55814 14.5601 6.69814 14.5701 6.84814C14.6001 7.05814 14.6201 7.26814 14.5801 7.47814C14.5501 7.66814 14.5701 7.85814 14.5701 8.04814C14.7601 8.08814 14.9401 8.12814 15.1201 8.16814C15.1801 8.36814 15.1301 8.42814 14.8901 8.46814C14.8301 8.47814 14.7701 8.45814 14.7001 8.44814C14.6501 8.44814 14.6101 8.44814 14.5801 8.44814C14.5501 8.72814 14.5101 8.98814 14.4901 9.24814C14.4701 9.43814 14.5401 9.48814 14.7201 9.42814C14.8701 9.37814 15.1301 9.47814 15.2001 9.62814C15.2201 9.66814 15.2001 9.73814 15.1801 9.77814C15.1601 9.85814 15.1001 9.89814 15.0601 9.92814Z" fill="black"/>
<path d="M18.4201 11.4782C18.6501 11.4782 18.8801 11.4782 19.1101 11.4782C19.3201 11.4682 19.5201 11.4582 19.7301 11.4482C19.9701 11.4282 20.2101 11.3982 20.4501 11.3882C20.6201 11.3882 20.7901 11.4082 20.9301 11.5182C20.9801 11.5482 21.0101 11.6082 21.0501 11.6582C20.9001 11.8282 20.7801 11.9882 20.5401 11.9882C20.4001 11.9882 20.2501 12.0182 20.0901 12.0382C20.1401 12.1882 20.1701 12.3182 20.2201 12.4482C20.2901 12.6082 20.3001 12.7682 20.2801 12.9382C20.2501 13.1782 20.2401 13.4282 20.1801 13.6582C20.1101 13.8782 20.0701 14.0982 20.1001 14.3282C20.1101 14.4182 20.0801 14.5182 20.0601 14.6082C20.0401 14.6982 20.0001 14.7482 19.9001 14.7882C19.6801 14.8782 19.4701 14.7882 19.2701 14.7382C19.1701 14.7182 19.1501 14.6182 19.1601 14.5182C19.2201 14.0582 19.2801 13.6082 19.3401 13.1482C19.3801 12.8182 19.4301 12.4882 19.4701 12.1582C19.4801 12.0582 19.4401 12.0082 19.3301 11.9782C19.1101 11.9082 18.9001 11.8082 18.6901 11.7082C18.5901 11.6582 18.5001 11.5782 18.4001 11.5082C18.4101 11.4982 18.4101 11.4882 18.4201 11.4782Z" fill="black"/>
<path d="M5.57009 12.0482C5.74009 12.0182 5.92009 11.9882 6.08009 11.9582C6.25009 12.1782 6.20009 12.3582 6.06009 12.5182C5.95009 12.6482 5.78009 12.6982 5.62009 12.7282C5.58009 12.7382 5.54009 12.7381 5.49009 12.7481C5.49009 13.1981 5.31009 13.6082 5.20009 14.0282C5.03009 14.0482 4.87009 14.0582 4.72009 13.9682C4.63009 13.9182 4.58009 13.7981 4.60009 13.6981C4.67009 13.3281 4.73009 12.9482 4.80009 12.5682C4.64009 12.4982 4.51009 12.4382 4.37009 12.3882C4.45009 12.1682 4.65009 12.2181 4.82009 12.1981C4.83009 12.1481 4.84009 12.0881 4.85009 12.0381C4.89009 11.7581 4.92009 11.4682 4.95009 11.1882C4.96009 11.1082 4.97009 11.0281 4.97009 10.9481C4.97009 10.9181 4.94009 10.8782 4.91009 10.8582C4.80009 10.8082 4.69009 10.7781 4.57009 10.7381C4.48009 10.7081 4.36009 10.5881 4.34009 10.4481C4.44009 10.4381 4.54009 10.4182 4.63009 10.4182C4.88009 10.4182 5.13009 10.4082 5.38009 10.4282C5.67009 10.4582 5.94009 10.4082 6.21009 10.3482C6.33009 10.3182 6.46009 10.2982 6.56009 10.3882C6.51009 10.5182 6.46009 10.6281 6.40009 10.7381C6.32009 10.8781 6.20009 10.9682 6.02009 10.9582C5.89009 10.9482 5.77009 10.9482 5.64009 10.9582C5.59009 10.9582 5.54009 10.9781 5.52009 10.9881C5.55009 11.3681 5.56009 11.7082 5.57009 12.0482Z" fill="black"/>
<path d="M7.33002 13.9881C7.61002 13.8681 7.78002 14.0381 7.95002 14.2181C7.81002 14.5181 7.59002 14.6481 7.21002 14.5281C7.10002 14.4981 6.98002 14.4581 6.91002 14.3881C6.79002 14.2681 6.67002 14.1181 6.62002 13.9681C6.53002 13.6381 6.54002 13.2881 6.59002 12.9381C6.64002 12.5781 6.64002 12.2081 6.68002 11.8381C6.71002 11.5781 6.76002 11.3181 6.79002 11.0581C6.80002 10.9381 6.79002 10.8181 6.79002 10.6681C6.85002 10.5681 6.98002 10.5581 7.12002 10.5681C7.35002 10.5781 7.58002 10.5681 7.81002 10.5681C7.92002 10.5681 8.02002 10.6181 8.04002 10.7181C8.05002 10.7881 8.00002 10.8781 7.96002 10.9481C7.95002 10.9881 7.88002 11.0081 7.84002 10.9981C7.67002 10.9881 7.50002 10.9781 7.31002 10.9681C7.48002 11.5581 7.40002 12.1481 7.37002 12.7581C7.43002 12.7581 7.48002 12.7581 7.52002 12.7581C7.66002 12.7681 7.75002 12.8281 7.75002 12.9281C7.76002 13.0481 7.67002 13.0981 7.58002 13.1381C7.50002 13.1781 7.42002 13.1881 7.32002 13.2281C7.31002 13.4681 7.23002 13.7081 7.33002 13.9881Z" fill="black"/>
<path d="M15.23 10.9081C15.31 10.9781 15.36 11.0381 15.43 11.0781C15.61 11.1881 15.66 11.3681 15.68 11.5581C15.69 11.6081 15.72 11.6581 15.74 11.7081C15.75 11.7381 15.78 11.7681 15.78 11.7981C15.79 11.9981 15.8 12.1981 15.79 12.3981C15.79 12.6081 15.77 12.8281 15.76 13.0381C15.74 13.3681 15.72 13.6881 15.71 14.0181C15.7 14.2081 15.71 14.4081 15.71 14.5981C15.71 14.6381 15.66 14.6981 15.62 14.7081C15.26 14.8081 14.99 14.5781 14.96 14.1981C14.92 13.7181 15.01 13.2381 15.05 12.7581C15.08 12.3981 15.13 12.0481 15.15 11.6881C15.16 11.4681 15.15 11.2481 15.15 11.0381C15.13 10.9581 15.14 10.8981 15.23 10.9081Z" fill="black"/>
<path d="M11.7902 14.5181C11.7002 14.5481 11.6302 14.5681 11.5502 14.5981C11.4602 14.5181 11.3602 14.4281 11.2602 14.3281C11.2202 14.2881 11.2102 14.2181 11.2102 14.1681C11.2102 13.8581 11.2202 13.5481 11.2302 13.2381C11.2402 12.8981 11.2402 12.5681 11.2602 12.2281C11.2702 11.9581 11.3002 11.6981 11.3302 11.4381C11.3402 11.3281 11.3502 11.2181 11.3502 11.0981C11.5402 11.0581 11.7402 11.2081 11.7602 11.3981C11.8002 11.7581 11.8002 12.1181 11.7402 12.4781C11.7202 12.6281 11.7502 12.7781 11.7502 12.9281C11.7602 13.1481 11.7702 13.3581 11.7802 13.5781C11.7902 13.7881 11.8002 14.0081 11.8102 14.2181C11.8102 14.3181 11.7902 14.4181 11.7902 14.5181Z" fill="black"/>
</svg>
