<svg width="24" height="25" viewBox="0 0 24 25" fill="none" xmlns="http://www.w3.org/2000/svg">
<g clip-path="url(#clip0_128_108)">
<path d="M15.84 0.520005C15.83 0.540005 15.82 0.550005 15.82 0.570005C15.88 0.620005 15.91 0.560005 15.96 0.550005C15.97 0.560005 15.99 0.570005 16 0.580005C16.03 0.620005 16.07 0.620005 16.12 0.620005C16.31 0.610005 16.49 0.570005 16.68 0.610005C16.75 0.620005 16.82 0.610005 16.88 0.620005C16.94 0.620005 16.99 0.640005 17.05 0.650005C17.08 0.650005 17.11 0.650006 17.15 0.660006C17.23 0.740005 17.35 0.760005 17.46 0.710005C17.48 0.700005 17.51 0.700005 17.53 0.700005C17.61 0.710005 17.69 0.710006 17.77 0.720006C17.81 0.730006 17.84 0.730006 17.87 0.690005C17.91 0.650005 17.95 0.640006 18.01 0.660006C18.06 0.680005 18.11 0.690005 18.16 0.700005C18.19 0.700005 18.22 0.700005 18.24 0.680005C18.29 0.650006 18.33 0.630006 18.38 0.660006C18.41 0.670006 18.44 0.660006 18.47 0.660006C18.59 0.650006 18.71 0.650005 18.84 0.630005C18.93 0.620005 19 0.680005 19.08 0.700005C19.13 0.710005 19.17 0.720006 19.22 0.730006C19.29 0.750005 19.36 0.760005 19.43 0.780005C19.61 0.820005 19.78 0.850006 19.96 0.760005C20.09 0.690005 20.23 0.710006 20.37 0.730006C20.41 0.740005 20.46 0.730006 20.5 0.750005C20.58 0.780005 20.67 0.780005 20.75 0.780005C20.77 0.780005 20.8 0.800005 20.82 0.810005C20.88 0.860005 20.94 0.910005 21 0.960005C21.01 0.970005 21.02 0.980006 21.04 0.990005C21.16 1.05001 21.27 1.10001 21.39 1.15001C21.42 1.16001 21.45 1.17001 21.47 1.17001C21.62 1.17001 21.75 1.24001 21.87 1.33001C21.92 1.37001 21.98 1.41001 22.05 1.41001C22.08 1.41001 22.11 1.44001 22.14 1.45001C22.21 1.48001 22.27 1.54001 22.35 1.47001C22.36 1.46001 22.38 1.46001 22.39 1.46001C22.49 1.50001 22.59 1.46001 22.68 1.46001C22.72 1.49001 22.77 1.52001 22.79 1.55001C22.84 1.63001 22.91 1.71001 22.89 1.81001C22.87 1.95001 22.88 2.08001 22.91 2.21001C22.91 2.23001 22.9 2.25001 22.9 2.27001C22.9 2.30001 22.89 2.33001 22.89 2.37001C22.89 2.47001 22.9 2.57001 22.91 2.68001C22.91 2.78001 22.91 2.88001 22.92 2.98001C22.93 3.10001 22.94 3.21001 22.94 3.32001C22.94 3.40001 22.94 3.49001 22.94 3.57001C22.94 3.72001 22.94 3.87001 22.95 4.02001C22.95 4.06001 22.95 4.10001 22.96 4.14001C22.97 4.26001 22.98 4.37001 22.99 4.49001C23 4.59001 23 4.70001 23 4.80001C23 4.88001 23 4.96001 23.09 5.01001C23.1 5.02001 23.11 5.04001 23.11 5.05001C23.12 5.16001 23.13 5.26001 23.09 5.36001C23.07 5.40001 23.06 5.44001 23.06 5.49001C23 5.66001 23.03 5.83001 23.06 6.00001C23.06 6.01001 23.06 6.02001 23.07 6.03001C23.13 6.11001 23.1 6.19001 23.09 6.27001C23.08 6.40001 23.08 6.52001 23.08 6.65001C23.08 6.88001 23.1 7.10001 23.05 7.33001C23.05 7.35001 23.05 7.36001 23.05 7.38001C23.06 7.43001 23.05 7.48001 23.01 7.52001C22.98 7.56001 22.97 7.60001 22.99 7.65001C23 7.67001 23 7.70001 23 7.72001C23 7.78001 23 7.85001 23.02 7.92001C23.04 7.86001 23.06 7.80001 23.08 7.72001C23.13 7.78001 23.11 7.83001 23.11 7.88001C23.11 7.93001 23.12 7.98001 23.06 8.01001C23.04 8.02001 23.02 8.05 23.02 8.07001C23.02 8.14001 23.02 8.22001 23.03 8.29001C23.03 8.31001 23.05 8.35001 23.06 8.36001C23.14 8.40001 23.1 8.45001 23.1 8.50001C23.09 8.50001 23.09 8.50001 23.08 8.51001C23.07 8.49001 23.07 8.46001 23.06 8.44001C23.05 8.45001 23.04 8.45001 23.04 8.45001C23.03 8.56001 23 8.67001 23 8.78001C23 8.87001 23.01 8.96001 23.05 9.03001C23.13 9.22001 23.14 9.25001 23.13 9.45001C23.13 9.49001 23.11 9.52001 23.1 9.56001C23.07 9.64001 23.05 9.71001 23.12 9.78001C23.15 9.81001 23.15 9.86001 23.14 9.90001C23.13 9.94001 23.13 9.97001 23.15 10.01C23.18 10.11 23.18 10.22 23.17 10.33C23.17 10.37 23.16 10.41 23.16 10.45C23.16 10.53 23.14 10.61 23.08 10.67C23.05 10.7 23.05 10.75 23.03 10.79C23.09 10.82 23.14 10.84 23.14 10.9C23.14 10.93 23.13 10.97 23.09 10.96C23.02 10.97 23.01 11 23 11.05C22.99 11.22 22.99 11.4 23.03 11.57C23.06 11.7 23.07 11.83 23.13 11.95C23.14 11.96 23.13 11.98 23.14 11.99C23.23 12.15 23.18 12.32 23.19 12.48C23.19 12.5 23.19 12.52 23.18 12.54C23.13 12.69 23.08 12.85 23.02 13C22.98 13.09 22.97 13.19 22.96 13.29C22.95 13.36 22.95 13.44 22.94 13.51C22.92 13.64 22.99 13.73 23.04 13.84C23.1 13.96 23.17 14.07 23.23 14.19C23.25 14.24 23.26 14.3 23.26 14.36C23.26 14.46 23.25 14.56 23.24 14.66C23.23 14.74 23.22 14.81 23.16 14.87C23.12 14.92 23.1 15 23.08 15.06C23.07 15.1 23.07 15.14 23.05 15.17C23 15.29 22.98 15.42 22.96 15.55C22.95 15.6 22.92 15.65 22.9 15.71C23 15.76 22.99 15.84 22.98 15.93C22.98 15.96 22.98 15.98 22.98 16.01C22.98 16.18 22.97 16.34 22.97 16.51C22.97 16.77 22.99 17.02 22.99 17.28C22.99 17.49 22.99 17.7 22.96 17.91C22.94 18.05 22.93 18.2 22.91 18.34C22.9 18.48 22.88 18.62 22.87 18.75C22.87 18.78 22.87 18.8 22.87 18.83C22.9 18.97 22.87 19.11 22.85 19.24C22.84 19.28 22.85 19.33 22.84 19.38C22.83 19.54 22.84 19.71 22.79 19.87C22.78 19.91 22.78 19.96 22.78 20C22.78 20.03 22.78 20.06 22.77 20.09C22.7 20.26 22.73 20.44 22.69 20.61C22.68 20.64 22.69 20.68 22.69 20.72C22.69 20.81 22.69 20.9 22.69 20.99C22.69 21.02 22.69 21.06 22.7 21.08C22.74 21.19 22.75 21.3 22.73 21.42C22.71 21.56 22.71 21.7 22.7 21.84C22.7 21.86 22.71 21.89 22.72 21.91C22.76 22 22.79 22.08 22.77 22.18C22.76 22.22 22.77 22.26 22.77 22.31C22.77 22.39 22.77 22.46 22.73 22.53C22.71 22.56 22.71 22.6 22.71 22.64C22.71 22.83 22.67 23.01 22.61 23.19C22.59 23.25 22.57 23.32 22.56 23.39C22.55 23.46 22.51 23.52 22.48 23.55C22.34 23.6 22.23 23.64 22.11 23.68C22.11 23.72 22.11 23.76 22.11 23.81C22.11 23.86 22.11 23.9 22.11 23.95C22.12 24.07 22.06 24.16 21.95 24.19C21.92 24.2 21.89 24.19 21.87 24.17C21.79 24.11 21.69 24.12 21.59 24.1C21.55 24.09 21.51 24.08 21.47 24.08C21.41 24.08 21.36 24.09 21.3 24.09C21.26 24.09 21.23 24.1 21.19 24.1C20.97 24.08 20.76 24.14 20.55 24.18C20.41 24.21 20.27 24.25 20.12 24.24C20.06 24.24 20 24.25 19.95 24.27C19.83 24.31 19.72 24.35 19.61 24.4C19.51 24.44 19.39 24.43 19.32 24.35C19.28 24.31 19.24 24.3 19.19 24.3C19.06 24.31 18.92 24.31 18.79 24.33C18.58 24.35 18.37 24.37 18.16 24.35C18.03 24.34 17.89 24.34 17.76 24.34C17.66 24.34 17.56 24.32 17.46 24.32C17.31 24.31 17.17 24.29 17.03 24.24C17.02 24.24 17.02 24.24 17.01 24.24C16.72 24.22 16.44 24.16 16.14 24.18C16.08 24.18 16.01 24.15 15.94 24.14C15.83 24.11 15.72 24.13 15.6 24.15C15.56 24.16 15.51 24.16 15.47 24.16C15.4 24.17 15.32 24.18 15.25 24.19C15.14 24.2 15.03 24.23 14.93 24.16C14.92 24.15 14.89 24.15 14.87 24.15C14.75 24.15 14.64 24.16 14.53 24.17C14.52 24.17 14.52 24.17 14.51 24.17C14.38 24.12 14.25 24.17 14.12 24.13C14.04 24.11 13.95 24.11 13.87 24.11C13.71 24.11 13.56 24.12 13.4 24.12C13.37 24.12 13.35 24.12 13.32 24.11C13.24 24.1 13.17 24.08 13.09 24.11C13.04 24.13 12.98 24.11 12.93 24.11C12.74 24.1 12.55 24.09 12.36 24.08C12.31 24.08 12.26 24.07 12.22 24.06C12.1 24.05 11.99 24.01 11.87 24.04C11.83 24.02 11.79 24 11.75 24C11.7 24 11.64 23.99 11.6 24C11.46 24.04 11.33 24 11.2 23.96C11.09 23.92 10.98 23.92 10.87 23.92C10.82 23.92 10.77 23.92 10.73 23.88C10.72 23.87 10.69 23.86 10.68 23.87C10.55 23.88 10.43 23.85 10.31 23.82C10.3 23.82 10.3 23.81 10.29 23.81C10.17 23.83 10.05 23.77 9.93 23.76C9.9 23.76 9.87 23.77 9.84 23.77C9.8 23.77 9.76 23.78 9.73 23.77C9.65 23.74 9.57 23.76 9.49 23.77C9.47 23.77 9.45 23.78 9.44 23.79C9.39 23.86 9.31 23.86 9.23 23.85C9.22 23.83 9.2 23.8 9.19 23.77C9.08 23.77 8.98 23.75 8.87 23.78C8.84 23.79 8.8 23.79 8.76 23.79C8.56 23.77 8.36 23.78 8.16 23.79C7.92 23.8 7.68 23.79 7.45 23.8C7.2 23.81 6.96 23.78 6.71 23.75C6.56 23.73 6.4 23.73 6.25 23.72C6.14 23.72 6.04 23.69 5.93 23.73C5.91 23.74 5.88 23.72 5.86 23.71C5.74 23.66 5.62 23.63 5.49 23.63C5.42 23.63 5.36 23.62 5.29 23.6C5.2 23.58 5.11 23.57 5.02 23.57C4.88 23.56 4.74 23.57 4.6 23.56C4.43 23.55 4.27 23.53 4.11 23.48C4.08 23.47 4.05 23.47 4.01 23.47C3.98 23.47 3.94 23.47 3.91 23.46C3.85 23.44 3.8 23.44 3.73 23.46C3.64 23.49 3.55 23.49 3.46 23.51C3.42 23.52 3.37 23.52 3.33 23.54C3.23 23.59 3.12 23.58 3.02 23.6C3.01 23.6 3.01 23.6 3 23.59C3 23.51 2.94 23.47 2.89 23.42C2.82 23.36 2.75 23.31 2.67 23.26C2.64 23.24 2.61 23.2 2.6 23.17C2.57 23.11 2.54 23.1 2.5 23.1C2.45 23.1 2.4 23.08 2.35 23.08C2.33 23.08 2.31 23.08 2.29 23.09C2.24 23.1 2.2 23.1 2.17 23.06C2.12 23 2.05 22.99 1.98 23C1.94 23 1.9 23 1.86 23C1.72 23 1.65 22.96 1.6 22.83C1.58 22.79 1.57 22.76 1.52 22.74C1.5 22.73 1.49 22.71 1.47 22.7C1.44 22.68 1.41 22.66 1.39 22.67C1.35 22.68 1.33 22.66 1.31 22.64C1.26 22.59 1.2 22.55 1.17 22.5C1.13 22.41 1.12 22.3 1.06 22.21C1.1 22.14 1.05 22.08 1.04 22.02C1.03 21.98 1.03 21.94 1.04 21.9C1.07 21.72 1.06 21.53 1.03 21.35C1.03 21.32 1.02 21.3 1.02 21.27C1.02 21.21 1 21.16 0.96 21.12C0.89 21.04 0.81 20.96 0.74 20.88C0.67 20.8 0.64 20.71 0.63 20.61C0.63 20.6 0.63 20.58 0.63 20.57C0.7 20.45 0.67 20.32 0.67 20.2C0.67 20.13 0.72 20.07 0.68 20C0.67 19.99 0.68 19.97 0.67 19.95C0.59 19.81 0.62 19.66 0.59 19.52C0.57 19.43 0.55 19.35 0.53 19.27C0.48 19.1 0.44 18.92 0.39 18.75C0.38 18.72 0.37 18.69 0.36 18.66C0.35 18.62 0.34 18.58 0.33 18.54C0.32 18.5 0.31 18.46 0.3 18.41C0.3 18.39 0.28 18.38 0.29 18.36C0.3 18.27 0.26 18.19 0.23 18.11C0.19 18.06 0.19 18 0.18 17.94C0.17 17.8 0.15 17.65 0.12 17.51C0.09 17.33 0.1 17.16 0.11 16.98C0.11 16.94 0.11 16.9 0.11 16.86C0.1 16.69 0.08 16.53 0.11 16.36C0.12 16.3 0.12 16.24 0.12 16.18C0.11 16.05 0.09 15.92 0.08 15.79C0.07 15.74 0.07 15.69 0.07 15.64C0.07 15.44 0.03 15.25 0.06 15.05C0.07 14.99 0.06 14.93 0.06 14.88C0.06 14.75 0.05 14.61 0.05 14.48C0.05 14.43 0.05 14.37 0.05 14.32C0.05 14.27 0.05 14.21 0.04 14.16C0.04 14.1 0.04 14.04 0.07 13.98C0.09 13.95 0.09 13.9 0.09 13.86C0.1 13.71 0.09 13.56 0.1 13.42C0.11 13.29 0.14 13.17 0.16 13.04C0.16 13.01 0.17 12.98 0.17 12.94C0.16 12.78 0.17 12.61 0.21 12.45C0.23 12.36 0.23 12.27 0.24 12.18C0.25 12.1 0.27 12.02 0.28 11.93C0.28 11.91 0.28 11.88 0.28 11.85C0.28 11.82 0.28 11.79 0.3 11.77C0.39 11.7 0.38 11.6 0.36 11.5C0.35 11.45 0.33 11.4 0.31 11.34C0.29 11.28 0.27 11.21 0.25 11.15C0.22 11.05 0.19 10.94 0.15 10.84C0.09 10.68 0.06 10.52 0.04 10.36C0.04 10.33 0.03 10.3 0.02 10.27C0.02 10.19 0 10.13 0 10.07C0 9.94001 0 9.82001 0.01 9.70001C0.01 9.66001 0.01 9.62001 0.02 9.59001C0.06 9.46001 0.06 9.34001 0.02 9.21001C0.01 9.19001 0.02 9.17001 0.02 9.15001C0.02 9.03001 0.02 8.92001 0.03 8.80001C0.03 8.73001 0.05 8.66001 0.05 8.59001C0.05 8.53001 0.04 8.47001 0.09 8.42001C0.1 8.41001 0.1 8.39001 0.1 8.37001C0.1 8.30001 0.1 8.3 0.18 8.32001C0.27 8.34001 0.36 8.35001 0.46 8.36001C0.5 8.36001 0.52 8.33001 0.54 8.30001C0.58 8.22001 0.59 8.13001 0.58 8.05001C0.55 7.85001 0.53 7.66001 0.54 7.46001C0.54 7.44001 0.53 7.42001 0.53 7.39001C0.49 7.32001 0.49 7.25001 0.51 7.18001C0.53 7.08001 0.53 6.97001 0.52 6.86001C0.51 6.69001 0.5 6.53001 0.52 6.36001C0.53 6.26001 0.52 6.16001 0.51 6.06001C0.51 6.03001 0.51 6.01001 0.51 5.98001C0.51 5.90001 0.51 5.90001 0.59 5.87001C0.62 5.86001 0.66 5.86001 0.65 5.80001C0.61 5.80001 0.58 5.80001 0.55 5.80001C0.52 5.74001 0.5 5.70001 0.47 5.65001C0.47 5.63001 0.46 5.61001 0.46 5.59001C0.48 5.43001 0.48 5.26001 0.46 5.10001C0.46 5.09001 0.45 5.07001 0.46 5.06001C0.5 4.97001 0.45 4.90001 0.44 4.82001C0.43 4.72001 0.43 4.62001 0.43 4.51001C0.43 4.44001 0.42 4.37001 0.41 4.30001C0.4 4.12001 0.36 3.93001 0.4 3.74001C0.4 3.72001 0.4 3.70001 0.4 3.67001C0.4 3.65001 0.38 3.63001 0.39 3.62001C0.45 3.53001 0.38 3.45001 0.38 3.36001C0.38 3.34001 0.38 3.31001 0.37 3.29001C0.32 3.17001 0.33 3.06001 0.37 2.94001C0.4 2.84001 0.41 2.72001 0.42 2.60001C0.37 2.51001 0.42 2.42001 0.43 2.34001C0.44 2.28001 0.43 2.23001 0.35 2.20001C0.39 2.17001 0.41 2.15001 0.44 2.13001C0.5 2.09001 0.55 2.06001 0.55 1.97001C0.55 1.96001 0.56 1.95001 0.56 1.95001C0.64 1.90001 0.61 1.82001 0.6 1.75001C0.6 1.72001 0.59 1.69001 0.62 1.67001C0.69 1.63001 0.7 1.55001 0.69 1.48001C0.68 1.41001 0.72 1.37001 0.77 1.34001C0.82 1.31001 0.87 1.29001 0.91 1.26001C0.94 1.24001 0.97 1.21001 0.99 1.18001C1.03 1.12001 1.08 1.09001 1.15 1.12001C1.19 1.14001 1.22 1.15001 1.25 1.10001C1.26 1.08001 1.3 1.07001 1.32 1.06001C1.4 1.04001 1.49 1.01001 1.57 0.990005C1.58 0.990005 1.58 0.980006 1.59 0.980006C1.63 0.900006 1.71 0.920006 1.78 0.910006C1.82 0.900006 1.85 0.900006 1.87 0.860005C1.88 0.840006 1.91 0.830005 1.93 0.830005C1.96 0.820005 1.99 0.830005 2.02 0.830005C2.1 0.820005 2.14 0.770005 2.12 0.690005C2.11 0.660006 2.11 0.630005 2.11 0.590005C2.1 0.510005 2.1 0.510005 2.17 0.470005C2.34 0.360005 2.53 0.320005 2.73 0.310005C2.77 0.310005 2.81 0.290005 2.86 0.280005C2.89 0.270005 2.92 0.260005 2.95 0.260005C3.01 0.260005 3.07 0.260005 3.12 0.260005C3.16 0.260005 3.19 0.270005 3.23 0.260005C3.47 0.200005 3.71 0.250005 3.95 0.250005C4.07 0.250005 4.19 0.260005 4.31 0.250005C4.38 0.240005 4.46 0.270005 4.54 0.290005C4.57 0.290005 4.59 0.310005 4.61 0.310005C4.68 0.300005 4.74 0.310005 4.79 0.370005C4.8 0.350005 4.82 0.360005 4.83 0.360005C5.07 0.380006 5.28 0.490005 5.5 0.560005C5.58 0.580005 5.65 0.580005 5.74 0.560005C5.8 0.540006 5.87 0.540006 5.94 0.550005C6.06 0.570005 6.16 0.540005 6.27 0.520005C6.31 0.510005 6.35 0.510005 6.38 0.510005C6.42 0.510005 6.46 0.510005 6.49 0.480005C6.57 0.400005 6.58 0.410006 6.63 0.490005C6.63 0.490005 6.64 0.500005 6.65 0.510005C6.66 0.490005 6.66 0.470005 6.67 0.450005C6.71 0.440005 6.75 0.430005 6.8 0.450005C6.85 0.470005 6.91 0.460005 6.95 0.420005C6.94 0.300005 6.94 0.310005 7.07 0.280005C7.12 0.270005 7.17 0.260006 7.21 0.240005C7.36 0.170006 7.51 0.140005 7.67 0.130005C7.75 0.120005 7.84 0.110005 7.93 0.100005C7.96 0.100005 8 0.100005 8.03 0.110005C8.17 0.150005 8.3 0.150005 8.41 0.0700055C8.41 0.0700055 8.42 0.0700055 8.44 0.0700055C8.48 0.140005 8.55 0.140005 8.62 0.120005C8.86 0.0700055 9.1 0.100006 9.34 0.140005C9.49 0.160005 9.64 0.160005 9.79 0.170006C9.88 0.170006 9.98 0.160006 10.07 0.200006C10.09 0.210006 10.12 0.210005 10.15 0.210005C10.25 0.210005 10.36 0.210005 10.45 0.250005C10.48 0.270005 10.53 0.260005 10.56 0.260005C10.64 0.260005 10.71 0.260005 10.79 0.260005C10.82 0.260005 10.86 0.260005 10.88 0.280005C10.98 0.330005 11.08 0.350006 11.19 0.360005C11.3 0.370005 11.4 0.390005 11.5 0.410005C11.52 0.410005 11.55 0.430005 11.57 0.440005C11.61 0.460005 11.65 0.470005 11.69 0.480005C11.76 0.490005 11.8 0.460005 11.83 0.390005C11.84 0.370005 11.84 0.350006 11.85 0.330005C11.88 0.270005 11.92 0.230006 11.99 0.230006C12.05 0.230006 12.1 0.200006 12.15 0.180006C12.25 0.140005 12.3 0.0600055 12.38 -0.00999451C12.4 5.49294e-06 12.42 0.0100055 12.44 0.0200055C12.49 0.0500055 12.54 0.0600055 12.59 0.0400055C12.67 0.0100055 12.75 0.0300055 12.84 0.0500055C12.97 0.0800055 13.1 0.110005 13.22 0.140005C13.26 0.150006 13.3 0.150005 13.33 0.160005C13.37 0.170006 13.41 0.190005 13.43 0.220005C13.51 0.340005 13.63 0.410005 13.76 0.480005C13.81 0.510005 13.85 0.540006 13.89 0.570005C13.98 0.640005 14.01 0.640006 14.07 0.540006C14.09 0.520006 14.1 0.490005 14.12 0.460005C14.15 0.490005 14.18 0.510005 14.21 0.530005C14.3 0.600005 14.38 0.670006 14.47 0.740005C14.49 0.750005 14.51 0.760005 14.53 0.750005C14.59 0.730006 14.64 0.710006 14.7 0.740005C14.71 0.740005 14.72 0.730006 14.73 0.730006C14.8 0.690005 14.86 0.640006 14.93 0.600006C15 0.560005 15.07 0.530005 15.15 0.500005C15.17 0.510005 15.2 0.530006 15.24 0.550005C15.24 0.510005 15.24 0.480005 15.24 0.450005C15.27 0.460005 15.3 0.470005 15.33 0.480005C15.32 0.500005 15.32 0.520006 15.31 0.540006C15.32 0.540006 15.32 0.550005 15.33 0.550005C15.34 0.550005 15.35 0.550005 15.36 0.550005C15.44 0.480006 15.55 0.490005 15.64 0.450005C15.66 0.440005 15.69 0.440005 15.72 0.450005C15.69 0.470005 15.67 0.490005 15.63 0.520005C15.73 0.520005 15.78 0.520005 15.84 0.520005ZM5.48 13.83C5.48 13.81 5.5 13.79 5.45 13.79C5.46 13.81 5.47 13.82 5.48 13.83C5.48 13.85 5.48 13.87 5.47 13.89C5.53 13.87 5.53 13.87 5.48 13.83ZM9.49 14.9C9.53 14.9 9.57 14.9 9.61 14.9C9.55 14.82 9.53 14.82 9.49 14.9C9.47 14.91 9.45 14.91 9.41 14.92C9.47 14.94 9.47 14.94 9.49 14.9ZM8.27 0.270005C8.24 0.250005 8.2 0.230006 8.17 0.220005C8.12 0.210005 8.08 0.190006 8.04 0.230006C8.04 0.240005 8.04 0.240005 8.05 0.240005C8.07 0.250005 8.1 0.260006 8.14 0.270005C8.13 0.290006 8.12 0.310005 8.11 0.330005C8.21 0.370005 8.24 0.360005 8.27 0.270005C8.34 0.260006 8.41 0.250005 8.49 0.240005C8.52 0.240005 8.54 0.220005 8.53 0.190005C8.4 0.140005 8.32 0.160005 8.27 0.270005ZM6.86 9.36001C6.83 9.36001 6.8 9.35001 6.77 9.35001C6.77 9.38001 6.78 9.41001 6.77 9.42001C6.74 9.46001 6.75 9.49001 6.77 9.53001C6.79 9.58001 6.81 9.62001 6.84 9.67001C6.88 9.73001 6.89 9.73001 6.98 9.70001C6.95 9.68001 6.93 9.67001 6.9 9.65001C6.94 9.64001 6.97 9.63001 7 9.62001C6.97 9.57001 6.9 9.58001 6.9 9.51001C6.93 9.49001 6.97 9.51001 7 9.52001C7.03 9.53001 7.06 9.55001 7.09 9.55001C7.11 9.55001 7.14 9.53001 7.14 9.52001C7.14 9.45001 7.18 9.42001 7.23 9.39001C7.26 9.37001 7.27 9.34001 7.25 9.31001C7.23 9.28001 7.2 9.29001 7.17 9.30001C7.12 9.33001 7.07 9.33001 7.02 9.31001C6.94 9.27001 6.93 9.28001 6.86 9.36001ZM7.41 9.58001C7.4 9.57001 7.39 9.56001 7.39 9.55001C7.36 9.53001 7.34 9.52001 7.31 9.54001C7.29 9.55001 7.28 9.58001 7.28 9.58001C7.29 9.60001 7.31 9.63001 7.33 9.64001C7.36 9.66001 7.4 9.66001 7.43 9.67001C7.46 9.68001 7.48 9.70001 7.49 9.72001C7.53 9.79001 7.53 9.80001 7.61 9.76001C7.58 9.71001 7.56 9.66001 7.53 9.62001C7.55 9.60001 7.57 9.58001 7.59 9.55001C7.52 9.56001 7.47 9.57001 7.41 9.58001ZM5.47 14.95C5.49 14.94 5.51 14.92 5.55 14.9C5.49 14.87 5.43 14.85 5.36 14.83C5.38 14.94 5.38 15.03 5.46 15.11C5.46 15.06 5.47 15.01 5.47 14.95ZM6.5 4.97001C6.51 4.98001 6.51 4.98001 6.52 4.99001C6.55 4.97001 6.57 4.95001 6.6 4.95001C6.63 4.95001 6.66 4.96001 6.7 4.97001C6.69 4.89001 6.63 4.85001 6.52 4.85001C6.51 4.89001 6.51 4.93001 6.5 4.97001ZM5.29 14.15C5.24 14.23 5.25 14.31 5.27 14.38C5.28 14.41 5.31 14.41 5.34 14.38C5.33 14.36 5.33 14.34 5.32 14.32C5.34 14.3 5.36 14.29 5.38 14.27C5.34 14.23 5.32 14.2 5.29 14.15ZM7.34 9.18001C7.34 9.24001 7.38 9.28001 7.42 9.32001C7.44 9.33001 7.49 9.34001 7.5 9.33001C7.51 9.29001 7.55 9.30001 7.59 9.30001C7.55 9.25001 7.5 9.26001 7.46 9.25001C7.42 9.24001 7.38 9.21001 7.34 9.18001ZM7.33 10.37C7.3 10.34 7.29 10.32 7.26 10.29C7.29 10.28 7.31 10.27 7.33 10.27C7.35 10.27 7.37 10.27 7.41 10.27C7.39 10.25 7.39 10.24 7.38 10.24C7.24 10.2 7.21 10.22 7.23 10.38C7.25 10.36 7.28 10.37 7.33 10.37ZM6.84 9.01001C6.8 9.00001 6.77 8.99001 6.74 8.98001C6.7 8.97001 6.66 8.99001 6.64 9.02001C6.63 9.03001 6.64 9.05 6.63 9.07001C6.65 9.07001 6.67 9.07001 6.68 9.07001C6.7 9.07001 6.71 9.05001 6.72 9.04001C6.74 9.05001 6.76 9.07001 6.79 9.08001C6.8 9.06001 6.82 9.04001 6.84 9.01001ZM7.33 9.45001C7.33 9.46001 7.33 9.46001 7.33 9.47001C7.39 9.48001 7.44 9.49001 7.5 9.49001C7.53 9.49001 7.55 9.47001 7.55 9.43001C7.55 9.39001 7.52 9.38 7.49 9.40001C7.43 9.42001 7.38 9.44001 7.33 9.45001ZM6.27 13.62C6.16 13.58 6.02 13.58 5.97 13.61C6.07 13.61 6.16 13.69 6.27 13.62ZM7.32 9.73001C7.31 9.8 7.31 9.80001 7.44 9.83001C7.42 9.73001 7.42 9.73001 7.32 9.73001ZM5.47 9.28001C5.47 9.27001 5.46 9.27001 5.46 9.26001C5.39 9.26001 5.37 9.28001 5.37 9.34001C5.37 9.39001 5.39 9.41001 5.46 9.40001C5.45 9.38 5.43 9.35001 5.41 9.32001C5.44 9.31001 5.46 9.29001 5.47 9.28001ZM7.22 9.24001C7.23 9.23001 7.23 9.22001 7.24 9.22001C7.22 9.19001 7.21 9.16001 7.18 9.14001C7.14 9.13001 7.11 9.16001 7.08 9.20001C7.13 9.22001 7.17 9.23001 7.22 9.24001ZM5.58 15.21C5.53 15.25 5.52 15.28 5.54 15.31C5.56 15.34 5.59 15.34 5.63 15.31C5.61 15.27 5.6 15.25 5.58 15.21ZM6.11 10.18C6.08 10.13 6.03 10.12 5.99 10.11C5.98 10.11 5.97 10.12 5.96 10.13C5.96 10.14 5.96 10.16 5.97 10.16C6.02 10.18 6.06 10.2 6.11 10.18ZM6.35 4.79001C6.29 4.69001 6.28 4.68001 6.2 4.70001C6.23 4.75001 6.28 4.76001 6.35 4.79001ZM9.29 14.76C9.27 14.75 9.26 14.73 9.24 14.72C9.22 14.71 9.21 14.7 9.19 14.69C9.16 14.72 9.16 14.75 9.18 14.77C9.22 14.79 9.26 14.8 9.29 14.76ZM12.94 17.66C12.92 17.62 12.9 17.58 12.85 17.6C12.84 17.6 12.83 17.63 12.83 17.64C12.84 17.67 12.87 17.68 12.94 17.66ZM2.5 1.07001C2.5 1.08001 2.5 1.08001 2.5 1.09001C2.58 1.12001 2.59 1.12001 2.62 1.05001C2.58 1.06001 2.54 1.06001 2.5 1.07001ZM9.73 15.21C9.69 15.15 9.63 15.15 9.53 15.19C9.62 15.2 9.68 15.21 9.73 15.21ZM9.65 14.76C9.72 14.76 9.77 14.79 9.84 14.75C9.77 14.73 9.72 14.71 9.65 14.76ZM5.52 14.05C5.47 14.05 5.43 14.07 5.43 14.12C5.43 14.16 5.46 14.17 5.49 14.15C5.5 14.12 5.51 14.09 5.52 14.05ZM10.09 15.18C10.07 15.09 10.05 15.08 9.95 15.11C10 15.14 10.04 15.16 10.09 15.18ZM6.29 13.46C6.32 13.46 6.34 13.46 6.36 13.45C6.38 13.44 6.41 13.43 6.41 13.42C6.41 13.38 6.39 13.37 6.35 13.38C6.33 13.4 6.31 13.42 6.29 13.46ZM5.72 14.01C5.71 13.99 5.71 13.97 5.7 13.97C5.68 13.96 5.65 13.96 5.63 13.96C5.63 13.96 5.61 14 5.62 14C5.64 14.01 5.66 14.02 5.68 14.03C5.69 14.03 5.7 14.02 5.72 14.01ZM5.52 8.65001C5.48 8.65001 5.45 8.65001 5.43 8.69001C5.43 8.72001 5.43 8.75001 5.47 8.76001C5.47 8.74001 5.47 8.72001 5.48 8.71001C5.49 8.69001 5.51 8.67001 5.52 8.65001ZM5.25 14.53C5.32 14.58 5.35 14.57 5.38 14.48C5.34 14.5 5.3 14.51 5.25 14.53ZM6.24 9.71001C6.21 9.69001 6.2 9.67001 6.18 9.67001C6.17 9.67001 6.15 9.69001 6.15 9.69001C6.15 9.71001 6.16 9.73001 6.18 9.74001C6.18 9.74001 6.21 9.73001 6.24 9.71001ZM11.64 17.86C11.58 17.86 11.55 17.89 11.54 17.95C11.61 17.94 11.59 17.88 11.64 17.86ZM7.11 9.88001C7.06 9.85001 7.03 9.82001 6.98 9.85001C7.03 9.89001 7.03 9.89001 7.11 9.88001ZM6.8 4.98001C6.87 5.00001 6.87 5.00001 6.89 4.94001C6.85 4.93001 6.82 4.94001 6.8 4.98001ZM5.7 15.01C5.68 15 5.67 14.98 5.66 14.97C5.65 14.99 5.63 15 5.63 15.01C5.63 15.02 5.65 15.04 5.66 15.05C5.68 15.04 5.69 15.03 5.7 15.01ZM8.16 11.92C8.2 11.93 8.24 11.95 8.28 11.96C8.28 11.95 8.29 11.95 8.29 11.94C8.26 11.91 8.22 11.89 8.16 11.92ZM6.75 13.72C6.67 13.67 6.67 13.67 6.62 13.74C6.67 13.73 6.7 13.73 6.75 13.72ZM10.13 14.96C10.11 14.95 10.08 14.95 10.06 14.94C10.06 14.95 10.05 14.97 10.05 14.97C10.07 15 10.1 15 10.13 14.96ZM6.53 13.51C6.45 13.49 6.45 13.49 6.41 13.57C6.46 13.55 6.49 13.53 6.53 13.51ZM9.43 15.4C9.39 15.36 9.39 15.36 9.34 15.4C9.37 15.42 9.4 15.43 9.43 15.4ZM6.74 4.91001C6.76 4.89001 6.78 4.88001 6.78 4.87001C6.78 4.86001 6.76 4.84001 6.75 4.83001C6.74 4.84001 6.72 4.85001 6.72 4.87001C6.71 4.88001 6.73 4.89001 6.74 4.91001ZM6.5 13.38C6.53 13.45 6.53 13.45 6.61 13.42C6.57 13.41 6.54 13.39 6.5 13.38ZM9.05 15.15C9.09 15.15 9.12 15.13 9.13 15.09C9.08 15.07 9.06 15.1 9.05 15.15ZM8.85 0.280005C8.83 0.270005 8.82 0.260005 8.81 0.260005C8.8 0.260005 8.79 0.280005 8.78 0.290005C8.79 0.300005 8.8 0.310005 8.82 0.310005C8.83 0.310005 8.84 0.300005 8.85 0.280005ZM0.38 8.51001C0.38 8.50001 0.38 8.49001 0.38 8.48001C0.35 8.48001 0.31 8.46 0.28 8.48001C0.28 8.49001 0.28 8.49001 0.28 8.50001C0.32 8.50001 0.35 8.50001 0.38 8.51001ZM6.85 5.40001C6.87 5.38001 6.88 5.37001 6.88 5.36001L6.86 5.34001C6.84 5.34001 6.83 5.35001 6.82 5.36001C6.82 5.37001 6.83 5.38001 6.85 5.40001ZM5.94 15.03C5.94 15.02 5.94 15.01 5.94 15C5.91 15 5.87 15 5.83 15C5.83 15.01 5.83 15.02 5.83 15.03C5.87 15.03 5.91 15.03 5.94 15.03ZM6.2 13.38C6.12 13.38 6.12 13.38 6.1 13.44C6.14 13.43 6.16 13.41 6.2 13.38ZM6.21 15.44C6.26 15.42 6.29 15.4 6.33 15.38C6.26 15.36 6.23 15.37 6.21 15.44ZM7.18 10.06C7.17 10.04 7.16 10.03 7.15 10.03C7.13 10.03 7.12 10.04 7.1 10.05C7.11 10.06 7.12 10.08 7.12 10.08C7.14 10.08 7.16 10.07 7.18 10.06ZM8.29 5.22001C8.28 5.25001 8.29 5.27001 8.32 5.27001C8.33 5.27001 8.34 5.25001 8.34 5.25001C8.34 5.22001 8.32 5.20001 8.29 5.22001ZM2.29 0.980006C2.27 0.970006 2.26 0.950005 2.25 0.950005C2.24 0.950005 2.22 0.960006 2.22 0.970006C2.23 0.980006 2.24 1.00001 2.25 1.00001C2.26 1.01001 2.27 0.990005 2.29 0.980006ZM6.75 10.32C6.72 10.29 6.69 10.29 6.65 10.32C6.7 10.32 6.73 10.32 6.75 10.32ZM5.6 14.13C5.63 14.14 5.66 14.14 5.66 14.11C5.66 14.1 5.65 14.09 5.63 14.06C5.61 14.09 5.61 14.11 5.6 14.13ZM9.57 14.62C9.6 14.59 9.6 14.57 9.58 14.53C9.55 14.57 9.53 14.59 9.57 14.62ZM4.23 4.97001C4.22 4.91001 4.21 4.90001 4.16 4.91001C4.17 4.92001 4.17 4.94001 4.17 4.95001C4.19 4.95001 4.21 4.96001 4.23 4.97001ZM5.87 13.62C5.87 13.61 5.88 13.61 5.88 13.6C5.87 13.57 5.85 13.55 5.8 13.57C5.84 13.59 5.85 13.6 5.87 13.62ZM8.03 4.16001C8.03 4.17001 8.02 4.18001 8.01 4.18001C8.03 4.20001 8.04 4.22001 8.06 4.24001C8.07 4.23001 8.07 4.23001 8.08 4.22001C8.07 4.20001 8.05 4.18001 8.03 4.16001ZM8.56 12.03C8.56 12.04 8.56 12.05 8.56 12.06C8.58 12.06 8.61 12.07 8.63 12.07C8.63 12.06 8.63 12.05 8.63 12.04C8.6 12.04 8.58 12.04 8.56 12.03ZM17.7 16.59C17.69 16.6 17.69 16.61 17.68 16.62C17.69 16.63 17.71 16.64 17.73 16.65C17.73 16.65 17.74 16.63 17.75 16.62C17.74 16.61 17.72 16.6 17.7 16.59ZM12.54 17.19C12.61 17.17 12.61 17.17 12.59 17.11C12.57 17.14 12.56 17.16 12.54 17.19ZM7.57 0.370005C7.57 0.360005 7.57 0.350005 7.57 0.350005C7.55 0.350005 7.52 0.350005 7.48 0.340005C7.52 0.380005 7.54 0.390005 7.57 0.370005ZM8.23 11.5C8.26 11.53 8.28 11.54 8.3 11.49C8.27 11.49 8.25 11.49 8.23 11.5ZM6.95 4.63001C6.93 4.62001 6.92 4.61001 6.91 4.61001C6.91 4.61001 6.89 4.63001 6.89 4.64001C6.89 4.65001 6.9 4.67001 6.91 4.67001C6.92 4.66001 6.93 4.65001 6.95 4.63001ZM7.24 9.87001C7.22 9.86001 7.21 9.85001 7.19 9.84001C7.19 9.84001 7.17 9.85001 7.17 9.86001C7.18 9.87001 7.19 9.89001 7.2 9.89001C7.2 9.90001 7.22 9.88001 7.24 9.87001ZM5.44 8.88001C5.45 8.87001 5.47 8.86001 5.47 8.85001C5.47 8.84001 5.46 8.83001 5.45 8.83001C5.44 8.83001 5.43 8.84001 5.42 8.84001C5.42 8.86001 5.43 8.87001 5.44 8.88001ZM16.42 16.53C16.41 16.55 16.39 16.56 16.4 16.56C16.4 16.57 16.41 16.58 16.42 16.59C16.43 16.59 16.45 16.58 16.45 16.58C16.44 16.56 16.43 16.55 16.42 16.53ZM7.14 9.95001C7.14 9.94001 7.14 9.93001 7.14 9.93001C7.12 9.93001 7.1 9.93001 7.08 9.94001C7.08 9.95001 7.08 9.95001 7.08 9.96001C7.1 9.95001 7.12 9.95001 7.14 9.95001ZM7.48 0.450005C7.48 0.440005 7.47 0.440005 7.47 0.430005C7.46 0.430005 7.45 0.420005 7.44 0.420005C7.43 0.420005 7.42 0.440005 7.42 0.450005C7.42 0.460005 7.43 0.470005 7.44 0.470005C7.46 0.460005 7.47 0.450005 7.48 0.450005ZM6.41 10.03C6.38 10.02 6.37 10.01 6.36 10.01C6.35 10.01 6.34 10.02 6.33 10.03C6.34 10.04 6.34 10.05 6.36 10.06C6.36 10.07 6.38 10.06 6.41 10.03ZM7.65 9.34001C7.63 9.38001 7.61 9.39001 7.61 9.40001C7.61 9.41001 7.63 9.42001 7.64 9.42001C7.65 9.42001 7.67 9.40001 7.67 9.39001C7.67 9.38001 7.66 9.37001 7.65 9.34001ZM7.23 9.80001C7.24 9.79001 7.24 9.79001 7.25 9.78001C7.23 9.76 7.23 9.73001 7.17 9.73001C7.2 9.76 7.21 9.78001 7.23 9.80001ZM5.43 9.74001C5.43 9.73001 5.43 9.72001 5.42 9.71001C5.4 9.71001 5.37 9.72001 5.35 9.72001C5.35 9.73001 5.35 9.73001 5.35 9.74001C5.38 9.74001 5.41 9.74001 5.43 9.74001ZM0.46 3.45001C0.47 3.44001 0.47 3.44001 0.48 3.43001C0.46 3.40001 0.45 3.38001 0.39 3.40001C0.42 3.42001 0.44 3.43001 0.46 3.45001ZM5.43 9.49001C5.43 9.50001 5.43 9.51001 5.43 9.52001C5.46 9.52001 5.48 9.53001 5.52 9.48001C5.47 9.49001 5.45 9.49001 5.43 9.49001ZM0.64 5.42001C0.64 5.41001 0.64 5.40001 0.64 5.39001C0.62 5.39001 0.61 5.39001 0.59 5.40001V5.42001C0.6 5.42001 0.62 5.42001 0.64 5.42001ZM5.5 9.06001C5.5 9.01001 5.49 8.99001 5.44 9.00001C5.46 9.02001 5.47 9.03001 5.5 9.06001ZM6.21 10.11C6.21 10.12 6.21 10.13 6.21 10.14C6.23 10.14 6.24 10.14 6.26 10.13V10.11C6.24 10.12 6.22 10.12 6.21 10.11ZM11.57 18.05C11.56 18.05 11.55 18.06 11.55 18.06C11.56 18.08 11.57 18.09 11.58 18.11L11.6 18.1C11.58 18.09 11.57 18.07 11.57 18.05ZM6.92 11.03C6.93 11.03 6.94 11.03 6.95 11.03C6.95 11.01 6.95 10.99 6.95 10.97C6.94 10.97 6.94 10.97 6.93 10.97C6.93 10.99 6.93 11.01 6.92 11.03ZM5.48 14.76C5.47 14.77 5.46 14.78 5.46 14.78C5.47 14.79 5.48 14.8 5.49 14.8C5.49 14.8 5.51 14.79 5.51 14.78C5.5 14.78 5.49 14.78 5.48 14.76ZM6.85 9.98001C6.85 9.95001 6.83 9.93001 6.78 9.94001C6.81 9.96001 6.83 9.97001 6.85 9.98001ZM5.74 15.23C5.72 15.22 5.71 15.22 5.7 15.22C5.69 15.22 5.69 15.23 5.68 15.24C5.69 15.25 5.7 15.26 5.71 15.26C5.72 15.26 5.73 15.24 5.74 15.23ZM8.19 10.51C8.18 10.52 8.18 10.52 8.17 10.53C8.18 10.54 8.19 10.55 8.2 10.57C8.21 10.56 8.22 10.55 8.22 10.55C8.21 10.53 8.2 10.52 8.19 10.51ZM5.72 9.00001C5.71 9.01001 5.7 9.02001 5.7 9.02001C5.71 9.03001 5.72 9.04001 5.73 9.04001C5.73 9.04001 5.75 9.03001 5.75 9.02001C5.74 9.01001 5.73 9.01001 5.72 9.00001ZM7.59 9.97001C7.59 9.96001 7.59 9.95001 7.59 9.95001C7.57 9.95001 7.56 9.96001 7.54 9.96001C7.54 9.97001 7.54 9.97001 7.54 9.98001C7.56 9.97001 7.57 9.97001 7.59 9.97001ZM20.25 15.15C20.24 15.14 20.23 15.13 20.22 15.13C20.22 15.13 20.2 15.14 20.2 15.15C20.2 15.16 20.21 15.17 20.22 15.18C20.23 15.17 20.23 15.16 20.25 15.15ZM8.58 0.420005C8.59 0.410005 8.6 0.400005 8.61 0.390005C8.61 0.390005 8.6 0.370005 8.59 0.370005C8.58 0.370005 8.57 0.380005 8.56 0.390005C8.56 0.400005 8.57 0.410005 8.58 0.420005ZM0.56 3.01001C0.54 3.00001 0.53 2.99001 0.52 2.99001C0.51 2.99001 0.5 3.00001 0.5 3.01001C0.5 3.02001 0.51 3.03001 0.52 3.04001C0.52 3.04001 0.53 3.03001 0.56 3.01001ZM8.36 11.96C8.35 11.98 8.34 11.99 8.34 12C8.34 12.01 8.36 12.01 8.36 12.02C8.36 12.01 8.37 12 8.37 12C8.37 11.99 8.37 11.98 8.36 11.96ZM15.9 21.45C15.9 21.46 15.89 21.47 15.89 21.48C15.89 21.49 15.9 21.49 15.91 21.5C15.92 21.49 15.92 21.48 15.93 21.47C15.92 21.47 15.91 21.46 15.9 21.45ZM8.4 0.480005C8.41 0.470005 8.42 0.460005 8.43 0.450005L8.42 0.440005C8.41 0.440005 8.4 0.450006 8.39 0.460005C8.38 0.450006 8.39 0.460005 8.4 0.480005ZM4.72 10.83C4.71 10.86 4.7 10.87 4.7 10.87C4.7 10.88 4.71 10.88 4.72 10.89C4.73 10.88 4.74 10.88 4.74 10.87C4.75 10.87 4.74 10.86 4.72 10.83ZM19.79 14.42C19.78 14.43 19.77 14.43 19.77 14.44C19.77 14.45 19.78 14.45 19.79 14.46C19.8 14.45 19.81 14.45 19.81 14.44C19.8 14.44 19.8 14.43 19.79 14.42ZM11.65 17.36C11.65 17.35 11.65 17.35 11.65 17.34C11.64 17.34 11.62 17.34 11.61 17.35C11.61 17.36 11.61 17.37 11.62 17.37C11.63 17.37 11.64 17.37 11.65 17.36ZM9.14 14.3C9.15 14.3 9.15 14.31 9.16 14.31C9.17 14.3 9.18 14.28 9.19 14.27C9.18 14.27 9.18 14.26 9.17 14.26C9.16 14.27 9.15 14.29 9.14 14.3ZM16.93 16.4C16.92 16.41 16.91 16.42 16.91 16.43C16.91 16.44 16.92 16.45 16.93 16.45C16.94 16.45 16.94 16.44 16.95 16.44C16.95 16.42 16.94 16.41 16.93 16.4ZM6.06 9.81001C6.06 9.82001 6.06 9.82001 6.06 9.83001C6.07 9.83001 6.09 9.83001 6.1 9.83001V9.82001C6.09 9.82001 6.07 9.81001 6.06 9.81001ZM6.8 14.06C6.8 14.07 6.8 14.07 6.8 14.08C6.81 14.08 6.83 14.07 6.84 14.07C6.84 14.06 6.84 14.06 6.84 14.05C6.83 14.05 6.82 14.06 6.8 14.06ZM14.11 7.26001C14.1 7.25001 14.1 7.23001 14.1 7.23001C14.09 7.23001 14.08 7.24001 14.08 7.24001C14.08 7.25001 14.09 7.26001 14.09 7.27001C14.09 7.27001 14.1 7.26001 14.11 7.26001ZM7.08 9.78001C7.08 9.77001 7.08 9.77001 7.08 9.76001C7.06 9.76001 7.05 9.76001 7.03 9.76001V9.77001C7.05 9.78001 7.07 9.78001 7.08 9.78001ZM17.86 3.60001C17.86 3.59001 17.86 3.58001 17.86 3.58001C17.85 3.58001 17.83 3.58001 17.82 3.58001C17.82 3.59001 17.82 3.59001 17.82 3.60001C17.83 3.60001 17.84 3.60001 17.86 3.60001ZM13.49 21.89C13.5 21.88 13.51 21.87 13.52 21.86C13.52 21.86 13.51 21.84 13.5 21.84C13.49 21.85 13.48 21.85 13.48 21.86C13.48 21.87 13.48 21.88 13.49 21.89ZM10.47 15.18C10.47 15.17 10.46 15.17 10.46 15.16C10.45 15.17 10.43 15.18 10.42 15.19C10.42 15.2 10.43 15.2 10.43 15.21C10.44 15.2 10.45 15.19 10.47 15.18ZM7.65 9.88001C7.64 9.89001 7.63 9.89001 7.63 9.90001L7.64 9.92001C7.65 9.92001 7.66 9.91001 7.67 9.90001C7.67 9.89001 7.66 9.89001 7.65 9.88001ZM9.15 13.64C9.15 13.65 9.15 13.65 9.14 13.66C9.16 13.66 9.17 13.67 9.19 13.67C9.19 13.66 9.19 13.66 9.19 13.65C9.18 13.65 9.17 13.64 9.15 13.64ZM6.39 9.92001C6.39 9.91001 6.39 9.91001 6.39 9.90001C6.38 9.90001 6.37 9.89001 6.37 9.89001C6.36 9.89001 6.35 9.90001 6.34 9.90001V9.91001C6.36 9.91001 6.37 9.92001 6.39 9.92001ZM6.24 15.2C6.24 15.21 6.25 15.21 6.25 15.22C6.27 15.21 6.29 15.2 6.3 15.19C6.3 15.19 6.3 15.18 6.29 15.18C6.28 15.18 6.26 15.19 6.24 15.2ZM8.33 3.93001C8.33 3.94001 8.32 3.95001 8.32 3.96001L8.33 3.97001C8.34 3.97001 8.35 3.96001 8.34 3.95001C8.35 3.95001 8.34 3.94001 8.33 3.93001ZM5.56 11.23C5.55 11.22 5.54 11.22 5.54 11.21L5.53 11.22C5.53 11.23 5.54 11.24 5.54 11.24C5.54 11.24 5.54 11.24 5.56 11.23ZM12.75 17.96C12.75 17.95 12.76 17.94 12.76 17.93L12.75 17.92C12.75 17.93 12.74 17.94 12.74 17.94C12.73 17.95 12.74 17.95 12.75 17.96ZM18.47 2.09001C18.49 2.10001 18.49 2.11001 18.5 2.11001C18.5 2.10001 18.51 2.10001 18.51 2.09001L18.5 2.08001C18.49 2.08001 18.48 2.09001 18.47 2.09001ZM5.89 10.27C5.88 10.27 5.87 10.26 5.86 10.26L5.85 10.27C5.86 10.27 5.87 10.28 5.87 10.28C5.88 10.28 5.88 10.27 5.89 10.27ZM9.55 5.86001C9.54 5.85001 9.53 5.84001 9.53 5.84001C9.52 5.84001 9.52 5.85001 9.51 5.85001C9.51 5.86001 9.52 5.87001 9.53 5.87001C9.53 5.87001 9.54 5.87001 9.55 5.86001ZM10.35 16.64C10.33 16.63 10.33 16.62 10.32 16.62C10.32 16.62 10.3 16.63 10.31 16.63C10.31 16.64 10.32 16.65 10.33 16.65C10.32 16.65 10.33 16.65 10.35 16.64ZM6.66 14.19C6.66 14.19 6.66 14.18 6.67 14.18C6.66 14.17 6.64 14.17 6.63 14.16C6.63 14.16 6.63 14.17 6.62 14.17C6.63 14.18 6.65 14.18 6.66 14.19ZM17.06 16.38C17.06 16.39 17.06 16.39 17.06 16.4C17.07 16.4 17.09 16.39 17.1 16.39C17.1 16.38 17.1 16.38 17.1 16.37C17.09 16.38 17.07 16.38 17.06 16.38ZM9.02 12.99C9.02 13 9.02 13 9.01 13.01C9.02 13.01 9.04 13.01 9.05 13.01V13C9.04 12.99 9.03 12.99 9.02 12.99ZM11.11 18.69C11.1 18.68 11.09 18.67 11.09 18.67C11.08 18.67 11.08 18.68 11.07 18.68C11.08 18.69 11.08 18.7 11.09 18.7C11.08 18.7 11.09 18.69 11.11 18.69ZM6.2 15.63C6.21 15.62 6.21 15.61 6.21 15.61L6.2 15.6C6.19 15.6 6.19 15.61 6.18 15.61C6.19 15.62 6.19 15.62 6.2 15.63ZM6.51 15.56C6.5 15.57 6.5 15.57 6.49 15.58L6.5 15.59C6.51 15.59 6.51 15.58 6.52 15.58C6.52 15.57 6.52 15.57 6.51 15.56ZM9.57 15.26C9.56 15.26 9.56 15.26 9.55 15.27C9.56 15.28 9.56 15.3 9.57 15.31C9.57 15.31 9.58 15.31 9.58 15.3C9.58 15.29 9.58 15.28 9.57 15.26ZM9.07 14.65C9.06 14.64 9.05 14.64 9.04 14.64C9.03 14.64 9.03 14.65 9.02 14.66C9.03 14.66 9.04 14.67 9.04 14.67C9.05 14.67 9.06 14.66 9.07 14.65ZM9.69 15.49C9.68 15.48 9.68 15.47 9.67 15.47C9.66 15.47 9.65 15.47 9.65 15.48C9.66 15.49 9.66 15.5 9.67 15.5C9.67 15.51 9.68 15.5 9.69 15.49ZM19.42 12.67C19.41 12.66 19.41 12.65 19.4 12.65C19.39 12.65 19.38 12.65 19.38 12.66C19.39 12.67 19.39 12.68 19.4 12.69C19.4 12.68 19.41 12.67 19.42 12.67ZM6.37 15.47C6.38 15.45 6.39 15.45 6.39 15.45C6.38 15.45 6.38 15.44 6.37 15.44L6.36 15.45C6.37 15.46 6.37 15.46 6.37 15.47ZM5.35 14.71C5.35 14.7 5.34 14.69 5.34 14.69C5.33 14.69 5.33 14.7 5.32 14.7L5.33 14.71C5.34 14.72 5.35 14.72 5.35 14.71ZM9.07 14.83C9.06 14.83 9.06 14.82 9.05 14.82L9.04 14.83C9.05 14.84 9.05 14.84 9.06 14.84C9.06 14.85 9.06 14.84 9.07 14.83ZM9.21 0.460005C9.21 0.450006 9.2 0.440005 9.2 0.440005C9.2 0.440005 9.19 0.440005 9.18 0.440005C9.18 0.450005 9.18 0.460005 9.19 0.460005C9.19 0.460005 9.2 0.460005 9.21 0.460005ZM6.68 14.04C6.68 14.03 6.69 14.03 6.69 14.02L6.68 14.01C6.67 14.01 6.67 14.02 6.67 14.03L6.68 14.04ZM17.2 16.43C17.2 16.44 17.19 16.44 17.19 16.45L17.2 16.46C17.21 16.46 17.21 16.45 17.22 16.45C17.21 16.44 17.2 16.44 17.2 16.43ZM10.09 15.29C10.09 15.28 10.09 15.27 10.08 15.27C10.07 15.27 10.06 15.27 10.06 15.27C10.06 15.28 10.06 15.28 10.07 15.28C10.07 15.29 10.08 15.29 10.09 15.29ZM10.24 14.95C10.24 14.94 10.23 14.93 10.23 14.93C10.22 14.93 10.21 14.93 10.21 14.93C10.21 14.93 10.21 14.94 10.22 14.94C10.22 14.95 10.23 14.95 10.24 14.95ZM6.46 13.65C6.46 13.64 6.45 13.63 6.45 13.63C6.44 13.63 6.44 13.64 6.43 13.64L6.44 13.65C6.44 13.66 6.45 13.65 6.46 13.65ZM17.44 3.70001C17.44 3.71001 17.43 3.71001 17.43 3.72001L17.44 3.73001C17.45 3.73001 17.45 3.72001 17.46 3.71001C17.45 3.70001 17.45 3.70001 17.44 3.70001ZM5.8 9.24001C5.8 9.25001 5.81 9.26001 5.81 9.26001C5.82 9.26001 5.82 9.25001 5.83 9.25001L5.82 9.24001C5.81 9.24001 5.81 9.24001 5.8 9.24001ZM6.16 15.12C6.16 15.11 6.17 15.11 6.17 15.1C6.16 15.1 6.16 15.09 6.16 15.09C6.15 15.09 6.15 15.1 6.15 15.11C6.15 15.12 6.15 15.12 6.16 15.12ZM6.41 9.47001C6.41 9.46001 6.4 9.46001 6.4 9.45001C6.39 9.45001 6.39 9.46001 6.38 9.46001L6.39 9.47001C6.4 9.48001 6.41 9.48001 6.41 9.47001ZM5.63 9.50001C5.64 9.50001 5.65 9.51001 5.66 9.51001C5.66 9.50001 5.67 9.50001 5.67 9.50001C5.66 9.49001 5.65 9.49001 5.64 9.48001C5.64 9.48001 5.64 9.49001 5.63 9.50001ZM13.03 17.6C13.04 17.59 13.04 17.59 13.05 17.59C13.04 17.58 13.04 17.58 13.03 17.57L13.02 17.58C13.02 17.59 13.03 17.6 13.03 17.6ZM6.24 9.55001C6.24 9.54001 6.23 9.53001 6.23 9.53001C6.23 9.53001 6.22 9.53001 6.21 9.53001C6.21 9.54001 6.21 9.55001 6.22 9.55001C6.23 9.56001 6.24 9.56001 6.24 9.55001ZM6.46 10.78C6.46 10.77 6.45 10.76 6.45 10.76C6.44 10.76 6.44 10.77 6.43 10.77L6.44 10.78C6.45 10.78 6.46 10.78 6.46 10.78ZM7.11 10.33C7.12 10.33 7.12 10.33 7.13 10.32C7.13 10.31 7.12 10.31 7.12 10.3L7.11 10.31C7.11 10.32 7.11 10.33 7.11 10.33ZM10.73 15.23C10.73 15.22 10.72 15.22 10.72 15.21C10.71 15.21 10.71 15.22 10.7 15.22C10.7 15.22 10.7 15.23 10.71 15.23C10.72 15.23 10.73 15.23 10.73 15.23ZM6.81 9.76001C6.8 9.75001 6.8 9.75001 6.79 9.74001C6.79 9.75001 6.78 9.76001 6.78 9.76001L6.79 9.77001C6.79 9.77001 6.8 9.76001 6.81 9.76001ZM8.4 11.79C8.41 11.78 8.41 11.78 8.42 11.78C8.41 11.78 8.41 11.77 8.4 11.77L8.39 11.78L8.4 11.79ZM6.02 15.23C6.02 15.22 6.02 15.22 6.02 15.21C6.01 15.21 5.99 15.22 5.98 15.22V15.23C6 15.24 6.01 15.24 6.02 15.23ZM5.87 15.17C5.87 15.16 5.87 15.16 5.87 15.15C5.87 15.15 5.86 15.15 5.85 15.15C5.85 15.16 5.85 15.17 5.85 15.17C5.86 15.17 5.86 15.17 5.87 15.17ZM6.54 4.60001C6.54 4.59001 6.54 4.59001 6.53 4.58001C6.52 4.58001 6.52 4.59001 6.51 4.59001L6.52 4.60001C6.53 4.61001 6.53 4.61001 6.54 4.60001ZM6.16 4.62001L6.15 4.61001H6.14V4.62001C6.15 4.63001 6.16 4.62001 6.16 4.62001ZM0.51 4.70001V4.69001H0.5V4.70001C0.5 4.70001 0.5 4.70001 0.51 4.70001ZM6.3 5.01001H6.29V5.02001L6.3 5.03001C6.3 5.02001 6.3 5.02001 6.3 5.01001ZM23.05 5.26001C23.05 5.25001 23.05 5.25001 23.04 5.24001L23.03 5.25001C23.03 5.26001 23.04 5.26001 23.04 5.27001L23.05 5.26001ZM9.05 14.52L9.06 14.51C9.05 14.51 9.05 14.5 9.04 14.5L9.03 14.51C9.03 14.51 9.04 14.52 9.05 14.52ZM6.28 9.84001C6.27 9.84001 6.27 9.84001 6.26 9.84001V9.85001L6.27 9.86001C6.27 9.85001 6.27 9.85001 6.28 9.84001ZM9.06 14.18C9.05 14.17 9.05 14.17 9.04 14.16C9.04 14.17 9.03 14.17 9.03 14.18C9.04 14.18 9.04 14.19 9.05 14.19C9.05 14.19 9.05 14.19 9.06 14.18ZM6.95 5.68001L6.94 5.69001L6.95 5.70001H6.96C6.95 5.68001 6.95 5.68001 6.95 5.68001ZM6.52 13.63C6.52 13.63 6.52 13.62 6.53 13.62H6.52L6.51 13.63C6.51 13.62 6.52 13.63 6.52 13.63ZM6.78 9.27001V9.26001H6.77V9.27001C6.77 9.27001 6.77 9.27001 6.78 9.27001ZM6.28 13.16L6.27 13.17C6.28 13.17 6.28 13.18 6.29 13.18L6.3 13.17C6.29 13.17 6.28 13.17 6.28 13.16ZM9.37 0.400005L9.36 0.390005C9.36 0.390005 9.35 0.390005 9.35 0.400005L9.36 0.410005C9.37 0.410005 9.37 0.400005 9.37 0.400005ZM12.22 17.23V17.22H12.21V17.23C12.21 17.23 12.21 17.23 12.22 17.23ZM4.15 12.79L4.14 12.78H4.13C4.13 12.78 4.13 12.79 4.14 12.79C4.14 12.79 4.14 12.79 4.15 12.79ZM11.98 17.46L11.97 17.47C11.97 17.47 11.97 17.48 11.98 17.48C11.99 17.48 11.99 17.48 11.99 17.47C11.98 17.47 11.98 17.47 11.98 17.46ZM5.42 17.52C5.43 17.52 5.43 17.51 5.44 17.51L5.43 17.5C5.42 17.5 5.42 17.51 5.41 17.51L5.42 17.52ZM9.3 12.4L9.29 12.39H9.28V12.4C9.29 12.41 9.29 12.41 9.3 12.4ZM8.9 12.18L8.89 12.19L8.9 12.2H8.91C8.91 12.19 8.9 12.18 8.9 12.18ZM7.87 11.82C7.87 11.83 7.88 11.83 7.88 11.83C7.88 11.83 7.89 11.83 7.9 11.83V11.82C7.89 11.82 7.88 11.82 7.87 11.82ZM5.96 9.56001C5.96 9.55001 5.96 9.55001 5.95 9.55001C5.95 9.55001 5.94 9.55001 5.93 9.55001C5.93 9.56001 5.93 9.56001 5.94 9.57001C5.95 9.57001 5.95 9.56001 5.96 9.56001ZM5.83 11.17C5.82 11.16 5.82 11.16 5.81 11.16L5.8 11.17L5.81 11.18C5.82 11.19 5.83 11.18 5.83 11.17ZM5.66 10.58L5.65 10.57H5.64V10.58C5.65 10.59 5.65 10.59 5.66 10.58ZM10.91 20.97L10.9 20.96L10.89 20.97V20.98C10.9 20.97 10.91 20.97 10.91 20.97ZM6.38 9.64001L6.39 9.63001L6.38 9.62001H6.37C6.38 9.63001 6.38 9.64001 6.38 9.64001ZM5.73 9.88001L5.74 9.89001C5.74 9.89001 5.75 9.89001 5.75 9.88001C5.75 9.88001 5.75 9.87001 5.74 9.87001C5.73 9.87001 5.73 9.87001 5.73 9.88001ZM9.48 5.62001L9.47 5.63001L9.48 5.64001H9.49C9.49 5.63001 9.48 5.62001 9.48 5.62001Z" fill="white"/>
<path d="M15.75 0.270007C15.8 0.250007 15.82 0.270007 15.85 0.310007C15.8 0.320007 15.78 0.300007 15.75 0.270007Z" fill="white"/>
<path d="M15.8401 0.520004C15.8401 0.480004 15.8401 0.450004 15.8401 0.410004C15.8501 0.410004 15.8501 0.410004 15.8601 0.410004C15.8501 0.440004 15.8501 0.480004 15.8401 0.520004Z" fill="white"/>
<path d="M7.14989 9.41001C7.09989 9.43001 7.07989 9.45001 7.04989 9.45001C6.99989 9.45001 6.93989 9.43001 6.88989 9.42001C6.93989 9.36001 7.03989 9.34001 7.14989 9.41001Z" fill="white"/>
<path d="M6.15999 9.27001C6.02999 9.13001 5.89999 8.99001 5.78999 8.84001C5.68999 8.72001 5.59999 8.60001 5.50999 8.47001C5.81999 7.94001 5.96999 7.32001 5.96999 6.71001C5.96999 6.13001 5.95999 5.40001 5.49999 4.98001C5.06999 4.60001 4.44999 4.38001 3.88999 4.29001C3.82999 4.28001 3.76999 4.28001 3.70999 4.29001C3.60999 4.16001 3.44999 4.07001 3.27999 4.08001C2.20999 4.12001 1.49999 5.14001 1.24999 6.10001C0.99999 7.07001 1.20999 8.13001 1.90999 8.86001C2.61999 9.61001 3.79999 9.83001 4.69999 9.32001C4.89999 9.59001 5.09999 9.86001 5.33999 10.09C5.55999 10.3 5.94999 10.32 6.15999 10.09C6.36999 9.86001 6.39999 9.49001 6.15999 9.27001ZM2.89999 8.20001C2.93999 8.23001 2.84999 8.15001 2.83999 8.15001C2.80999 8.12001 2.77999 8.10001 2.74999 8.07001C2.72999 8.05001 2.62999 7.93001 2.65999 7.97001C2.56999 7.85001 2.45999 7.66001 2.41999 7.55001C2.38999 7.47001 2.32999 7.28001 2.30999 7.15001C2.30999 7.18001 2.30999 7.23001 2.30999 7.10001C2.30999 7.05001 2.29999 7.01001 2.29999 6.96001C2.29999 6.87001 2.29999 6.77001 2.30999 6.68001C2.34999 6.34001 2.50999 5.98001 2.69999 5.66001C2.73999 5.60001 2.89999 5.42001 2.97999 5.37001C2.99999 5.36001 3.08999 5.30001 3.14999 5.27001C3.15999 5.27001 3.19999 5.26001 3.19999 5.26001C3.22999 5.25001 3.23999 5.25001 3.23999 5.25001C3.24999 5.25001 3.24999 5.25001 3.27999 5.25001C3.28999 5.25001 3.29999 5.24001 3.30999 5.24001C3.37999 5.33001 3.46999 5.40001 3.57999 5.41001C3.94999 5.47001 4.26999 5.57001 4.57999 5.75001C4.60999 5.77001 4.64999 5.79001 4.67999 5.81001C4.67999 5.81001 4.67999 5.81001 4.68999 5.82001C4.71999 5.85001 4.71999 5.85001 4.72999 5.89001C4.76999 6.00001 4.78999 6.19001 4.79999 6.37001C4.81999 6.75001 4.81999 7.12001 4.71999 7.49001C4.70999 7.51001 4.68999 7.53001 4.68999 7.56001C4.63999 7.52001 4.60999 7.48001 4.55999 7.45001C4.44999 7.36001 4.23999 7.35001 4.10999 7.39001C3.97999 7.42001 3.82999 7.53001 3.76999 7.65001C3.69999 7.79001 3.65999 7.95001 3.70999 8.10001C3.72999 8.15001 3.74999 8.19001 3.76999 8.24001C3.80999 8.30001 3.86999 8.35001 3.91999 8.39001H3.90999C3.89999 8.39001 3.88999 8.38001 3.87999 8.37001C3.88999 8.38001 3.88999 8.39001 3.89999 8.40001C3.56999 8.48001 3.16999 8.41001 2.89999 8.20001Z" fill="black"/>
<path d="M10.64 5.72001C10.57 5.42001 10.22 5.23001 9.92997 5.32001C9.60997 5.40001 9.44997 5.73001 9.51997 6.03001C9.68997 6.75001 9.77997 7.52001 9.64997 8.25001C9.57997 8.60001 9.47997 8.96001 9.32997 9.22001C9.27997 9.30001 9.27997 9.32001 9.22997 9.37001C9.22997 9.37001 9.15997 9.43001 9.14997 9.45001C9.06997 9.50001 8.98997 9.51001 8.87997 9.49001C8.63997 9.44001 8.40997 9.24001 8.26997 9.05001C8.06997 8.77001 7.95997 8.45001 7.88997 8.11001C7.71997 7.31001 7.71997 6.46001 7.77997 5.64001C7.79997 5.33001 7.48997 5.06001 7.19997 5.06001C6.86997 5.06001 6.63997 5.33001 6.61997 5.64001C6.55997 6.47001 6.58997 7.30001 6.71997 8.11001C6.82997 8.83001 7.09997 9.57001 7.64997 10.08C8.24997 10.63 9.16997 10.9 9.85997 10.36C10.44 9.91001 10.68 9.10001 10.79 8.41001C10.92 7.51001 10.85 6.61001 10.64 5.72001Z" fill="black"/>
<path d="M14.0701 5.04001C13.9901 4.92001 13.8701 4.81001 13.7201 4.77001C13.1901 4.66001 12.6501 4.61001 12.1201 4.65001C12.0401 4.61001 11.9501 4.57001 11.8601 4.57001C11.5201 4.57001 11.3201 4.84001 11.2801 5.15001C11.1301 6.47001 10.9801 7.79001 10.8301 9.11001C10.7601 9.71001 10.5701 10.45 11.2301 10.78C11.5101 10.92 11.8401 11 12.1401 11.09C12.4801 11.2 12.8101 11.31 13.1501 11.42C13.8601 11.65 14.1601 10.54 13.4601 10.3C13.1801 10.21 12.8901 10.11 12.6101 10.02C12.4001 9.95001 12.1401 9.82001 11.9201 9.79001C11.9301 9.65001 11.9501 9.52001 11.9701 9.38001L12.0601 8.54001C12.0701 8.47001 12.0801 8.39001 12.0901 8.32001C12.2201 8.31001 12.3401 8.31001 12.4701 8.32001C12.6101 8.35001 12.7501 8.38001 12.8901 8.43001C12.9101 8.44001 12.9301 8.45001 12.9501 8.46001C13.0901 8.53001 13.2501 8.56001 13.4001 8.52001C13.5301 8.48001 13.6801 8.38001 13.7501 8.25001C13.8201 8.12001 13.8601 7.95001 13.8101 7.80001C13.7601 7.66001 13.6801 7.52001 13.5401 7.45001C13.3001 7.32001 13.0401 7.22001 12.7801 7.18001C12.6301 7.15001 12.4701 7.13001 12.3201 7.13001C12.2901 7.13001 12.2601 7.14001 12.2401 7.14001C12.2901 6.69001 12.3401 6.24001 12.3901 5.80001C12.6501 5.79001 12.9001 5.79001 13.1601 5.82001C13.2601 5.84001 13.3501 5.85001 13.4501 5.87001C13.6001 5.90001 13.7601 5.89001 13.9001 5.81001C14.0201 5.74001 14.1301 5.60001 14.1701 5.46001C14.1601 5.33001 14.1501 5.17001 14.0701 5.04001Z" fill="black"/>
<path d="M17.6201 5.60001C17.9201 5.61001 18.2101 5.33001 18.2001 5.02001C18.1901 4.70001 17.9501 4.45001 17.6201 4.44001C17.0601 4.43001 16.5001 4.42001 15.9401 4.40001C15.8201 4.40001 15.7001 4.45001 15.6101 4.52001C15.2901 4.47001 14.9301 4.65001 14.9301 5.06001C14.9201 6.75001 14.1101 8.33001 14.2001 10.04C14.2001 10.09 14.2201 10.14 14.2401 10.19C14.2401 10.21 14.2301 10.23 14.2301 10.25C14.2401 10.57 14.4801 10.82 14.8101 10.83C15.5001 10.85 16.1901 10.86 16.8801 10.84C17.1801 10.83 17.4701 10.58 17.4601 10.26C17.4501 9.95001 17.2101 9.67001 16.8801 9.68001C16.3801 9.69001 15.8801 9.68001 15.3701 9.67001C15.3801 9.03001 15.5101 8.41001 15.6501 7.78001C15.6501 7.78001 15.6501 7.78001 15.6601 7.78001H17.1501C17.4501 7.78001 17.7401 7.51001 17.7301 7.20001C17.7201 6.89001 17.4801 6.62001 17.1501 6.62001H15.9101C15.9801 6.27001 16.0301 5.91001 16.0701 5.55001C16.5701 5.57001 17.0901 5.59001 17.6201 5.60001Z" fill="black"/>
<path d="M22.4999 10.01C21.9699 9.47001 21.4399 8.92001 20.9099 8.38001C21.5499 8.01001 22.0799 7.52001 22.2099 6.75001C22.3299 6.04001 22.0699 5.39001 21.4599 5.00001C20.8999 4.64001 20.1399 4.54001 19.4899 4.60001C19.3899 4.61001 19.2899 4.65001 19.2099 4.70001C18.9599 4.77001 18.7899 5.00001 18.7699 5.26001C18.7299 5.71001 18.6099 6.15001 18.5299 6.60001C18.4399 7.10001 18.3499 7.60001 18.2699 8.10001C18.1099 9.10001 17.9799 10.1 17.8799 11.11C17.8499 11.42 18.1699 11.69 18.4599 11.69C18.7999 11.69 19.0099 11.42 19.0399 11.11C19.1099 10.42 19.2099 9.74001 19.3099 9.06001C19.3499 9.06001 19.3899 9.06001 19.4299 9.05001C19.5599 9.00001 19.6899 8.95001 19.8299 8.90001C19.8499 8.93001 19.8599 8.95001 19.8799 8.98001C20.4799 9.60001 21.0899 10.22 21.6899 10.84C21.8999 11.06 22.2999 11.07 22.5099 10.84C22.7199 10.6 22.7299 10.25 22.4999 10.01ZM19.5099 7.77001C19.4999 7.77001 19.4999 7.77001 19.4899 7.78001C19.6199 7.11001 19.7699 6.43001 19.8599 5.75001C19.8799 5.75001 19.8999 5.75001 19.9199 5.75001C19.9799 5.75001 20.0399 5.76001 20.0999 5.76001C20.1299 5.76001 20.1399 5.76001 20.1499 5.76001C20.1599 5.76001 20.1599 5.76001 20.1899 5.77001C20.3199 5.79001 20.4599 5.83001 20.5899 5.87001C20.6099 5.88001 20.6599 5.90001 20.6799 5.90001C20.7199 5.92001 20.7499 5.93001 20.7799 5.95001C20.8099 5.97001 20.8399 5.99001 20.8799 6.01001C20.8799 6.01001 20.9599 6.07001 20.9699 6.09001C20.9899 6.10001 20.9999 6.12001 21.0099 6.13001C21.0099 6.14001 21.0199 6.14001 21.0299 6.16001C21.0399 6.18001 21.0699 6.25001 21.0699 6.24001C21.0799 6.27001 21.0899 6.30001 21.0899 6.33001C21.0899 6.35001 21.0899 6.37001 21.0899 6.39001C21.0899 6.41001 21.0799 6.49001 21.0799 6.50001C21.0699 6.53001 21.0699 6.56001 21.0599 6.60001C21.0499 6.63001 21.0399 6.66001 21.0299 6.70001C21.0299 6.69001 20.9999 6.77001 20.9899 6.79001C20.9599 6.84001 20.9299 6.89001 20.8999 6.94001C20.8999 6.95001 20.8999 6.94001 20.8999 6.95001C20.8799 6.97001 20.8699 6.99001 20.8499 7.01001C20.7799 7.08001 20.7099 7.15001 20.6399 7.21001C20.6199 7.22001 20.5599 7.27001 20.5499 7.28001C20.4999 7.31001 20.4399 7.35001 20.3899 7.38001C20.1899 7.50001 19.9699 7.60001 19.7599 7.69001C19.7499 7.70001 19.6699 7.73001 19.6599 7.73001C19.6099 7.73001 19.5599 7.75001 19.5099 7.77001Z" fill="black"/>
<path d="M6.14994 14.65C5.84994 14.56 5.51994 14.76 5.43994 15.05C5.35994 15.36 5.53994 15.67 5.83994 15.76L6.29994 15.9C6.32994 15.91 6.36994 15.92 6.39994 15.93C6.37994 16.06 6.35994 16.19 6.27994 16.32C6.20994 16.44 6.18994 16.47 6.07994 16.57C6.01994 16.62 6.06994 16.59 5.98994 16.63C5.96994 16.64 5.93994 16.66 5.90994 16.67C5.89994 16.67 5.89994 16.67 5.89994 16.68C5.89994 16.68 5.89994 16.68 5.88994 16.68C5.83994 16.7 5.77994 16.71 5.71994 16.72C5.69994 16.72 5.66994 16.72 5.64994 16.72C5.62994 16.72 5.52994 16.71 5.51994 16.71C5.46994 16.7 5.40994 16.69 5.35994 16.67C5.33994 16.66 5.30994 16.65 5.28994 16.63C5.26994 16.62 5.24994 16.61 5.23994 16.6C5.23994 16.6 5.23994 16.6 5.22994 16.59C5.17994 16.54 5.11994 16.44 5.09994 16.39C4.99994 16.14 5.00994 15.89 5.02994 15.58C5.05994 14.99 5.18994 14.35 5.55994 13.88C5.66994 13.74 5.78994 13.6 5.91994 13.48C5.96994 13.43 5.99994 13.39 6.02994 13.38C6.03994 13.37 6.12994 13.34 6.09994 13.34C6.26994 13.31 6.46994 13.35 6.63994 13.36C6.84994 13.37 7.04994 13.36 7.26994 13.33C7.57994 13.28 7.74994 12.89 7.66994 12.62C7.57994 12.29 7.26994 12.17 6.95994 12.22C6.82994 12.24 6.58994 12.21 6.41994 12.2C6.18994 12.19 5.95994 12.19 5.73994 12.26C5.28994 12.4 4.97994 12.78 4.69994 13.14C4.08994 13.91 3.85994 14.93 3.86994 15.9C3.87994 16.77 4.27994 17.63 5.19994 17.84C6.03994 18.03 6.89994 17.63 7.30994 16.88C7.52994 16.48 7.68994 15.92 7.57994 15.46C7.41994 14.86 6.63994 14.79 6.14994 14.65Z" fill="black"/>
<path d="M13.02 13C12.76 12.85 12.37 12.93 12.23 13.21C11.91 13.85 11.59 14.48 11.27 15.12L10.75 14.27C10.62 14.06 10.48 13.84 10.35 13.63C10.32 13.57 10.28 13.52 10.25 13.46C10.24 13.44 10.23 13.41 10.22 13.39C10.2 13.34 10.19 13.29 10.17 13.24C10.17 13.21 10.17 13.18 10.17 13.15C10.18 12.85 9.89996 12.56 9.58996 12.57C9.26996 12.58 9.01996 12.82 9.00996 13.15C8.99996 13.75 9.37996 14.26 9.68996 14.76C9.98996 15.25 10.29 15.73 10.59 16.22C10.61 16.26 10.65 16.28 10.67 16.31C10.29 17.06 9.91996 17.81 9.53996 18.56C9.39996 18.84 9.46996 19.19 9.74996 19.35C10.01 19.5 10.4 19.42 10.54 19.14C11.44 17.36 12.33 15.58 13.23 13.79C13.37 13.52 13.31 13.17 13.02 13Z" fill="black"/>
<path d="M18.91 13.63C18.84 13.04 18.19 12.87 17.83 13.34C17.6 13.64 17.37 13.93 17.14 14.23C17.03 14.38 16.91 14.53 16.8 14.68L16.79 14.69C16.75 14.65 16.71 14.61 16.67 14.57C16.49 14.38 16.31 14.2 16.12 14.03C15.73 13.68 15.33 13.35 14.9 13.05C14.53 12.78 14.04 13.15 14.03 13.55C13.98 15.16 14 16.77 14.09 18.38C14.11 18.69 14.34 18.96 14.67 18.96C14.97 18.96 15.27 18.69 15.25 18.38C15.19 17.18 15.17 15.97 15.18 14.76C15.25 14.82 15.33 14.87 15.4 14.94C15.58 15.11 15.75 15.28 15.92 15.45C16.09 15.62 16.24 15.86 16.46 15.98C17.1 16.31 17.5 15.66 17.83 15.23C17.85 15.21 17.86 15.19 17.88 15.16C17.95 16.19 17.99 17.23 17.96 18.26C17.93 19.01 19.09 19.01 19.12 18.26C19.17 16.71 19.1 15.17 18.91 13.63Z" fill="black"/>
</g>
<defs>
<clipPath id="clip0_128_108">
<rect width="23.25" height="24.4" fill="white"/>
</clipPath>
</defs>
</svg>
