<svg width="227" height="228" viewBox="0 0 227 228" fill="none" xmlns="http://www.w3.org/2000/svg">
<path d="M183.99 25.61L160.6 81.89L221.37 77.21L171.26 111.91L224.92 140.82L164 142.93L193.51 196.26L141.13 165.1L137.11 225.91L109.89 171.38L73.6399 220.37L80.2199 159.78L23.2399 181.39L61.5299 133.98L1.90991 121.35L59.7599 102.17L16.4299 59.31L75.4699 74.45L62.1799 14.97L103.66 59.63L124.65 2.40997L135.4 62.4L183.99 25.61Z" fill="white" stroke="black" stroke-miterlimit="10"/>
<path d="M93.0599 74.5899L88.1299 72.9699L89.0799 70.0599L102.32 74.3999L101.37 77.3099L96.4399 75.6899L92.1599 88.7399L88.7899 87.6299L93.0599 74.5899Z" fill="#1D1D1B"/>
<path d="M103.01 78.7599L106.2 79.8099L102.18 92.0499L98.99 90.9999L103.01 78.7599ZM104.51 74.1699L107.7 75.2199L106.75 78.0999L103.56 77.0499L104.51 74.1699Z" fill="#1D1D1B"/>
<path d="M106.36 92C105.73 90.64 105.78 88.87 106.49 86.68C107.2 84.51 108.22 83.06 109.53 82.33C110.84 81.6 112.48 81.56 114.43 82.2C116.06 82.73 117.22 83.58 117.92 84.72C118.62 85.87 118.7 87.24 118.18 88.84L114.97 87.79C115.21 87.05 115.21 86.41 114.95 85.88C114.69 85.35 114.22 84.97 113.52 84.74C112.65 84.45 111.91 84.55 111.3 85.03C110.69 85.51 110.18 86.35 109.79 87.56L109.67 87.93C109.27 89.14 109.19 90.12 109.41 90.87C109.63 91.62 110.22 92.15 111.17 92.46C111.84 92.68 112.44 92.65 112.97 92.37C113.5 92.09 113.89 91.58 114.13 90.85L117.2 91.86C116.68 93.46 115.8 94.51 114.56 95.03C113.33 95.54 111.89 95.53 110.24 94.99C108.28 94.35 106.99 93.35 106.36 92Z" fill="#1D1D1B"/>
<path d="M123.46 80.3899L126.65 81.4399L123.55 90.8899L129.19 87.3599L132.87 88.5699L127.28 91.9399L129.09 100.88L125.44 99.6799L124.47 93.6099L122.32 94.6599L121.14 98.2699L117.95 97.2199L123.46 80.3899Z" fill="#1D1D1B"/>
<path d="M131.36 100.2C130.73 98.84 130.78 97.07 131.49 94.88C132.21 92.69 133.22 91.24 134.53 90.52C135.84 89.8 137.48 89.76 139.45 90.41C141.27 91.01 142.45 91.97 143.01 93.32C143.57 94.66 143.49 96.42 142.77 98.59L142.53 99.33L134.48 96.69C134.15 97.78 134.11 98.66 134.34 99.31C134.57 99.96 135.16 100.44 136.11 100.75C136.78 100.97 137.38 100.96 137.91 100.72C138.44 100.48 138.82 100.02 139.05 99.34L142.19 100.37C141.69 101.91 140.81 102.89 139.57 103.34C138.33 103.78 136.89 103.74 135.26 103.2C133.29 102.56 131.99 101.56 131.36 100.2ZM139.92 96.13C140.47 94.44 140.05 93.36 138.63 92.9C137.82 92.64 137.15 92.65 136.6 92.93C136.05 93.21 135.59 93.77 135.22 94.59L139.92 96.13Z" fill="#1D1D1B"/>
<path d="M144.31 105.15C144.02 104.37 144.03 103.5 144.34 102.55L146.52 95.9199L145.06 95.4399L145.92 92.8299L147.46 93.3299L149.13 90.0599L151.71 90.9099L150.58 94.3499L152.7 95.0399L151.84 97.6499L149.72 96.9599L147.65 103.27C147.43 103.94 147.65 104.38 148.32 104.6L149.44 104.97L148.71 107.2C148.42 107.21 148.06 107.18 147.64 107.13C147.22 107.08 146.84 107 146.5 106.88C145.32 106.51 144.6 105.93 144.31 105.15Z" fill="#1D1D1B"/>
<path d="M152.03 107.54C151.29 106.52 151.12 105.42 151.5 104.24L151.62 103.97L154.71 104.99L154.66 105.15C154.5 105.7 154.61 106.17 155.01 106.57C155.41 106.97 155.94 107.28 156.63 107.5C157.27 107.71 157.84 107.8 158.34 107.78C158.85 107.76 159.16 107.55 159.29 107.16C159.43 106.73 159.31 106.33 158.92 105.96C158.53 105.59 157.89 105.14 156.98 104.6C156.05 104.04 155.3 103.53 154.75 103.08C154.19 102.63 153.77 102.07 153.47 101.41C153.17 100.75 153.16 99.9899 153.44 99.1299C153.83 97.9399 154.63 97.1799 155.85 96.8599C157.06 96.5399 158.46 96.6499 160.04 97.1699C161.51 97.6499 162.63 98.3499 163.4 99.2699C164.17 100.18 164.38 101.15 164.05 102.17L163.85 102.7L160.76 101.69L160.77 101.64C160.9 101.18 160.82 100.78 160.52 100.44C160.22 100.09 159.75 99.8199 159.12 99.6099C158.48 99.3999 157.95 99.3199 157.52 99.3699C157.09 99.4199 156.83 99.6 156.72 99.91C156.59 100.3 156.71 100.66 157.08 100.98C157.45 101.31 158.07 101.72 158.96 102.21C159.92 102.78 160.69 103.29 161.27 103.74C161.85 104.19 162.29 104.75 162.59 105.44C162.9 106.13 162.9 106.92 162.61 107.82C161.74 110.46 159.44 111.16 155.7 109.94C153.99 109.35 152.77 108.56 152.03 107.54Z" fill="#1D1D1B"/>
<path d="M75.19 106.11C74.9 105.33 74.91 104.46 75.22 103.52L77.4 96.8899L75.93 96.4099L76.78 93.7999L78.32 94.2999L79.99 91.0299L82.57 91.8799L81.44 95.3199L83.56 96.0099L82.71 98.6199L80.59 97.9299L78.52 104.24C78.3 104.91 78.52 105.35 79.19 105.57L80.31 105.94L79.58 108.17C79.29 108.18 78.93 108.15 78.51 108.1C78.09 108.05 77.71 107.97 77.37 107.85C76.2 107.48 75.48 106.9 75.19 106.11Z" fill="#1D1D1B"/>
<path d="M87.3098 92.1799L90.4998 93.2299L88.5298 99.2299L88.6898 99.2799C89.9898 98.4499 91.3698 98.2799 92.8298 98.7599C94.0898 99.1699 94.9598 99.8399 95.4598 100.76C95.9598 101.68 95.9598 102.89 95.4698 104.4L92.7698 112.61L89.5798 111.56L92.0498 104.02C92.2998 103.26 92.2998 102.65 92.0598 102.19C91.8098 101.73 91.3398 101.39 90.6498 101.16C89.9398 100.93 89.2598 100.98 88.6198 101.33C87.9798 101.68 87.5398 102.23 87.2998 102.97L84.9798 110.04L81.7898 108.99L87.3098 92.1799Z" fill="#1D1D1B"/>
<path d="M99.6599 101.31L102.38 102.2L101.99 104.26L102.15 104.31C102.64 103.7 103.16 103.26 103.72 102.99C104.27 102.73 104.89 102.7 105.57 102.93C105.86 103.03 106.11 103.14 106.32 103.27C106.53 103.4 106.66 103.49 106.71 103.54L105.73 106.52L104.85 106.23C103.81 105.89 102.97 105.92 102.31 106.34C101.66 106.76 101.14 107.53 100.77 108.68L98.8299 114.59L95.6399 113.54L99.6599 101.31Z" fill="#1D1D1B"/>
<path d="M105.86 115.48C105.18 114.1 105.2 112.32 105.91 110.14C106.63 107.95 107.67 106.51 109.03 105.8C110.4 105.1 112.12 105.09 114.22 105.78C116.31 106.47 117.71 107.5 118.4 108.88C119.09 110.26 119.08 112.04 118.36 114.23C117.64 116.42 116.6 117.86 115.22 118.56C113.85 119.26 112.11 119.27 110.02 118.58C107.93 117.89 106.54 116.86 105.86 115.48ZM113.43 115.82C114.09 115.37 114.62 114.55 115.02 113.34L115.14 112.97C115.54 111.76 115.6 110.78 115.33 110.03C115.06 109.28 114.41 108.73 113.37 108.39C112.33 108.05 111.48 108.1 110.83 108.55C110.18 109 109.65 109.83 109.25 111.04L109.13 111.41C108.73 112.62 108.67 113.6 108.93 114.35C109.19 115.1 109.84 115.64 110.88 115.98C111.92 116.32 112.77 116.26 113.43 115.82Z" fill="#1D1D1B"/>
<path d="M119.91 120.69C119.41 119.77 119.41 118.56 119.91 117.05L122.61 108.84L125.8 109.89L123.33 117.43C123.08 118.19 123.08 118.8 123.32 119.26C123.56 119.72 124.04 120.06 124.74 120.29C125.45 120.52 126.13 120.47 126.77 120.12C127.41 119.77 127.85 119.22 128.09 118.48L130.41 111.41L133.6 112.46L129.58 124.7L126.86 123.81L127.15 122.13L126.99 122.08C125.58 123.01 124.11 123.22 122.56 122.71C121.29 122.27 120.41 121.6 119.91 120.69Z" fill="#1D1D1B"/>
<path d="M131.06 128.99C130.64 128.27 130.57 127.5 130.84 126.68C131.2 125.59 132.1 124.97 133.54 124.81C132.88 124.15 132.69 123.41 132.96 122.58C133.13 122.07 133.48 121.69 134 121.44C134.53 121.19 135.13 121.1 135.82 121.15C134.86 120.03 134.63 118.73 135.11 117.26C135.53 115.97 136.33 115.11 137.52 114.67C138.7 114.23 140.16 114.3 141.9 114.87C142.85 115.18 143.63 115.57 144.25 116.03C144.81 115.89 145.27 115.65 145.61 115.3C145.95 114.96 146.17 114.64 146.27 114.34L149.39 115.36C149.11 116.21 148.66 116.83 148.03 117.2C147.4 117.57 146.64 117.71 145.74 117.62C146.28 118.6 146.36 119.67 145.98 120.82C145.56 122.11 144.77 122.97 143.62 123.42C142.47 123.87 141.05 123.81 139.36 123.26L137.5 122.65C137.22 122.56 136.98 122.55 136.78 122.62C136.58 122.69 136.44 122.83 136.37 123.05C136.31 123.24 136.33 123.42 136.42 123.6C136.51 123.78 136.68 123.9 136.91 123.98L142.47 125.81C143.37 126.1 144.02 126.65 144.43 127.46C144.84 128.26 144.88 129.15 144.56 130.13C144.32 130.87 143.9 131.47 143.31 131.91C142.72 132.35 142.02 132.61 141.22 132.69C140.42 132.77 139.6 132.67 138.76 132.4L132.97 130.5C132.12 130.21 131.48 129.71 131.06 128.99ZM139.44 130.16C139.84 130.29 140.21 130.3 140.54 130.19C140.87 130.08 141.09 129.85 141.19 129.53C141.3 129.19 141.27 128.89 141.09 128.62C140.91 128.36 140.64 128.16 140.29 128.05L135.8 126.58C135.46 126.47 135.14 126.47 134.83 126.6C134.52 126.72 134.32 126.94 134.22 127.25C134.11 127.57 134.14 127.88 134.31 128.16C134.48 128.44 134.74 128.64 135.1 128.75L139.44 130.16ZM141.76 121.06C142.26 120.84 142.62 120.41 142.83 119.77C143.04 119.13 143.01 118.58 142.73 118.1C142.46 117.62 141.95 117.26 141.2 117.02C140.46 116.78 139.84 116.77 139.34 116.99C138.85 117.21 138.49 117.65 138.29 118.28C138.09 118.91 138.11 119.47 138.38 119.94C138.65 120.41 139.15 120.77 139.9 121.02C140.63 121.27 141.25 121.28 141.76 121.06Z" fill="#1D1D1B"/>
<path d="M151.98 113.4L155.17 114.45L153.2 120.45L153.36 120.5C154.66 119.67 156.04 119.5 157.5 119.98C158.76 120.39 159.63 121.06 160.13 121.98C160.63 122.9 160.63 124.11 160.13 125.62L157.44 133.83L154.25 132.78L156.72 125.24C156.97 124.48 156.97 123.87 156.73 123.41C156.48 122.95 156.01 122.61 155.31 122.38C154.6 122.15 153.92 122.2 153.28 122.55C152.64 122.9 152.2 123.45 151.96 124.19L149.64 131.26L146.45 130.21L151.98 113.4Z" fill="#1D1D1B"/>
<path d="M73.44 112.23L81.91 115.01C83.69 115.6 84.89 116.47 85.5 117.65C86.11 118.82 86.16 120.2 85.64 121.78C84.91 124.01 83.49 125.2 81.38 125.33L82.51 132.89L78.86 131.69L78 124.81L73.53 123.34L71.57 129.3L68.2 128.19L73.44 112.23ZM79.25 122.1C79.98 122.34 80.6 122.33 81.12 122.07C81.63 121.81 82 121.34 82.23 120.65C82.45 119.97 82.43 119.38 82.17 118.88C81.91 118.38 81.41 118.01 80.68 117.77L75.89 116.2L74.47 120.53L79.25 122.1Z" fill="#1D1D1B"/>
<path d="M85.8298 132.56C85.1498 131.18 85.1698 129.4 85.8798 127.22C86.5998 125.03 87.6398 123.59 88.9998 122.88C90.3598 122.17 92.0898 122.17 94.1898 122.86C96.2798 123.55 97.6798 124.58 98.3698 125.96C99.0598 127.34 99.0498 129.12 98.3298 131.31C97.6098 133.5 96.5698 134.94 95.1898 135.64C93.8198 136.34 92.0798 136.35 89.9898 135.66C87.8998 134.97 86.5098 133.93 85.8298 132.56ZM93.3998 132.89C94.0598 132.45 94.5898 131.62 94.9898 130.41L95.1098 130.04C95.5098 128.83 95.5698 127.85 95.2998 127.1C95.0298 126.35 94.3798 125.81 93.3398 125.46C92.2998 125.12 91.4498 125.17 90.7998 125.62C90.1498 126.07 89.6198 126.9 89.2198 128.11L89.0998 128.48C88.6998 129.69 88.6398 130.67 88.8998 131.42C89.1598 132.17 89.8098 132.71 90.8498 133.05C91.8898 133.39 92.7398 133.33 93.3998 132.89Z" fill="#1D1D1B"/>
<path d="M99.8699 137.86C99.5799 137.08 99.5899 136.21 99.8999 135.26L102.08 128.63L100.62 128.15L101.47 125.54L103.01 126.04L104.68 122.77L107.26 123.62L106.13 127.06L108.25 127.75L107.4 130.36L105.28 129.67L103.21 135.98C102.99 136.65 103.21 137.09 103.88 137.31L105 137.68L104.27 139.91C103.98 139.92 103.62 139.89 103.2 139.84C102.78 139.79 102.4 139.71 102.06 139.59C100.88 139.22 100.16 138.64 99.8699 137.86Z" fill="#1D1D1B"/>
<path d="M107.53 139.68C106.85 138.3 106.86 136.52 107.58 134.34C108.3 132.15 109.34 130.71 110.7 130C112.07 129.3 113.79 129.29 115.89 129.98C117.98 130.67 119.38 131.7 120.07 133.08C120.76 134.46 120.75 136.24 120.03 138.43C119.31 140.62 118.27 142.06 116.89 142.76C115.52 143.46 113.78 143.47 111.69 142.78C109.6 142.09 108.22 141.06 107.53 139.68ZM115.11 140.01C115.77 139.57 116.3 138.74 116.7 137.53L116.82 137.16C117.22 135.95 117.28 134.97 117.01 134.22C116.74 133.47 116.09 132.93 115.05 132.58C114.01 132.23 113.16 132.29 112.51 132.74C111.86 133.19 111.33 134.02 110.93 135.23L110.81 135.6C110.41 136.81 110.35 137.79 110.61 138.54C110.87 139.29 111.52 139.83 112.56 140.17C113.6 140.51 114.44 140.46 115.11 140.01Z" fill="#1D1D1B"/>
<path d="M122.73 132.53L126.01 133.61L125.69 139.07C125.67 139.46 125.6 140.11 125.49 141.02C125.38 141.93 125.3 142.53 125.26 142.83L125.35 142.86C125.48 142.61 125.74 142.16 126.12 141.5C126.5 140.84 126.87 140.21 127.24 139.61L130.15 134.97L133.43 136.05L133.09 141.56C133.06 142.07 133 142.74 132.91 143.59C132.82 144.44 132.76 145 132.72 145.28L132.81 145.31C132.93 145.09 133.2 144.62 133.6 143.91C134.01 143.19 134.37 142.59 134.69 142.09L137.61 137.43L140.64 138.42L133 149.45L129.7 148.37L130.22 142.07C130.25 141.55 130.31 140.98 130.39 140.37C130.47 139.76 130.52 139.37 130.55 139.18L130.43 139.14C130.36 139.31 130.18 139.65 129.91 140.18C129.63 140.71 129.35 141.2 129.06 141.65L125.67 147.03L122.37 145.95L122.73 132.53Z" fill="#1D1D1B"/>
<path d="M142.33 138.96L145.05 139.85L144.76 141.53L144.92 141.58C146.33 140.65 147.8 140.44 149.35 140.95C150.61 141.36 151.48 142.03 151.98 142.95C152.48 143.87 152.48 145.08 151.98 146.59L149.28 154.8L146.09 153.75L148.56 146.21C148.81 145.45 148.81 144.84 148.57 144.38C148.33 143.92 147.85 143.58 147.16 143.35C146.45 143.12 145.77 143.17 145.13 143.52C144.49 143.87 144.05 144.42 143.81 145.16L141.49 152.23L138.3 151.18L142.33 138.96Z" fill="#1D1D1B"/>
<path d="M65.8799 130.01L66.2599 128.84L150.49 156.48L150.11 157.64L65.8799 130.01Z" fill="#1D1D1B"/>
</svg>
