<svg width="12" height="3" viewBox="0 0 12 3" fill="none" xmlns="http://www.w3.org/2000/svg">
<g clip-path="url(#clip0_19_415)">
<path d="M2.68475 1.53913C1.99606 1.53913 1.37739 2.23044 1.37739 3H1.30736C1.30736 2.23044 0.688695 1.53913 0 1.53913V1.46087C0.688695 1.46087 1.30736 0.769563 1.30736 0H1.37739C1.37739 0.769563 1.99606 1.46087 2.68475 1.46087V1.53913Z" fill="white"/>
<path d="M5.78973 1.53913C5.10104 1.53913 4.48237 2.23044 4.48237 3H4.41234C4.41234 2.23044 3.79368 1.53913 3.10498 1.53913V1.46087C3.79368 1.46087 4.41234 0.769563 4.41234 0H4.48237C4.48237 0.769563 5.10104 1.46087 5.78973 1.46087V1.53913Z" fill="white"/>
<path d="M8.89483 1.53913C8.20614 1.53913 7.58747 2.23044 7.58747 3H7.51744C7.51744 2.23044 6.89878 1.53913 6.21008 1.53913V1.46087C6.89878 1.46087 7.51744 0.769563 7.51744 0H7.58747C7.58747 0.769563 8.20614 1.46087 8.89483 1.46087V1.53913Z" fill="white"/>
<path d="M12.0001 1.53913C11.3114 1.53913 10.6927 2.23044 10.6927 3H10.6227C10.6227 2.23044 10.004 1.53913 9.31531 1.53913V1.46087C10.004 1.46087 10.6227 0.769563 10.6227 0H10.6927C10.6927 0.769563 11.3114 1.46087 12.0001 1.46087V1.53913Z" fill="white"/>
</g>
<defs>
<clipPath id="clip0_19_415">
<rect width="12" height="3" fill="white"/>
</clipPath>
</defs>
</svg>
