<svg width="12" height="3" viewBox="0 0 12 3" fill="none" xmlns="http://www.w3.org/2000/svg">
<g clip-path="url(#clip0_19_126)">
<path d="M2.68475 1.53913C1.99606 1.53913 1.37739 2.23044 1.37739 3H1.30736C1.30736 2.23044 0.688695 1.53913 0 1.53913V1.46087C0.688695 1.46087 1.30736 0.769563 1.30736 0H1.37739C1.37739 0.769563 1.99606 1.46087 2.68475 1.46087V1.53913Z" fill="#FFA7F2"/>
<path d="M5.78967 1.53913C5.10097 1.53913 4.48231 2.23044 4.48231 3H4.41228C4.41228 2.23044 3.79361 1.53913 3.10492 1.53913V1.46087C3.79361 1.46087 4.41228 0.769563 4.41228 0H4.48231C4.48231 0.769563 5.10097 1.46087 5.78967 1.46087V1.53913Z" fill="#FFA7F2"/>
<path d="M8.89483 1.53913C8.20614 1.53913 7.58747 2.23044 7.58747 3H7.51744C7.51744 2.23044 6.89878 1.53913 6.21008 1.53913V1.46087C6.89878 1.46087 7.51744 0.769563 7.51744 0H7.58747C7.58747 0.769563 8.20614 1.46087 8.89483 1.46087V1.53913Z" fill="#FFA7F2"/>
<path d="M12 1.53913C11.3113 1.53913 10.6926 2.23044 10.6926 3H10.6226C10.6226 2.23044 10.0039 1.53913 9.31525 1.53913V1.46087C10.0039 1.46087 10.6226 0.769563 10.6226 0H10.6926C10.6926 0.769563 11.3113 1.46087 12 1.46087V1.53913Z" fill="#FFA7F2"/>
</g>
<defs>
<clipPath id="clip0_19_126">
<rect width="12" height="3" fill="white"/>
</clipPath>
</defs>
</svg>
