<svg width="73" height="76" viewBox="0 0 73 76" fill="none" xmlns="http://www.w3.org/2000/svg">
<path d="M0.968017 57.8233C2.3333 53.0957 7.63015 55.3404 11.122 57.4508C5.6285 53.385 -4.05578 44.7073 6.95213 40.711C21.6 35.3933 13.2001 60.8802 23.2199 61.4332C33.6794 62.0071 33.4179 27.6019 31.5365 0H35.0122C41.2578 105.803 -2.34338 69.301 0.968017 57.8233Z" fill="white"/>
<path d="M37.9164 2.79304C37.9164 2.79304 52.2496 83.2223 33.7997 75.2157C21.9587 69.2015 45.5967 73.2418 37.9164 2.79304Z" fill="white"/>
<path d="M44.8562 23.5292C44.8562 23.5292 54.8552 28.2198 52.6453 46.2554C50.4053 64.534 72.1573 43.3767 65.1874 34.6574C69.7183 38.3229 79.1688 27.197 65.5437 16.3325C51.9163 5.46577 64.9999 27.5741 55.5933 25.0356C46.1891 22.4971 44.8562 23.5292 44.8562 23.5292Z" fill="white"/>
<path d="M41.8247 4.9937C41.8247 4.9937 41.1861 28.0069 52.6823 19.0052C64.1784 10.0036 41.8247 4.9937 41.8247 4.9937Z" fill="white"/>
</svg>
