<?xml version="1.0" encoding="UTF-8"?><svg id="Layer_1" xmlns="http://www.w3.org/2000/svg" viewBox="0 0 52.39 11.72"><defs><style>.cls-1{fill:#9145f4;}</style></defs><path class="cls-1" d="M11.72,6.01c-3.01,0-5.71,2.7-5.71,5.71h-.31c0-3.01-2.7-5.71-5.71-5.71v-.31C3.01,5.71,5.71,3.01,5.71,0h.31c0,3.01,2.7,5.71,5.71,5.71v.31Z"/><path class="cls-1" d="M25.28,6.01c-3.01,0-5.71,2.7-5.71,5.71h-.31c0-3.01-2.7-5.71-5.71-5.71v-.31c3.01,0,5.71-2.7,5.71-5.71h.31c0,3.01,2.7,5.71,5.71,5.71v.31Z"/><path class="cls-1" d="M38.84,6.01c-3.01,0-5.71,2.7-5.71,5.71h-.31c0-3.01-2.7-5.71-5.71-5.71v-.31c3.01,0,5.71-2.7,5.71-5.71h.31c0,3.01,2.7,5.71,5.71,5.71v.31Z"/><path class="cls-1" d="M52.39,6.01c-3.01,0-5.71,2.7-5.71,5.71h-.31c0-3.01-2.7-5.71-5.71-5.71v-.31c3.01,0,5.71-2.7,5.71-5.71h.31c0,3.01,2.7,5.71,5.71,5.71v.31Z"/></svg>