<?xml version="1.0" encoding="UTF-8"?><svg id="Layer_1" xmlns="http://www.w3.org/2000/svg" viewBox="0 0 414.17 223"><defs><style>.cls-1{fill:#9145f4;}</style></defs><path class="cls-1" d="M178.03,169.32S316.79,114.51,286.38,15.47c-17.91-51.44,165.9,31.95-108.35,153.86Z"/><path class="cls-1" d="M0,223S136.04,128.5,171.7,42.39c35.44-85.56,153.38,11.18,26.06,91.57-49.57,36.52-76.82,31.91-76.82,31.91,0,0,142.68,1.6-34.59,40.15-23.04,5.01-51.48,10.64-86.35,16.98Z"/><path class="cls-1" d="M32.15,176.4S123.44,89.54,99.15,75.67c-24.29-13.87-67,100.73-67,100.73Z"/><path class="cls-1" d="M228.43,180.75s196.42,6.57,185.28-35.61c-11.14-42.18-185.28,35.61-185.28,35.61Z"/></svg>