<?xml version="1.0" encoding="UTF-8"?><svg id="Layer_1" xmlns="http://www.w3.org/2000/svg" viewBox="0 0 310.42 327.47"><defs><style>.cls-1{fill:#9145f4;}</style></defs><path class="cls-1" d="M.78,249.88c5.9-20.43,28.79-10.73,43.88-1.61-23.74-17.57-65.59-55.07-18.02-72.34,63.3-22.98,27,87.16,70.3,89.55,45.2,2.48,44.07-146.2,35.94-265.48h15.02C174.89,457.22-13.53,299.48,.78,249.88Z"/><path class="cls-1" d="M160.45,12.07s61.94,347.57-17.79,312.97c-51.17-26,50.98-8.53,17.79-312.97Z"/><path class="cls-1" d="M190.44,101.68s43.21,20.27,33.66,98.21c-9.68,78.99,84.32-12.44,54.2-50.12,19.58,15.84,60.42-32.24,1.54-79.19-58.89-46.96-2.35,48.58-43,37.61-40.65-10.97-46.4-6.5-46.4-6.5Z"/><path class="cls-1" d="M177.34,21.58s-2.76,99.45,46.92,60.55c49.68-38.91-46.92-60.55-46.92-60.55Z"/></svg>