<?xml version="1.0" encoding="UTF-8"?><svg id="Layer_1" xmlns="http://www.w3.org/2000/svg" viewBox="0 0 42.93 42.65"><defs><style>.cls-1{fill:#9145f4;}</style></defs><path class="cls-1" d="M42.93,20.56v1.8c-.01,.12-.03,.23-.04,.35-.03,.44-.05,.88-.1,1.32-.31,2.59-1.06,5.04-2.27,7.35-1.87,3.56-4.52,6.38-7.95,8.47-2.31,1.41-4.81,2.33-7.48,2.79-.08,.01-.16,0-.26,.01,0-.14-.01-.25-.01-.36,0-4.75,0-9.49,0-14.24,0-.07,0-.14,0-.21,0-.05,.02-.09,.04-.17,.11,0,.21,0,.31,0,1.47,0,2.94,0,4.4,0,.24,0,.24,0,.28-.24,.09-.55,.17-1.1,.26-1.66,.21-1.36,.42-2.72,.62-4.08,0-.07,0-.13,0-.22-.12,0-.22-.01-.32-.01-1.73,0-3.45,0-5.18,0-.08,0-.15,0-.23,0-.16,0-.18-.03-.19-.19,0-.03,0-.07,0-.1,0-1.24,0-2.47,0-3.71,0-.29,.02-.57,.08-.85,.23-1.27,.97-2.08,2.23-2.39,.38-.1,.77-.13,1.16-.13,.79,0,1.58,0,2.37,0,.07,0,.14,0,.21,0,.1,0,.16-.05,.16-.15,0-.06,0-.13,0-.19,0-.74,0-1.48,0-2.22,0-.8,0-1.61,0-2.41,0-.37-.02-.32-.32-.36-.53-.08-1.07-.14-1.6-.2-1.12-.12-2.24-.19-3.37-.16-.76,.02-1.52,.13-2.25,.34-1.47,.41-2.71,1.17-3.67,2.38-.68,.85-1.11,1.82-1.38,2.87-.24,.95-.33,1.91-.33,2.89,0,1.42,0,2.84,0,4.26q0,.35-.34,.35c-1.59,0-3.17,0-4.76,0-.1,0-.21,0-.33,.02,0,.12-.02,.22-.02,.32,0,1.85,0,3.69,0,5.54q0,.34,.34,.34c1.57,0,3.14,0,4.72,0,.43,0,.4-.04,.4,.39,0,4.73,0,9.46,0,14.19,0,.07,0,.14,0,.21,0,.05-.02,.11-.03,.18-.08,0-.15,0-.22-.02-.41-.08-.83-.15-1.23-.25-6.03-1.4-11.15-5.31-14.08-10.78C.7,28.17-.14,24.49,.02,20.59c.04-1.06,.16-2.12,.36-3.16C1.56,11.21,5.49,5.77,11.03,2.7,14.33,.87,17.88-.03,21.65,0c1.54,.01,3.07,.18,4.57,.52,7.98,1.81,14.25,8.03,16.14,15.99,.29,1.24,.49,2.49,.53,3.77,0,.09,.02,.18,.04,.27Z"/></svg>