<?xml version="1.0" encoding="utf-8"?>
<!-- Generator: Adobe Illustrator 26.5.0, SVG Export Plug-In . SVG Version: 6.00 Build 0)  -->
<svg version="1.1" id="Layer_1" xmlns="http://www.w3.org/2000/svg" xmlns:xlink="http://www.w3.org/1999/xlink" x="0px" y="0px"
	 viewBox="0 0 39 39" style="enable-background:new 0 0 39 39;" xml:space="preserve">
<path d="M29.1,39H10c-0.1,0-0.2,0-0.4-0.1c-1.1-0.1-2.1-0.3-3.1-0.8c-4.2-2-6.5-5.3-6.5-9.9C0,22.4,0,16.6,0,10.8
	C0,9,0.4,7.2,1.4,5.6C3.5,1.9,6.8,0,11,0c5.7,0,11.4,0,17.1,0c0.7,0,1.5,0,2.2,0.2c4.4,1,7.2,3.7,8.5,8c0.2,0.6,0.2,1.2,0.3,1.8v19
	c-0.1,0.4-0.1,0.8-0.2,1.2c-1,4.4-3.7,7.3-8,8.5C30.3,38.9,29.7,38.9,29.1,39L29.1,39z M19.6,3.5c-2.8,0-5.7,0-8.5,0
	c-0.9,0-1.8,0.1-2.6,0.4c-3.1,1.1-5,3.8-5,7.1c0,5.7,0,11.4,0,17.1c0,0.9,0.1,1.7,0.4,2.5c1,3.1,3.7,5,7.1,5c5.7,0,11.4,0,17.1,0
	c0.9,0,1.7-0.1,2.5-0.4c3.1-1,5-3.7,5-7c0-5.7,0-11.5,0-17.2c0-2.6-1-4.6-3.1-6.1c-1.3-1-2.8-1.3-4.4-1.3
	C25.2,3.5,22.4,3.5,19.6,3.5L19.6,3.5z"/>
<path d="M29.6,19.5c0,5.5-4.6,10.1-10.1,10.1C14,29.6,9.5,25,9.5,19.5c0-5.5,4.5-10,10.1-10C25.1,9.5,29.6,14,29.6,19.5L29.6,19.5z
	 M19.5,12.9c-3.6,0-6.6,3-6.6,6.6c0,3.6,3,6.6,6.6,6.6c3.6,0,6.6-3,6.6-6.6C26.1,15.9,23.1,12.9,19.5,12.9z"/>
<path d="M30,11.6c-1.4,0-2.6-1.1-2.6-2.5c0-1.4,1.1-2.5,2.5-2.5c1.4,0,2.6,1.1,2.6,2.5C32.6,10.5,31.4,11.6,30,11.6z"/>
</svg>
