<?xml version="1.0" encoding="UTF-8"?><svg id="Layer_1" xmlns="http://www.w3.org/2000/svg" viewBox="0 0 306.03 739.59"><defs><style>.cls-1{fill:#9145f4;}</style></defs><path class="cls-1" d="M297.75,691.14s-146.07-104.34-230.38-56.65c-84.32,47.7-105.04-158.81,29.38-76.7,57.23,29.55,91.36,46.42,91.36,46.42,0,0-64.66-134.54,53.69,13.82,15.38,19.28,33.85,43.34,55.96,73.1Z"/><path class="cls-1" d="M256.29,699.16s4.94,51.54-21.72,38.23c-26.66-13.31-20.36-43.47-20.36-43.47,0,0-25.56,66.99-53.3-3.83-1.75,0-30.48,52.26-54.35-3.48-2.45-.35-24.87,49.8-46.98,1.08-22.12-48.73,38.57-8.79,38.57-8.79,0,0,9.44-48.74,36.81-7.03,.7-1.4,24.17-43.14,45.24,9.44-.35-2.8,33.29-42.09,49.8,10.84,1.4,.7,19.27-22.8,26.3,7Z"/><path class="cls-1" d="M265.34,592.76S49.8,250.9,228.26,166.3c133.91-63.48,70.69-140.22-9.27-93.87,44.04-53.31-49.83-132.11-69.53,0-90.39-125.16-42.54,341.35,125.16,549.3l-9.27-28.97Z"/><path class="cls-1" d="M222.25,448.06s22.49-195.6-20.52-187.9c-43.02,7.7,20.52,187.9,20.52,187.9Z"/></svg>