<?xml version="1.0" encoding="UTF-8"?><svg id="Layer_1" xmlns="http://www.w3.org/2000/svg" viewBox="0 0 39.05 39.04"><defs><style>.cls-1{fill:#9145f4;}</style></defs><path class="cls-1" d="M29.07,39.04H10.01c-.12-.02-.25-.05-.37-.07-1.07-.12-2.11-.35-3.08-.81C2.37,36.18,.11,32.86,.04,28.22c-.08-5.79-.02-11.59-.02-17.38,0-1.88,.41-3.67,1.37-5.28C3.55,1.91,6.77,.04,11,.02c5.69-.03,11.38-.01,17.08,0,.73,0,1.48,.04,2.2,.2,4.42,.98,7.25,3.66,8.46,8.03,.16,.57,.22,1.17,.32,1.75V29.05c-.06,.4-.11,.8-.19,1.2-.99,4.42-3.67,7.26-8.04,8.47-.57,.16-1.17,.22-1.75,.32ZM19.57,3.47c-2.83,0-5.67,0-8.5,0-.89,0-1.77,.09-2.62,.4-3.09,1.11-4.96,3.77-4.96,7.12,0,5.69-.02,11.38,.01,17.07,0,.85,.13,1.74,.4,2.54,1.05,3.11,3.74,4.97,7.09,4.98,5.69,.01,11.38,.02,17.07-.01,.85,0,1.74-.12,2.54-.39,3.1-1.04,4.97-3.72,4.98-7.05,.02-5.73,.01-11.46,0-17.19,0-2.56-1.04-4.62-3.12-6.13-1.32-.96-2.82-1.34-4.44-1.34-2.82,0-5.64,0-8.46,0Z"/><path class="cls-1" d="M29.6,19.53c0,5.53-4.56,10.07-10.07,10.06-5.54-.02-10.07-4.57-10.05-10.08,.03-5.53,4.53-10.03,10.05-10.04,5.52,0,10.07,4.54,10.06,10.06Zm-10.08-6.59c-3.65,.03-6.6,2.99-6.57,6.61,.03,3.65,2.99,6.6,6.61,6.57,3.65-.02,6.6-2.99,6.57-6.61-.03-3.65-2.99-6.6-6.61-6.57Z"/><path class="cls-1" d="M30.04,11.6c-1.4,0-2.56-1.14-2.56-2.53,0-1.38,1.13-2.51,2.52-2.53,1.4-.01,2.56,1.13,2.56,2.53,0,1.38-1.14,2.52-2.52,2.53Z"/></svg>